<?xml version="1.0" encoding="UTF-8"?><svg id="Layer_2" xmlns="http://www.w3.org/2000/svg" viewBox="0 0 1201 627"><defs><style>.cls-1{fill:#373234;}</style></defs><path class="cls-1" d="m615.47,490.04c-1.1,2.61-3.33,4.72-4.01,4.95-.04.01-.07.02-.11.04-.03.01-.06.02-.09.04-.91.39-1.94,2.35-2.09,25.92-1.05.08-2.72.64-5.54,1.63-2.61.92-5.58,1.96-7.19,2.08-5.49.42-30.76,1.16-32.93-.07-.82-.66-2.21-1.3-3.81-2.06-2.55-1.19-5.73-2.68-6.7-4.31-1.54-2.57-4.04-3.89-6.24-5.06-.56-.3-1.11-.59-1.63-.9l-.66-.38c-1.93-1.13-7.8-4.55-8.34-5.55-.04-.12-4.99-12.47-7.71-12.9-4.16-.71-4.97.35-5.24.7-.24.31-.58,1-.11,2.03.17.36.52,1.06,1,2.01,1.92,3.79,6.42,12.66,6.87,15.99.6,4.3-3.6,15.54-5.08,16.12-.76.14-78.25,17.36-100.25,31.44-.55-5.3-2.7-21.41-9.11-29.51-2.98-3.77-6.45-7.22-9.81-10.56-4.8-4.77-9.34-9.28-10.45-13.08-1.2-4.08-2.2-7.87-1.15-9.36.35-.51,1.02-.79,2.03-.85,2.68-.17,4.95-2.44,6.39-4.32,1.94-2.53,3.73-6.25,3.36-8.08-.14-.71-.64-2.02-1.33-3.83-1.38-3.6-3.94-10.3-3.14-12.26.23-.56.5-1.15.79-1.76,1.39-2.98,3.12-6.68.5-9.61-1.89-2.1-4.06-5.84-5.05-7.63,2.19-.81,7.15-2.65,10.02-3.91,2.29-1.01,3.27-5.81,4.61-13.6.6-3.43,1.4-8.11,2.15-8.89.07-.02.15-.04.23-.07,4.01,2.47,9.53,5.2,14.11,5.1,2.34-.07,4.68.27,6.95.59,1.86.27,3.68.53,5.36.53.42,0,.83-.02,1.23-.08.17,0,.34-.03.51-.05.33-.04.66-.09.98-.17h.01c1.47-.35,2.76-1.09,3.76-2.45,1.86-2.5,1.39-5.63.93-8.66-.43-2.9-.84-5.63.93-7.32.94-.89,2.41-1.64,4.1-2.21.24-.09.49-.17.74-.24.68-.21,1.38-.38,2.09-.53.15-.03.3-.06.45-.09.46-.09.91-.16,1.37-.23.45-.07.9-.12,1.34-.17,1.87-.18,3.6-.18,4.85.04,1.16.2,1.56.51,1.6.6,1.15,2.48,2.39,4.71,5.03,4.71.33,0,.67-.06,1.02-.16.11-.03.23-.07.35-.11.83-.26,1.73-.77,2.71-1.32,1.07-.6,2.25-1.26,3.34-1.58.13-.05.26-.08.39-.1.09-.02.18-.04.26-.05.09-.01.18-.01.26-.02,1.09-.12,2.49,1.7,3.63,3.13,1.32,1.66,2.57,3.22,4.09,3.35.26.02.53,0,.82-.07l.15-.03c1.21-.29,2.74-1.3,4.89-2.78,2.04-1.41,4.51-3.1,6.34-3.53.1-.02.19-.04.29-.05.12-.01.24-.02.36-.02,1.81,0,3.3,1.2,4.87,2.48,1.39,1.13,2.84,2.3,4.59,2.61,1,.18,2.48.07,4.29-.25,1.13-.2,2.38-.48,3.73-.81,1.32-.32,2.74-.71,4.21-1.13.49-.14.99-.29,1.49-.43.05-.02.1-.03.15-.04.91-.27,1.83-.55,2.77-.82.31-.09.62-.18.93-.28.52-.15,1-.3,1.46-.44.05-.02.1-.03.14-.04.17-.05.33-.1.49-.14.16-.05.34-.1.54-.17.25-.08.53-.17.82-.26.15-.05.3-.1.46-.15.27-.09.54-.18.83-.28,4.31-1.48,11.01-4.32,11.23-7.69.08-1.14-.19-2.87-.47-4.7-.27-1.75-.76-4.94-.41-5.76.33-.01.67-.05,1.02-.12.3-.06.6-.13.92-.21.76-.19,1.56-.47,2.38-.75.73-.25,1.46-.5,2.18-.7.18-.05.36-.1.54-.14.31-.08.61-.14.91-.18.17-.02.34-.04.51-.05.16-.01.31-.03.46-.06.17-.03.33-.07.49-.11,1.39-.35,2.59-1.34,3.77-2.3,1.06-.88,2.07-1.71,3.1-1.99.04-.01.07-.02.1-.02.08-.02.16-.03.23-.04.08-.01.16-.01.24-.01.19,0,1.36.17,6.55,3.34-1.04,3.87-.01,8.62,1,13.22.53,2.4,1.02,4.66,1.2,6.7.59,6.57,2.62,15.5,3.87,18.21.56,1.22,3.71,4.49,9.23,10.17,4.78,4.91,12.01,12.34,12.43,13.86.19.67.62,2.85,1.16,5.61,4.3,22.1,6.39,28.87,8.91,28.99.99.05,2.27-.13,3.62-.31,3.09-.42,6.93-.94,7.9,1.06.57,1.19.17,2.67-.26,3.7Z"/><path class="cls-1" d="m567.12,386.8c-4.86-2.94-6.36-3.34-7.12-3.34-.3,0-.59.03-.87.09-.08.01-.16.03-.24.05-1.55.32-2.85,1.39-4.11,2.43-1.13.92-2.19,1.79-3.23,1.95-.03.01-.05.01-.08.01-.44.03-.89.1-1.33.19-.36.07-.72.15-1.08.25-.85.22-1.69.51-2.52.8-.84.29-1.65.57-2.38.75-.16.03-.31.07-.45.09-.29.05-.57.08-.82.08-.16,0-.31.02-.46.06-.4.07-.76.27-1.03.59-.99,1.16-.7,3.59-.1,7.47.26,1.64.52,3.34.45,4.26-.11,1.76-5.58,4.74-12.44,6.76-.28.08-.57.17-.87.27-.35.1-.72.21-1.1.33-.05.01-.1.02-.15.04-.15.04-.3.09-.45.14-.77.23-1.6.47-2.47.73-.3.09-.6.18-.91.27-.76.22-1.55.44-2.34.66-.47.13-.95.26-1.43.39-.21.06-.42.11-.63.17-.18.04-.36.09-.54.14-.55.13-1.08.26-1.6.38-.17.04-.33.08-.5.12-.86.19-1.67.35-2.4.47-1.31.21-2.39.29-3.08.16-1.24-.22-2.43-1.18-3.68-2.2-1.69-1.37-3.61-2.92-6.13-2.92-.34,0-.69.04-1.06.11-.13.03-.26.06-.39.1-2.2.53-4.7,2.26-6.96,3.8-1.34.92-3.09,2.14-4.02,2.44-.03.01-.05.02-.08.02-.07.02-.13.02-.18.02-.65-.06-1.82-1.53-2.68-2.61-1.58-1.98-3.22-4.01-5.33-3.88-.39.03-.77.09-1.16.19-.18.04-.35.09-.53.15-1.28.38-2.54,1.09-3.69,1.73-.84.47-1.7.96-2.35,1.18-.07.02-.14.04-.2.05-.09.02-.18.03-.26.03-1.22,0-1.97-.82-3.22-3.54-.39-.85-1.34-1.41-2.9-1.7-2.28-.44-6.02-.24-9.54.57-.07.01-.13.03-.2.05-.15.03-.31.07-.46.11-.28.07-.57.14-.84.23-2.46.69-4.69,1.7-6.08,3.02-2.53,2.41-2.02,5.79-1.53,9.07.41,2.74.8,5.34-.56,7.17-.67.91-1.56,1.43-2.63,1.7-.16.04-.34.07-.52.1-1.78.25-4-.07-6.52-.43-2.35-.34-4.78-.68-7.29-.62-4.2.1-9.6-2.71-12.85-4.69,1.63-3.46,2.43-11.88,2.13-16.66-.19-3.02-.76-3.87-1.23-4.28-1.19-1.02-3.43-.56-6.53.07-4.04.83-9.06,1.86-12.64-.18-4.42-2.5-3.77-16.89-1.87-28.45.2-1.18-.14-2.22-.97-3.01-2.01-1.9-6.35-1.77-8.78-1.23-2.91.67-9.43,3.31-11.03,7.24-.47,1.15-.59,2.38-.7,3.46-.06.7-.18,1.88-.43,2.02-.01.01-.35.19-1.67-.41-3.69-1.67-10.76.43-15.43,1.82-1.5.44-2.79.83-3.37.9-1.21.14-2.59.3-3.39-.39-.68-.59-1.05-1.82-1.1-3.66-.09-3.33-1.49-6.54-2.73-9.37-.93-2.14-1.81-4.16-1.99-5.88-.38-3.66,5.14-9.14,7.99-9.53.96-.13,1.53-.82,1.47-1.76-.21-3.1-9.28-10.99-13.55-10.99-.58,0-1.19,0-1.82,0-3.94.04-9.32.1-10.92-1.56l-.64-.67c-2.32-2.41-7.14-7.41-8.15-11.29-.91-3.45-.54-3.95,1.26-6.34.28-.38.59-.8.93-1.27,1.5-2.07,1.32-4.94,1.17-7.47-.12-1.93-.25-3.92.56-4.48.58-.4,1.28-.81,2.02-1.24,2.59-1.52,5.52-3.24,6.06-6.09.28-1.5-.02-3.11-.36-4.96-.45-2.46-.96-5.24-.42-8.83.53-3.53,2.77-5.28,4.75-6.82,1.45-1.14,2.7-2.12,2.91-3.61.25-1.75.08-13.91-.96-15.12l-.35-.37h-.46c-2.05,0-11.48-.58-12.94-1.74-.84-.67-3.65-3.97-6.14-6.88-5.81-6.8-6.56-7.53-7.27-7.67-.37-.07-.85-.01-2.34.21-2.96.43-10.82,1.58-12.32-.92-2.58-4.29-4.34-10.08-4.81-11.75-.4-1.41-1.41-2.51-2.58-3.78-1.44-1.58-3.08-3.36-4.13-6.31-1.13-3.18,2.17-8.49,4.59-12.37,1.46-2.34,2.61-4.19,2.92-5.55.79-3.6.8-9.22.8-9.46v-.79l-.77-.18c-3.79-.9-14.07-3.97-16.13-7.33-.28-.46-.37-.88-.27-1.29,1-4.15,13.84-6.55,19.89-7.06,1.36-.11,2.87.73,4.32,1.54,1.89,1.05,3.85,2.15,5.85,1.35,1.47-.59,4.55-3.83,9.88-9.51,5.22-5.55,11.7-12.46,15.93-15.42,6.81-4.77,9.57-4.96,13.39-5.22.47-.03.94-.06,1.44-.11,3.24-.27,4.97-3.17,6.24-5.3.45-.77,1.22-2.05,1.56-2.12,1.01.13,2.62,1.11,3.91,1.89,1.59.97,2.53,1.51,3.31,1.51.92,0,1.43-.83,2.07-1.88,1.12-1.82,2.66-4.31,6.18-4.31,6.31,0,16.66-.68,19.68-.89,2.55-.18,5.6-1.93,8.3-3.48,1.94-1.11,3.95-2.26,4.89-2.26s3.75.82,6.69,1.7c4.47,1.33,10.03,2.98,13.76,3.16,2.09.1,5.79-.34,10.08-.86,7.69-.92,19.3-2.32,21.35.07,3.75,4.36,5.53,5.06,9.31,5.06s36.34-21.23,38.88-23.45c2.3-.76,21.87,2.44,39.61,5.91l-1.63,20.11c-1.78,3.6-2.76,5.97-2.92,7.05-.16,1.12.29,1.97.76,2.86.66,1.25,1.55,2.95,1.49,6.6-.08,5.64-1.64,7.03-2.22,7.09-1.55.13-1.57,2.32-1.59,5.93,0,.86-.01,2-.07,2.41-.6.74-2.24,3.25-7.67,12.48l-.26.45.21.47c2.15,4.84,5.42,12.69,5.62,14.45.07.61.18,1.25.29,1.89.25,1.52.6,3.6.03,4.14-1.53,1.39-4.98,12.4-4.19,14.37.25.64,1.3,1.67,5.3,5.45,4.03,3.8,12.42,11.71,12.42,13.55-.06,1.57-6.71,9.4-10.69,14.08-7.66,9.03-8.54,10.31-7.83,11.42,1.43,2.22,31.74,55.84,34.18,65.85,2.68,11.04,6.34,43.52,4,49.23Z"/><path class="cls-1" d="m686.66,266.3c.75,1.41,2.48,14.4,2.34,16.05-.18.25-.89.78-1.41,1.18-1.97,1.5-4.93,3.76-4.65,7.03.25,2.82,2.03,5.43,3.59,7.74.84,1.23,1.62,2.39,1.97,3.31.25.67.14,1.38-.33,2.09-.75,1.16-2.35,2.13-3.63,2.2-.68.04-1.66.37-2.5,1.68-1.28,1.99-1.76,5.76-.99,7.75.65,1.67-2.58,13.17-6.04,17.05-2.31,2.6-19.83,4.02-30.33,4.3l-1.19.04.24,1.17c.02.09,1.98,10.03-2.19,16.25-1.67,2.51-4.15,4.1-7.37,4.72-11.37,2.19-51.72,2.16-65.38,2.08-.13-1.39-.29-2.79-.46-4.17-.96-8.09-2.17-15.62-3.14-19.64-2.51-10.29-31.59-61.49-34.25-66.12.63-1.3,4.41-5.76,7.49-9.39,6.94-8.17,11.15-13.28,11.15-15.36,0-2.3-4.2-6.67-13.02-14.99-2.14-2.02-4.56-4.3-4.82-4.71-.32-1.43,2.6-11.13,3.68-12.21,1.36-1.27.97-3.63.58-5.91-.1-.61-.21-1.23-.27-1.81-.29-2.42-4.49-12.08-5.58-14.57,3.11-5.28,6.58-11.01,7.19-11.77.55-.43.56-1.27.57-3.68.01-1.18.02-3.28.21-4.05,1.2-.35,3.5-1.95,3.59-8.95.08-4.17-1-6.21-1.71-7.56-.42-.79-.61-1.2-.55-1.66.12-.79,1.11-3.14,2.66-6.31,2.06-1.06,8.81-4.31,11.04-4.31,1.83,0,12.84,6.21,20.27,10.73l.38,1c-1.64,7.77-2.98,14.23-4.01,19.36-.23,1.17-.45,2.27-.65,3.29-.24,1.22-.46,2.34-.65,3.36-.11.63-.22,1.22-.33,1.77-.14.77-.27,1.47-.37,2.1,0,.05-.01.1-.03.15-.11.63-.2,1.18-.26,1.66-.17,1.07-.25,1.78-.25,2.16,0,4.06,12.65,36.38,18.02,39.21,4.67,2.48,8.7,1.59,13.37.57.71-.16,1.44-.32,2.2-.47,3.61-.74,14.9,3.3,21.64,5.71,4.4,1.57,6.38,2.27,7.19,2.27.81.03,3.35,3.03,5.33,6.3l.54.89,4.54-3.02c4.94,6.1,18.5,22.36,22.61,22.36,3.16,0,11.99-4.54,20.03-8.8,1.38-.74,2.58-1.38,2.97-1.55.36-.02,2.01.04,9.41,1.11-9.43,10.78-9.06,11.63-8.47,12.33.01.01.02.03.03.04Z"/><path class="cls-1" d="m910.17,332.23c-.44,2.06-8.9,10.26-16.73,16.89l-.13.11-29.09,49.34c-14.9-4.11-32.94-8.92-35.69-8.92-3.59,0-22.47-.41-33.74-.66-5.26-.11-8.01-.18-8.27-.18-.98,0-1,0-4.13,9.26-2.55,7.58-8.53,25.31-10.79,26.12-1.87.07-6.84-2.4-10.87-4.38-5.05-2.5-8.21-4.02-9.84-3.87-2.12.21-2.57,2.63-3,4.97-.43,2.29-.87,4.67-2.54,5.26-2.16.77-3.33.57-5.67.16-1.66-.29-3.93-.69-7.37-.81-6.75-.24-18.91-7.02-22.06-8.84l3.58-12.5-.11-.04.02-.08-21.69-7.28-.26,1.05c-1.9,7.52-5.24,15.68-7.33,15.76-2.18.07-4.02-.24-5.81-.54-1.5-.26-2.93-.5-4.46-.5-2.93,0-3.24,5.99-3.41,15.87-.05,3.15-.1,6.12-.37,7.14-.47,1.82.67,5.57,2.46,11.08.85,2.61,1.99,6.1,2.03,7.31-1.06.36-2.57,1.52-5.22,3.59-3.28,2.57-7.77,6.14-9.9,6.02-.77-.03-1.45-.49-2.06-1.18-.14-.16-.29-.34-.42-.53-.57-.79-1.09-1.75-1.58-2.66-.37-.68-.73-1.33-1.1-1.89-.04-.06-.08-.12-.12-.18-.06-.1-.13-.2-.2-.29-.68-.97-1.43-1.6-2.45-1.53-1.66.11-2.43,1.8-3.18,3.43-.82,1.79-1.45,2.95-2.45,2.91-.44-.02-.9-.36-1.37-.88-.12-.14-.25-.29-.37-.45-.08-.1-.16-.21-.24-.32-.54-.77-1.08-1.69-1.56-2.51-.2-.34-.39-.67-.6-.99-.16-.28-.33-.56-.51-.82-.29-.48-.59-.91-.91-1.28-.74-.91-1.53-1.48-2.5-1.44-1.95.11-2.83,3.7-4.86,16.02-.8,4.86-1.71,10.37-2.43,11.59-1.59,2.7,2.02,20.03,5.45,34.58-.28,0-.5,0-.67,0-1.14,0-2.35,1.06-4.38,2.94-1.89,1.75-4.48,4.13-6.23,4.13-.75,0-1.84.03-3.09.07-2.92.08-8.66.25-10.72-.2.1-16.65.68-23.94,1.22-25.32,1.49-.71,3.79-3.25,4.93-5.93.86-2.03.94-3.88.23-5.36-1.29-2.7-4.63-2.79-7.83-2.44-.38.03-.75.08-1.12.13-.38.04-.74.09-1.1.14-.15.02-.3.04-.45.06-.38.05-.75.1-1.1.14-.03.01-.06.01-.09.01-.54.05-1.03.09-1.44.08-2.12-1.58-5.76-20.28-7.14-27.35-.57-2.93-.98-5.04-1.2-5.79-.52-1.87-5.46-7.05-12.94-14.74-3.93-4.04-8.39-8.63-8.83-9.59-1.04-2.25-3.09-10.8-3.7-17.55-.19-2.17-.7-4.5-1.23-6.97-1.02-4.65-2.07-9.47-.82-12.94l.27-.76h-.02c1.82-3.63.89-16.67.09-24.89,2.25.02,5.19.03,8.61.03,17.56,0,47.4-.29,57.04-2.15,3.76-.73,6.68-2.61,8.66-5.58,3.78-5.65,3.1-13.62,2.67-16.6,5.76-.19,27.29-1.18,30.63-4.93,3.42-3.85,7.55-16.16,6.4-19.11-.49-1.29-.21-4.34.81-5.94.22-.34.56-.74.94-.77,1.91-.1,4.09-1.41,5.19-3.1.81-1.24,1-2.62.52-3.89-.43-1.14-1.28-2.4-2.18-3.73-1.43-2.1-3.05-4.49-3.25-6.79-.19-2.17,2.15-3.96,3.86-5.26,1.19-.9,1.97-1.5,2.14-2.29.26-1.12-1.3-14.45-2.46-17.3.41-.98,2.97-4.44,9.04-11.33,1.28.18,2.61.39,3.96.59.96.15,1.93.3,2.92.45.65.1,1.3.2,1.96.31.33.05.65.1.97.15.71.11,1.42.23,2.11.33.08.01.15.03.22.04,2.3.37,4.49.73,6.42,1.04,4.29.71,7.29,1.21,7.36,1.22l1.32.23v-.02h.08s-.16-1.32-.16-1.32c-.13-1.03-.24-4.25.85-5.48.21-.24.45-.38.75-.45.1-.02.2-.03.31-.03h.04s.1,0,.16.02c2.24.44,8.01,6.24,11.16,9.42,3.68,3.7,4.47,4.43,5.26,4.43h.08c.6,0,6.94.41,12.53.78,1.44.09,2.89.19,4.29.28.68.04,1.35.08,1.99.13.84.05,1.64.1,2.39.15.27.01.54.03.79.05.28,0,.54.03.79.05.28.01.55.03.8.05.24.01.46.02.66.04.32.02.6.04.85.05.21,0,.4.02.56.03.06,0,.12,0,.17.01.27.01.46.11.64.33.96,1.18.81,4.68.49,6.61l-.22,1.35h.08s0,0,0,0l1.35-.19s.1-.01.23-.04c.02,0,.05,0,.08-.01.06-.01.12-.01.18-.02.16-.02.36-.05.6-.09.11-.01.22-.03.35-.05.29-.04.63-.09,1-.14.14-.02.28-.04.42-.06.44-.06.93-.13,1.47-.22.16-.02.33-.04.51-.07.18-.02.37-.05.56-.08,1.17-.16,2.5-.36,3.99-.57.08,0,.16-.01.24-.03.22-.03.45-.06.69-.1.81-.12,1.66-.24,2.56-.37.59-.08,1.21-.17,1.84-.26.94-.13,1.92-.27,2.94-.42.38-.06.77-.11,1.17-.17.13-.01.25-.03.38-.05,2.72-.39,5.67-.81,8.8-1.26,1.56-.22,3.18-.45,4.83-.69,1.65-.23,3.34-.47,5.07-.72,1.72-.24,3.49-.49,5.28-.75,3.71-.53,7.55-1.07,11.47-1.64,3.65-.52,7.37-1.05,11.12-1.58,1.94-.28,3.89-.55,5.85-.83,1.3-.19,2.6-.37,3.91-.56.51-.07,1.02-.14,1.52-.22,2.58-.37,5.17-.74,7.74-1.1,3.42-.48,6.81-.96,10.15-1.44.41-.05.82-.11,1.22-.17,3.36-.47,6.65-.94,9.86-1.4.38-.05.76-.1,1.13-.16,1.21-.18,2.41-.35,3.6-.51.35-.05.7-.1,1.05-.15.54-.08,1.07-.15,1.59-.22,1.59-.22,3.13-.44,4.65-.66,1.01-.15,2.01-.29,2.99-.42.98-.14,1.94-.28,2.88-.41.27-.03.53-.07.8-.11v.46s-4.71,59.36-4.71,59.36l-.04.54.42.33c.16.12,15.41,12.03,18.27,14.38Z"/><path class="cls-1" d="m917.94,86.06l-22.41,10.9.77,158.16c-2.47.35-5.08.72-7.8,1.11-.41.06-.82.12-1.24.17-.93.13-1.87.27-2.82.4-2.85.4-5.8.82-8.82,1.25-.93.13-1.87.27-2.82.4-2.84.4-5.74.81-8.68,1.23-.99.14-1.97.28-2.96.42-7.9,1.12-16.03,2.28-24.02,3.42h-.01c-1.99.28-3.98.57-5.96.85-.99.14-1.97.28-2.95.42-.95.14-1.9.27-2.84.4-2.34.34-4.66.67-6.93.99-.81.12-1.62.24-2.42.35-18.09,2.57-33.38,4.75-40.54,5.78-.01.01-.03.01-.04.01-1.23.17-2.21.31-2.93.41.18-1.88.27-5.19-1.07-6.85-.54-.66-1.27-1.03-2.11-1.07h-.08c-.97-.05-3.23-.19-6.02-.36-.61-.05-1.26-.09-1.92-.13h-.04c-1.27-.08-2.6-.17-3.93-.26-.45-.03-.89-.06-1.34-.09-1.9-.12-3.61-.24-5.12-.33-.21-.01-.42-.03-.63-.04-2.02-.13-3.64-.24-4.81-.3-.2-.01-.38-.02-.55-.04-.35-.02-.65-.04-.88-.04-.12,0-.22-.02-.32-.02-.06-.01-.11-.01-.16-.01-.59-.38-2.41-2.21-4.02-3.83-5.52-5.57-9.98-9.85-12.66-10.03-.06-.01-.11-.01-.17-.01-.13,0-.26.01-.38.02-.91.06-1.7.45-2.3,1.13-1.33,1.51-1.48,4.13-1.43,5.73-.27-.05-.54-.09-.82-.13-11.85-1.98-28.87-4.73-34.73-5.19-.1-.01-.2-.01-.3-.02-.06-.01-.11-.02-.17-.01-.11-.01-.21-.01-.3-.02-.16-.01-.31-.02-.45-.01-.39-.02-.65.01-.77.05-.36.14-1.28.63-3.16,1.63-4.86,2.58-16.23,8.62-19.16,8.62-2.29,0-12.8-11.35-21.63-22.33l-.57-.71-4.34,2.88c-1.55-2.43-4.4-6.38-6.48-6.38-.59-.03-3.61-1.11-6.53-2.15-9.78-3.5-18.87-6.58-22.71-5.79-.76.15-1.49.31-2.2.47-4.65,1.02-8.01,1.77-12.04-.38-4.59-2.42-16.95-34.45-16.95-37.44,0-.18.03-.52.1-1.1,0-.07.02-.14.03-.22.04-.23.08-.5.12-.8.03-.16.06-.33.08-.51.08-.47.18-1.03.29-1.67.05-.26.09-.52.14-.8.18-.99.4-2.15.66-3.53.05-.23.09-.47.14-.72.07-.35.14-.71.21-1.09.08-.37.15-.76.23-1.16.07-.35.14-.71.21-1.08.05-.27.11-.54.17-.83.18-.89.37-1.84.57-2.84.13-.66.28-1.35.42-2.07.13-.64.27-1.31.41-1.99.11-.52.22-1.06.33-1.62.33-1.58.68-3.28,1.06-5.09.13-.62.27-1.26.4-1.91.1-.45.19-.9.29-1.36l.5,1.3h.68c.57.02,56.74.61,67.82.61,10.5,0,27.6-8.37,30.67-9.91l18.52,9.27,6.79-7.73,24.08-6.01,7.88,4.6,2.27-9.71,148.92-76.07,1.48,18.6,33.2-17.33v19.54Z"/><path class="cls-1" d="m925.65,433.9c.07.32,0,.62-.22.92-.45.63-1.43,1.12-2.44,1.22-2.12.22-5.14,6.11-7.33,11.06-2.23,5.91-5.14,11.3-6.22,11.53-.31.03-.71.04-1.18.06-3.34.13-10.29.4-11.88,5.35-1.09,3.41.24,6.78,1.2,9.24.37.93.87,2.21.77,2.55-.34,1.03-.95,1.09-1.99,1.09s-1.62,1.17-3.28,5.22c-.46,1.14-1.11,2.71-1.57,3.61-1.9-1.91-6.53-5.69-8.33-5.69-1.31,0-2.02,1.6-4.75,9.06-1.5,4.09-3.76,10.26-4.9,11.02-2.34,1.55-1.83,6.05-1.29,10.81.21,1.91.41,3.71.41,5.2,0,3.17-8.06,9.89-13.43,13.61l-21.47-8.54c-1.85-.75-5.69-.95-10.21-.95-2.71,0-5.65.07-8.56.14-4.82.12-10.28.26-11.27-.17-1.95-.83-14.54-3.55-29.56-6.75-4.21-.9-7.83-1.67-9.94-2.14-3.03-.69-6.62-.86-10.1-1.02-5.56-.27-11.31-.54-14.25-2.92-3-2.42-7.11-5.25-10.74-7.75-2.56-1.76-4.77-3.28-5.98-4.24-.61-.49-1.23-1.04-1.86-1.61-2.49-2.2-5.31-4.71-8.78-4.71-1.56,0-2.74-3.48-3.6-6.02-.95-2.81-1.64-4.84-3.2-4.99-1.45-.14-3.24,1.03-4.34,2.81-.78,1.26-2.29,4.66.45,9.13,1.66,2.7,4.47,5.11,6.95,7.23,1.58,1.36,3.98,3.41,3.96,4.05-.02.03-.13.13-.41.25-1.33.54-3.1,1.46-4.97,2.43-3.97,2.06-9.4,4.88-11.53,4.39l-.68-.15c-4.12-.94-15.07-3.43-22.97.44-5.75,2.8-10.39,2.34-14.12,1.97-1.31-.13-2.55-.25-3.67-.21-2.49.09-3.4,1.65-4.12,2.9-.74,1.26-1.28,2.14-3.33,2.11l-5.17-.16c-2.62-.09-5.31-.17-7.32-.23-5.32-22.58-6.43-32.1-5.75-33.36.85-1.44,1.58-5.6,2.69-12.29.85-5.19,2.13-12.93,3.15-14.3.12.05.26.17.41.32.33.37.7.9,1.05,1.46.33.53.64,1.07.88,1.48.56.95,1.12,1.92,1.73,2.76.1.14.2.27.31.41.1.13.2.26.31.38s.21.24.32.36c.78.86,1.67,1.44,2.69,1.48,2.46.12,3.52-2.21,4.37-4.08.43-.94,1.02-2.23,1.49-2.26.1.01.24.13.4.31.1.12.2.27.32.44.37.58.79,1.34,1.07,1.85.43.8.89,1.66,1.44,2.46.13.2.27.41.42.6.15.2.3.4.46.58l.36.39c.87.93,1.93,1.59,3.25,1.63,2.86.13,7.29-3.38,11.21-6.45,1.81-1.41,4.07-3.18,4.67-3.29.41-.02.78-.24,1.01-.58.73-1.08.12-3.25-1.82-9.2-1.18-3.62-2.79-8.58-2.43-9.97.33-1.26.38-4.06.44-7.61.07-4.26.22-13.12,1.4-13.92,1.37,0,2.71.23,4.13.47,1.8.31,3.83.66,6.21.57,4.2-.14,7.64-11.36,8.93-16.22l17.72,5.95-3.47,12.12.1.06v.05s.65.4.65.4c.63.38,15.5,9.28,23.77,9.58,3.31.12,5.41.49,7.1.78,2.43.43,4.04.71,6.71-.25,2.74-.98,3.34-4.2,3.82-6.78.27-1.46.61-3.27,1.23-3.33,1.08-.11,5.36,1.98,8.77,3.66,4.87,2.41,9.45,4.68,11.82,4.59,2.88-.1,6.36-8.94,12.61-27.47,1.12-3.32,2.27-6.73,2.78-7.89,1.19.02,4.13.08,7.67.16,11.29.25,30.18.67,33.8.67,1.93,0,14.41,3.13,34.34,8.61l-.11.2,54.99,21.64c.09.8.15,1.94-.03,2.49-.07.16-.42.57-.66.84-.77.89-1.73,2-1.26,3.17.45,1.11,1.9,1.36,2.95,1.45,4.16.36,6.52,2.44,6.8,3.73Z"/></svg>