<svg width="1353" height="706" viewBox="0 0 1353 706" fill="none" xmlns="http://www.w3.org/2000/svg">
<path d="M693.365 551.784C692.125 554.722 689.613 557.098 688.847 557.357C688.802 557.368 688.768 557.38 688.723 557.402C688.689 557.414 688.656 557.425 688.622 557.447C687.597 557.886 686.436 560.093 686.267 586.633C685.084 586.723 683.203 587.354 680.026 588.468C677.086 589.504 673.74 590.675 671.926 590.811C665.741 591.284 637.273 592.117 634.829 590.732C633.905 589.989 632.339 589.268 630.536 588.412C627.664 587.072 624.081 585.395 622.988 583.559C621.254 580.665 618.437 579.179 615.959 577.862C615.328 577.524 614.708 577.197 614.122 576.848L613.379 576.42C611.205 575.148 604.592 571.297 603.983 570.171C603.938 570.036 598.362 556.13 595.298 555.646C590.611 554.846 589.699 556.04 589.394 556.434C589.124 556.783 588.741 557.56 589.27 558.72C589.462 559.125 589.856 559.913 590.397 560.983C592.56 565.25 597.63 575.238 598.136 578.988C598.812 583.829 594.081 596.486 592.414 597.139C591.557 597.296 504.26 616.686 479.476 632.54C478.856 626.572 476.434 608.432 469.213 599.312C465.856 595.067 461.946 591.182 458.161 587.421C452.754 582.05 447.639 576.972 446.389 572.693C445.037 568.099 443.91 563.832 445.093 562.154C445.487 561.58 446.242 561.264 447.38 561.197C450.399 561.005 452.957 558.449 454.579 556.333C456.764 553.484 458.781 549.295 458.364 547.234C458.206 546.435 457.643 544.96 456.866 542.922C455.311 538.868 452.427 531.324 453.328 529.117C453.587 528.487 453.892 527.822 454.218 527.135C455.784 523.78 457.733 519.614 454.782 516.315C452.652 513.95 450.208 509.739 449.092 507.723C451.56 506.811 457.147 504.739 460.381 503.321C462.96 502.183 464.064 496.779 465.574 488.007C466.25 484.145 467.151 478.875 467.996 477.997C468.075 477.974 468.165 477.952 468.255 477.918C472.773 480.699 478.991 483.773 484.151 483.661C486.787 483.582 489.423 483.965 491.981 484.325C494.076 484.629 496.126 484.922 498.019 484.922C498.492 484.922 498.954 484.899 499.405 484.832C499.596 484.832 499.788 484.798 499.979 484.775C500.351 484.73 500.723 484.674 501.083 484.584H501.094C502.751 484.19 504.204 483.357 505.33 481.825C507.426 479.01 506.896 475.486 506.378 472.074C505.894 468.809 505.432 465.735 507.426 463.832C508.485 462.83 510.141 461.985 512.045 461.343C512.315 461.242 512.597 461.152 512.878 461.073C513.644 460.837 514.433 460.645 515.233 460.476C515.402 460.443 515.571 460.409 515.74 460.375C516.258 460.274 516.765 460.195 517.283 460.116C517.79 460.037 518.297 459.981 518.793 459.925C520.899 459.722 522.848 459.722 524.257 459.97C525.563 460.195 526.014 460.544 526.059 460.645C527.355 463.438 528.752 465.949 531.726 465.949C532.097 465.949 532.48 465.881 532.875 465.769C532.999 465.735 533.134 465.69 533.269 465.645C534.204 465.352 535.218 464.778 536.322 464.158C537.527 463.483 538.857 462.74 540.085 462.379C540.231 462.323 540.378 462.289 540.524 462.267C540.626 462.244 540.727 462.222 540.817 462.21C540.918 462.199 541.02 462.199 541.11 462.188C542.338 462.053 543.915 464.102 545.199 465.712C546.686 467.581 548.095 469.338 549.807 469.484C550.1 469.507 550.404 469.484 550.731 469.406L550.9 469.372C552.263 469.045 553.987 467.908 556.409 466.242C558.707 464.654 561.489 462.751 563.551 462.267C563.664 462.244 563.765 462.222 563.878 462.21C564.013 462.199 564.148 462.188 564.283 462.188C566.322 462.188 568.001 463.539 569.77 464.98C571.336 466.253 572.969 467.57 574.941 467.919C576.067 468.122 577.734 467.998 579.774 467.638C581.047 467.413 582.455 467.097 583.976 466.726C585.463 466.365 587.062 465.926 588.718 465.453C589.27 465.296 589.834 465.127 590.397 464.969C590.453 464.947 590.51 464.935 590.566 464.924C591.591 464.62 592.628 464.305 593.687 464.001C594.036 463.899 594.385 463.798 594.734 463.686C595.32 463.517 595.861 463.348 596.379 463.19C596.435 463.168 596.492 463.156 596.537 463.145C596.728 463.089 596.909 463.032 597.089 462.987C597.269 462.931 597.472 462.875 597.697 462.796C597.979 462.706 598.294 462.605 598.621 462.503C598.79 462.447 598.959 462.391 599.139 462.334C599.443 462.233 599.747 462.132 600.074 462.019C604.93 460.353 612.478 457.155 612.725 453.36C612.816 452.077 612.511 450.129 612.196 448.068C611.892 446.097 611.34 442.506 611.734 441.582C612.106 441.571 612.489 441.526 612.883 441.447C613.221 441.38 613.559 441.301 613.92 441.211C614.776 440.997 615.677 440.681 616.601 440.366C617.423 440.085 618.246 439.803 619.057 439.578C619.26 439.522 619.462 439.465 619.665 439.42C620.014 439.33 620.352 439.263 620.69 439.218C620.882 439.195 621.073 439.173 621.265 439.161C621.445 439.15 621.614 439.128 621.783 439.094C621.974 439.06 622.155 439.015 622.335 438.97C623.901 438.576 625.253 437.461 626.582 436.38C627.776 435.389 628.914 434.455 630.074 434.139C630.12 434.128 630.153 434.117 630.187 434.117C630.277 434.094 630.367 434.083 630.446 434.072C630.536 434.061 630.626 434.061 630.717 434.061C630.931 434.061 632.249 434.252 638.096 437.821C636.924 442.179 638.084 447.527 639.222 452.707C639.819 455.409 640.371 457.954 640.574 460.251C641.239 467.649 643.526 477.704 644.934 480.756C645.565 482.129 649.113 485.811 655.332 492.207C660.717 497.736 668.862 506.102 669.335 507.813C669.549 508.568 670.034 511.022 670.642 514.13C675.486 539.015 677.841 546.638 680.68 546.773C681.795 546.829 683.237 546.626 684.758 546.424C688.239 545.951 692.565 545.365 693.658 547.617C694.3 548.957 693.849 550.624 693.365 551.784Z" fill="#373234"/>
<path d="M638.895 435.536C633.42 432.225 631.73 431.775 630.874 431.775C630.536 431.775 630.21 431.809 629.894 431.876C629.804 431.887 629.714 431.91 629.624 431.932C627.878 432.293 626.413 433.498 624.994 434.669C623.721 435.704 622.526 436.684 621.355 436.864C621.321 436.876 621.298 436.876 621.265 436.876C620.769 436.909 620.262 436.988 619.766 437.089C619.361 437.168 618.955 437.258 618.55 437.371C617.592 437.619 616.646 437.945 615.711 438.272C614.764 438.598 613.852 438.914 613.03 439.116C612.849 439.15 612.68 439.195 612.523 439.218C612.196 439.274 611.88 439.308 611.599 439.308C611.419 439.308 611.25 439.33 611.081 439.375C610.63 439.454 610.224 439.679 609.92 440.04C608.805 441.346 609.132 444.082 609.808 448.451C610.1 450.297 610.393 452.212 610.315 453.248C610.191 455.229 604.028 458.585 596.3 460.859C595.985 460.949 595.658 461.051 595.32 461.163C594.926 461.276 594.509 461.4 594.081 461.535C594.025 461.546 593.968 461.557 593.912 461.58C593.743 461.625 593.574 461.681 593.405 461.738C592.537 461.997 591.602 462.267 590.622 462.56C590.284 462.661 589.946 462.762 589.597 462.864C588.741 463.111 587.851 463.359 586.961 463.607C586.431 463.753 585.891 463.899 585.35 464.046C585.113 464.113 584.877 464.17 584.64 464.237C584.437 464.282 584.235 464.339 584.032 464.395C583.412 464.541 582.815 464.688 582.229 464.823C582.038 464.868 581.858 464.913 581.666 464.958C580.697 465.172 579.785 465.352 578.962 465.487C577.487 465.724 576.27 465.814 575.493 465.667C574.096 465.42 572.755 464.339 571.347 463.19C569.443 461.647 567.28 459.902 564.441 459.902C564.058 459.902 563.664 459.947 563.247 460.026C563.1 460.06 562.954 460.094 562.807 460.139C560.329 460.735 557.513 462.683 554.967 464.417C553.457 465.453 551.486 466.827 550.438 467.165C550.404 467.176 550.382 467.187 550.348 467.187C550.269 467.21 550.201 467.21 550.145 467.21C549.413 467.142 548.095 465.487 547.126 464.271C545.346 462.042 543.498 459.756 541.121 459.902C540.682 459.936 540.254 460.004 539.814 460.116C539.612 460.161 539.42 460.217 539.217 460.285C537.775 460.713 536.356 461.512 535.06 462.233C534.114 462.762 533.145 463.314 532.413 463.562C532.334 463.584 532.255 463.607 532.188 463.618C532.086 463.64 531.985 463.652 531.895 463.652C530.52 463.652 529.675 462.728 528.267 459.666C527.828 458.709 526.758 458.078 525 457.752C522.432 457.256 518.218 457.481 514.253 458.393C514.174 458.405 514.106 458.427 514.027 458.45C513.858 458.483 513.678 458.528 513.509 458.573C513.194 458.652 512.867 458.731 512.563 458.832C509.792 459.609 507.279 460.747 505.713 462.233C502.863 464.947 503.438 468.752 503.99 472.446C504.452 475.531 504.891 478.459 503.359 480.519C502.604 481.544 501.601 482.129 500.396 482.433C500.216 482.478 500.013 482.512 499.81 482.546C497.805 482.827 495.304 482.467 492.465 482.062C489.818 481.679 487.08 481.296 484.252 481.364C479.521 481.476 473.437 478.312 469.776 476.083C471.612 472.187 472.514 462.706 472.176 457.324C471.962 453.923 471.319 452.966 470.79 452.504C469.449 451.356 466.926 451.874 463.434 452.583C458.882 453.518 453.227 454.678 449.194 452.381C444.214 449.566 444.947 433.362 447.087 420.346C447.312 419.017 446.929 417.846 445.994 416.957C443.73 414.817 438.841 414.964 436.103 415.572C432.825 416.326 425.48 419.299 423.677 423.724C423.148 425.019 423.013 426.404 422.889 427.62C422.821 428.408 422.686 429.737 422.404 429.894C422.393 429.906 422.01 430.108 420.523 429.433C416.366 427.552 408.401 429.917 403.14 431.482C401.45 431.977 399.997 432.417 399.343 432.495C397.98 432.653 396.426 432.833 395.524 432.056C394.758 431.392 394.342 430.007 394.285 427.935C394.184 424.186 392.607 420.571 391.21 417.385C390.162 414.975 389.171 412.7 388.968 410.764C388.54 406.643 394.758 400.472 397.969 400.033C399.051 399.887 399.693 399.11 399.625 398.051C399.389 394.561 389.171 385.676 384.36 385.676C383.707 385.676 383.02 385.676 382.31 385.676C377.871 385.721 371.81 385.789 370.008 383.92L369.287 383.166C366.673 380.452 361.243 374.822 360.105 370.453C359.08 366.568 359.497 366.005 361.525 363.314C361.84 362.886 362.189 362.413 362.573 361.884C364.262 359.553 364.06 356.322 363.891 353.473C363.755 351.3 363.609 349.059 364.521 348.428C365.175 347.978 365.963 347.516 366.797 347.032C369.715 345.321 373.016 343.384 373.624 340.175C373.94 338.486 373.602 336.673 373.219 334.59C372.712 331.82 372.137 328.69 372.745 324.647C373.342 320.673 375.866 318.702 378.097 316.968C379.73 315.685 381.138 314.581 381.375 312.903C381.656 310.933 381.465 297.241 380.293 295.878L379.899 295.462H379.381C377.071 295.462 366.448 294.809 364.803 293.502C363.857 292.748 360.691 289.032 357.886 285.756C351.341 278.099 350.496 277.277 349.696 277.119C349.279 277.04 348.738 277.108 347.06 277.356C343.725 277.84 334.87 279.135 333.181 276.32C330.274 271.489 328.291 264.97 327.762 263.089C327.311 261.502 326.173 260.263 324.855 258.833C323.233 257.054 321.385 255.05 320.203 251.728C318.93 248.147 322.647 242.168 325.373 237.799C327.018 235.164 328.314 233.081 328.663 231.55C329.553 227.496 329.564 221.168 329.564 220.898V220.009L328.697 219.806C324.427 218.792 312.846 215.336 310.525 211.552C310.21 211.034 310.109 210.561 310.221 210.1C311.348 205.427 325.813 202.725 332.629 202.15C334.161 202.026 335.862 202.972 337.495 203.884C339.624 205.067 341.833 206.305 344.086 205.404C345.742 204.74 349.212 201.092 355.216 194.696C361.097 188.447 368.397 180.666 373.162 177.333C380.834 171.962 383.943 171.748 388.247 171.456C388.776 171.422 389.306 171.388 389.869 171.332C393.519 171.028 395.468 167.762 396.899 165.364C397.406 164.497 398.273 163.056 398.656 162.977C399.794 163.123 401.608 164.227 403.061 165.105C404.852 166.197 405.911 166.805 406.79 166.805C407.826 166.805 408.401 165.871 409.122 164.688C410.384 162.639 412.119 159.835 416.084 159.835C423.193 159.835 434.853 159.07 438.255 158.833C441.128 158.63 444.564 156.66 447.605 154.915C449.791 153.665 452.055 152.37 453.114 152.37C454.173 152.37 457.339 153.293 460.651 154.284C465.687 155.782 471.95 157.64 476.152 157.842C478.507 157.955 482.675 157.459 487.508 156.874C496.171 155.838 509.251 154.262 511.56 156.953C515.785 161.862 517.79 162.65 522.049 162.65C526.307 162.65 562.988 138.745 565.849 136.246C568.44 135.39 590.487 138.993 610.472 142.9L608.636 165.544C606.631 169.598 605.527 172.266 605.346 173.482C605.166 174.743 605.673 175.701 606.203 176.703C606.946 178.11 607.949 180.024 607.881 184.134C607.791 190.485 606.034 192.05 605.38 192.118C603.634 192.264 603.612 194.73 603.589 198.795C603.589 199.763 603.578 201.047 603.51 201.508C602.834 202.342 600.987 205.168 594.869 215.561L594.577 216.068L594.813 216.597C597.235 222.047 600.919 230.886 601.144 232.867C601.223 233.554 601.347 234.275 601.471 234.996C601.753 236.707 602.147 239.049 601.505 239.657C599.781 241.222 595.895 253.62 596.785 255.838C597.066 256.558 598.249 257.718 602.755 261.974C607.295 266.253 616.747 275.16 616.747 277.232C616.68 279 609.188 287.816 604.704 293.086C596.075 303.254 595.083 304.695 595.883 305.945C597.494 308.444 631.64 368.82 634.389 380.092C637.408 392.523 641.532 429.095 638.895 435.524V435.536Z" fill="#373234"/>
<path d="M773.565 299.853C774.41 301.441 776.359 316.067 776.201 317.925C775.998 318.207 775.198 318.803 774.612 319.254C772.393 320.943 769.058 323.488 769.374 327.17C769.655 330.345 771.661 333.284 773.418 335.885C774.365 337.27 775.243 338.576 775.638 339.612C775.919 340.366 775.795 341.166 775.266 341.965C774.421 343.271 772.618 344.364 771.176 344.442C770.41 344.487 769.306 344.859 768.36 346.334C766.918 348.575 766.377 352.82 767.245 355.061C767.977 356.941 764.338 369.89 760.44 374.259C757.838 377.186 738.1 378.785 726.272 379.101L724.931 379.146L725.201 380.463C725.224 380.564 727.432 391.757 722.734 398.76C720.853 401.587 718.059 403.377 714.431 404.075C701.622 406.541 656.166 406.507 640.777 406.417C640.63 404.852 640.45 403.276 640.259 401.722C639.177 392.612 637.814 384.134 636.721 379.607C633.894 368.021 601.133 310.37 598.137 305.156C598.846 303.693 603.105 298.671 606.574 294.583C614.393 285.384 619.136 279.63 619.136 277.288C619.136 274.698 614.404 269.778 604.468 260.409C602.057 258.135 599.331 255.567 599.038 255.106C598.677 253.496 601.967 242.573 603.184 241.357C604.716 239.927 604.276 237.27 603.837 234.703C603.724 234.016 603.6 233.318 603.533 232.665C603.206 229.94 598.475 219.063 597.247 216.259C600.75 210.314 604.659 203.862 605.347 203.006C605.966 202.522 605.977 201.576 605.989 198.862C606 197.534 606.011 195.169 606.225 194.302C607.577 193.908 610.168 192.106 610.27 184.224C610.36 179.529 609.143 177.232 608.343 175.712C607.87 174.822 607.656 174.361 607.724 173.843C607.859 172.953 608.974 170.307 610.72 166.738C613.041 165.544 620.645 161.885 623.157 161.885C625.219 161.885 637.622 168.877 645.993 173.966L646.421 175.092C644.573 183.841 643.064 191.115 641.903 196.892C641.644 198.209 641.397 199.448 641.171 200.596C640.901 201.97 640.653 203.231 640.439 204.38C640.315 205.089 640.191 205.753 640.067 206.373C639.909 207.24 639.763 208.028 639.65 208.737C639.65 208.794 639.639 208.85 639.617 208.906C639.493 209.616 639.391 210.235 639.324 210.775C639.132 211.98 639.042 212.78 639.042 213.207C639.042 217.779 653.293 254.171 659.343 257.358C664.604 260.15 669.144 259.148 674.405 258C675.205 257.819 676.027 257.639 676.883 257.47C680.95 256.637 693.669 261.186 701.262 263.9C706.219 265.668 708.449 266.456 709.362 266.456C710.274 266.49 713.136 269.868 715.366 273.55L715.975 274.552L721.089 271.151C726.655 278.02 741.931 296.329 746.561 296.329C750.121 296.329 760.068 291.216 769.126 286.42C770.681 285.587 772.033 284.866 772.472 284.674C772.877 284.652 774.736 284.719 783.073 285.924C772.449 298.063 772.866 299.02 773.531 299.808C773.542 299.819 773.553 299.842 773.565 299.853Z" fill="#373234"/>
<path d="M1025.36 374.09C1024.87 376.409 1015.34 385.643 1006.51 393.108L1006.37 393.232L973.597 448.789C956.811 444.161 936.488 438.745 933.39 438.745C929.345 438.745 908.076 438.283 895.379 438.001C889.454 437.878 886.356 437.799 886.063 437.799C884.959 437.799 884.936 437.799 881.41 448.226C878.537 456.761 871.801 476.725 869.255 477.637C867.148 477.715 861.549 474.934 857.009 472.705C851.32 469.89 847.76 468.178 845.923 468.347C843.535 468.584 843.028 471.308 842.544 473.943C842.059 476.522 841.564 479.202 839.682 479.866C837.249 480.733 835.931 480.508 833.295 480.046C831.425 479.72 828.867 479.269 824.992 479.134C817.388 478.864 803.689 471.23 800.14 469.18L804.173 455.105L804.049 455.06L804.072 454.97L779.637 446.773L779.344 447.955C777.203 456.423 773.441 465.611 771.086 465.701C768.63 465.78 766.557 465.431 764.541 465.093C762.851 464.8 761.24 464.53 759.516 464.53C756.215 464.53 755.866 471.275 755.675 482.4C755.618 485.946 755.562 489.291 755.258 490.439C754.728 492.488 756.013 496.711 758.029 502.915C758.987 505.854 760.271 509.784 760.316 511.146C759.122 511.552 757.421 512.858 754.435 515.189C750.74 518.082 745.682 522.102 743.283 521.967C742.415 521.933 741.649 521.415 740.962 520.638C740.804 520.458 740.635 520.256 740.489 520.042C739.846 519.152 739.261 518.071 738.709 517.046C738.292 516.281 737.886 515.549 737.469 514.918C737.424 514.851 737.379 514.783 737.334 514.716C737.267 514.603 737.188 514.49 737.109 514.389C736.343 513.297 735.498 512.587 734.349 512.666C732.479 512.79 731.611 514.693 730.766 516.528C729.843 518.544 729.133 519.85 728.006 519.805C727.511 519.783 726.992 519.4 726.463 518.814C726.328 518.657 726.181 518.488 726.046 518.308C725.956 518.195 725.866 518.071 725.776 517.947C725.167 517.08 724.559 516.044 724.018 515.121C723.793 514.738 723.579 514.367 723.342 514.006C723.162 513.691 722.971 513.376 722.768 513.083C722.441 512.542 722.103 512.058 721.743 511.642C720.909 510.617 720.019 509.975 718.926 510.02C716.729 510.144 715.738 514.186 713.451 528.059C712.55 533.531 711.525 539.735 710.714 541.109C708.922 544.149 712.989 563.663 716.853 580.046C716.538 580.046 716.29 580.046 716.099 580.046C714.814 580.046 713.451 581.24 711.164 583.356C709.035 585.327 706.117 588.007 704.146 588.007C703.301 588.007 702.073 588.041 700.665 588.086C697.375 588.176 690.909 588.367 688.588 587.86C688.701 569.113 689.354 560.904 689.962 559.35C691.641 558.551 694.232 555.691 695.516 552.673C696.485 550.387 696.575 548.304 695.775 546.638C694.322 543.597 690.559 543.496 686.954 543.89C686.526 543.924 686.109 543.98 685.693 544.037C685.265 544.082 684.859 544.138 684.453 544.194C684.284 544.217 684.115 544.239 683.946 544.262C683.518 544.318 683.102 544.374 682.707 544.419C682.674 544.431 682.64 544.431 682.606 544.431C681.998 544.487 681.446 544.532 680.984 544.521C678.595 542.742 674.495 521.686 672.94 513.725C672.298 510.426 671.836 508.05 671.588 507.205C671.002 505.1 665.437 499.267 657.01 490.608C652.583 486.059 647.559 480.891 647.063 479.81C645.891 477.276 643.582 467.649 642.895 460.048C642.681 457.605 642.106 454.982 641.509 452.2C640.36 446.964 639.177 441.537 640.585 437.63L640.889 436.774H640.867C642.917 432.687 641.869 418.004 640.968 408.748C643.503 408.771 646.815 408.782 650.668 408.782C670.45 408.782 704.067 408.455 714.927 406.361C719.163 405.539 722.452 403.422 724.683 400.078C728.941 393.716 728.175 384.742 727.691 381.386C734.18 381.172 758.435 380.058 762.197 375.835C766.05 371.5 770.703 357.639 769.407 354.317C768.855 352.865 769.171 349.431 770.32 347.629C770.568 347.246 770.951 346.796 771.379 346.762C773.531 346.649 775.987 345.174 777.226 343.271C778.138 341.875 778.352 340.321 777.812 338.891C777.327 337.608 776.37 336.189 775.356 334.691C773.745 332.327 771.92 329.636 771.694 327.046C771.48 324.602 774.116 322.587 776.043 321.123C777.383 320.11 778.262 319.434 778.454 318.544C778.747 317.283 776.989 302.274 775.682 299.065C776.144 297.961 779.028 294.065 785.867 286.307C787.309 286.51 788.807 286.746 790.328 286.972C791.409 287.14 792.502 287.309 793.617 287.478C794.35 287.591 795.082 287.703 795.825 287.827C796.197 287.884 796.558 287.94 796.918 287.996C797.718 288.12 798.518 288.255 799.295 288.368C799.385 288.379 799.464 288.402 799.543 288.413C802.134 288.829 804.601 289.235 806.775 289.584C811.608 290.383 814.988 290.946 815.067 290.958L816.554 291.217V291.194H816.644L816.464 289.708C816.317 288.548 816.194 284.922 817.421 283.537C817.658 283.267 817.928 283.109 818.266 283.031C818.379 283.008 818.492 282.997 818.616 282.997H818.661C818.661 282.997 818.773 282.997 818.841 283.019C821.364 283.515 827.865 290.045 831.413 293.626C835.559 297.792 836.449 298.614 837.339 298.614H837.429C838.105 298.614 845.248 299.076 851.545 299.493C853.167 299.594 854.801 299.707 856.378 299.808C857.144 299.853 857.899 299.898 858.62 299.954C859.566 300.011 860.467 300.067 861.312 300.123C861.616 300.134 861.921 300.157 862.202 300.179C862.518 300.179 862.811 300.213 863.092 300.236C863.408 300.247 863.712 300.27 863.993 300.292C864.264 300.303 864.512 300.315 864.737 300.337C865.098 300.36 865.413 300.382 865.695 300.393C865.931 300.393 866.145 300.416 866.325 300.427C866.393 300.427 866.461 300.427 866.517 300.438C866.821 300.45 867.035 300.562 867.238 300.81C868.319 302.139 868.15 306.08 867.79 308.253L867.542 309.773H867.632L869.153 309.559C869.153 309.559 869.266 309.548 869.412 309.514C869.435 309.514 869.469 309.514 869.502 309.503C869.57 309.491 869.638 309.491 869.705 309.48C869.885 309.458 870.111 309.424 870.381 309.379C870.505 309.368 870.629 309.345 870.775 309.323C871.102 309.278 871.485 309.221 871.902 309.165C872.06 309.142 872.217 309.12 872.375 309.097C872.871 309.03 873.423 308.951 874.031 308.85C874.211 308.827 874.403 308.805 874.606 308.771C874.808 308.748 875.022 308.715 875.237 308.681C876.555 308.501 878.053 308.275 879.732 308.039C879.822 308.039 879.912 308.028 880.002 308.005C880.25 307.971 880.509 307.938 880.779 307.893C881.692 307.757 882.649 307.622 883.663 307.476C884.328 307.386 885.026 307.285 885.736 307.183C886.795 307.037 887.899 306.879 889.048 306.71C889.476 306.643 889.916 306.586 890.366 306.519C890.513 306.508 890.648 306.485 890.794 306.463C893.859 306.023 897.182 305.55 900.708 305.044C902.466 304.796 904.291 304.537 906.149 304.267C908.008 304.008 909.912 303.738 911.861 303.456C913.799 303.186 915.793 302.904 917.809 302.612C921.989 302.015 926.315 301.407 930.731 300.765C934.843 300.179 939.034 299.583 943.258 298.986C945.444 298.671 947.641 298.367 949.849 298.051C951.313 297.837 952.778 297.635 954.254 297.421C954.828 297.342 955.403 297.263 955.966 297.173C958.872 296.756 961.79 296.34 964.686 295.934C968.538 295.394 972.357 294.854 976.12 294.313C976.582 294.257 977.044 294.189 977.495 294.122C981.28 293.592 984.986 293.063 988.602 292.545C989.03 292.489 989.459 292.433 989.875 292.365C991.239 292.162 992.59 291.971 993.931 291.791C994.325 291.735 994.72 291.678 995.114 291.622C995.722 291.532 996.319 291.453 996.905 291.374C998.696 291.126 1000.43 290.879 1002.14 290.631C1003.28 290.462 1004.41 290.304 1005.51 290.158C1006.62 290 1007.7 289.843 1008.76 289.696C1009.06 289.663 1009.35 289.618 1009.66 289.573V290.091L1004.35 356.93L1004.31 357.538L1004.78 357.909C1004.96 358.044 1022.14 371.455 1025.36 374.101V374.09Z" fill="#D83433"/>
<path d="M1034.12 96.9033L1008.87 109.177L1009.74 287.264C1006.95 287.658 1004.01 288.075 1000.95 288.514C1000.49 288.582 1000.03 288.649 999.553 288.706C998.505 288.852 997.446 289.01 996.376 289.156C993.165 289.606 989.842 290.079 986.439 290.563C985.392 290.71 984.333 290.868 983.262 291.014C980.063 291.464 976.796 291.926 973.484 292.399C972.369 292.557 971.265 292.714 970.149 292.872C961.249 294.133 952.091 295.439 943.089 296.723H943.078C940.836 297.038 938.594 297.365 936.364 297.68C935.248 297.837 934.144 297.995 933.04 298.153C931.97 298.31 930.9 298.457 929.841 298.603C927.205 298.986 924.591 299.358 922.034 299.718C921.121 299.853 920.209 299.988 919.308 300.112C898.928 303.006 881.703 305.46 873.637 306.62C873.626 306.631 873.603 306.631 873.592 306.631C872.206 306.823 871.102 306.981 870.291 307.093C870.494 304.976 870.595 301.249 869.086 299.38C868.477 298.637 867.655 298.22 866.708 298.175H866.618C865.526 298.119 862.98 297.961 859.836 297.77C859.149 297.714 858.417 297.669 857.673 297.624H857.628C856.198 297.533 854.699 297.432 853.201 297.331C852.694 297.297 852.198 297.263 851.691 297.229C849.551 297.094 847.625 296.959 845.923 296.858C845.687 296.847 845.45 296.824 845.214 296.813C842.938 296.666 841.113 296.543 839.795 296.475C839.57 296.464 839.367 296.452 839.175 296.43C838.781 296.407 838.443 296.385 838.184 296.385C838.049 296.385 837.936 296.362 837.823 296.362C837.756 296.351 837.699 296.351 837.643 296.351C836.978 295.923 834.928 293.863 833.114 292.039C826.896 285.767 821.871 280.947 818.852 280.745C818.785 280.734 818.728 280.734 818.661 280.734C818.514 280.734 818.368 280.745 818.233 280.756C817.207 280.824 816.317 281.263 815.641 282.028C814.143 283.729 813.974 286.679 814.03 288.48C813.726 288.424 813.422 288.379 813.107 288.334C799.757 286.105 780.583 283.008 773.981 282.49C773.869 282.479 773.756 282.479 773.643 282.468C773.576 282.456 773.519 282.445 773.452 282.456C773.328 282.445 773.215 282.445 773.114 282.434C772.934 282.423 772.765 282.411 772.607 282.423C772.167 282.4 771.875 282.434 771.739 282.479C771.334 282.636 770.297 283.188 768.179 284.314C762.704 287.219 749.895 294.02 746.594 294.02C744.015 294.02 732.175 281.24 722.227 268.877L721.585 268.077L716.696 271.32C714.949 268.584 711.739 264.136 709.395 264.136C708.731 264.103 705.329 262.886 702.039 261.715C691.021 257.774 680.781 254.306 676.455 255.196C675.599 255.365 674.776 255.545 673.976 255.725C668.738 256.874 664.953 257.718 660.413 255.297C655.242 252.572 641.317 216.507 641.317 213.14C641.317 212.937 641.351 212.554 641.43 211.901C641.43 211.823 641.453 211.744 641.464 211.654C641.509 211.395 641.554 211.091 641.599 210.753C641.633 210.573 641.667 210.381 641.689 210.179C641.779 209.649 641.892 209.019 642.016 208.298C642.072 208.005 642.117 207.713 642.174 207.397C642.376 206.283 642.624 204.976 642.917 203.423C642.973 203.164 643.018 202.893 643.075 202.612C643.154 202.218 643.232 201.812 643.311 201.385C643.401 200.968 643.48 200.529 643.571 200.078C643.649 199.684 643.728 199.279 643.807 198.862C643.863 198.558 643.931 198.254 643.999 197.928C644.201 196.926 644.415 195.856 644.641 194.73C644.787 193.987 644.956 193.21 645.114 192.399C645.26 191.678 645.418 190.924 645.576 190.158C645.7 189.573 645.824 188.965 645.948 188.334C646.319 186.555 646.714 184.641 647.142 182.603C647.288 181.905 647.446 181.184 647.592 180.452C647.705 179.946 647.806 179.439 647.919 178.921L648.482 180.385H649.248C649.89 180.407 713.169 181.072 725.652 181.072C737.481 181.072 756.745 171.647 760.203 169.913L781.067 180.351L788.717 171.647L815.844 164.88L824.722 170.059L827.279 159.126L995.046 73.4713L996.714 94.4149L1034.12 74.9013V96.9033Z" fill="#373234"/>
<path d="M1042.8 488.57C1042.88 488.93 1042.8 489.268 1042.55 489.606C1042.05 490.315 1040.94 490.867 1039.8 490.98C1037.42 491.227 1034.01 497.859 1031.55 503.433C1029.03 510.088 1025.76 516.157 1024.54 516.416C1024.19 516.45 1023.74 516.461 1023.21 516.483C1019.45 516.63 1011.62 516.934 1009.83 522.508C1008.6 526.347 1010.1 530.142 1011.18 532.912C1011.6 533.959 1012.16 535.4 1012.05 535.783C1011.66 536.943 1010.98 537.01 1009.8 537.01C1008.63 537.01 1007.98 538.328 1006.11 542.888C1005.59 544.172 1004.86 545.939 1004.34 546.953C1002.2 544.802 996.984 540.546 994.956 540.546C993.481 540.546 992.681 542.348 989.605 550.747C987.915 555.353 985.369 562.3 984.085 563.156C981.449 564.901 982.023 569.968 982.632 575.328C982.868 577.479 983.094 579.505 983.094 581.183C983.094 584.753 974.014 592.319 967.964 596.508L943.777 586.892C941.693 586.047 937.367 585.822 932.274 585.822C929.221 585.822 925.909 585.901 922.631 585.98C917.201 586.115 911.05 586.273 909.935 585.788C907.738 584.854 893.555 581.791 876.634 578.188C871.891 577.175 867.813 576.308 865.436 575.778C862.022 575.001 857.978 574.81 854.057 574.63C847.794 574.326 841.316 574.022 838.004 571.342C834.624 568.617 829.994 565.43 825.905 562.616C823.021 560.634 820.531 558.922 819.168 557.841C818.481 557.29 817.782 556.67 817.072 556.028C814.267 553.551 811.09 550.725 807.181 550.725C805.424 550.725 804.094 546.806 803.126 543.946C802.055 540.782 801.278 538.497 799.521 538.328C797.887 538.17 795.87 539.488 794.631 541.492C793.752 542.911 792.051 546.739 795.138 551.772C797.008 554.812 800.174 557.526 802.968 559.913C804.748 561.444 807.451 563.753 807.429 564.473C807.406 564.507 807.283 564.62 806.967 564.755C805.469 565.363 803.475 566.399 801.368 567.491C796.896 569.811 790.778 572.986 788.379 572.434L787.613 572.265C782.971 571.207 770.635 568.403 761.736 572.761C755.258 575.914 750.031 575.396 745.829 574.979C744.353 574.833 742.956 574.697 741.694 574.742C738.889 574.844 737.864 576.6 737.053 578.008C736.219 579.427 735.611 580.418 733.301 580.384L727.477 580.204C724.525 580.102 721.495 580.012 719.23 579.945C713.237 554.52 711.987 543.8 712.753 542.381C713.71 540.76 714.533 536.076 715.783 528.543C716.741 522.699 718.183 513.984 719.332 512.441C719.467 512.497 719.625 512.633 719.794 512.801C720.166 513.218 720.582 513.815 720.977 514.445C721.348 515.042 721.698 515.65 721.968 516.112C722.599 517.182 723.23 518.274 723.917 519.22C724.03 519.377 724.142 519.524 724.266 519.681C724.379 519.828 724.492 519.974 724.615 520.109C724.739 520.244 724.852 520.379 724.976 520.514C725.855 521.483 726.857 522.136 728.006 522.181C730.778 522.316 731.972 519.693 732.93 517.587C733.414 516.528 734.079 515.076 734.608 515.042C734.721 515.053 734.878 515.189 735.059 515.391C735.171 515.526 735.284 515.695 735.419 515.887C735.836 516.54 736.309 517.395 736.625 517.97C737.109 518.871 737.627 519.839 738.247 520.74C738.393 520.965 738.551 521.201 738.72 521.415C738.889 521.64 739.058 521.866 739.238 522.068L739.644 522.508C740.624 523.555 741.818 524.298 743.305 524.343C746.527 524.489 751.518 520.537 755.934 517.08C757.973 515.493 760.519 513.5 761.195 513.376C761.657 513.353 762.074 513.105 762.333 512.723C763.155 511.507 762.468 509.063 760.282 502.363C758.953 498.287 757.139 492.702 757.545 491.137C757.917 489.718 757.973 486.566 758.041 482.568C758.119 477.772 758.288 467.795 759.618 466.895C761.161 466.895 762.671 467.153 764.27 467.424C766.298 467.773 768.585 468.167 771.266 468.066C775.998 467.908 779.873 455.274 781.327 449.802L801.289 456.502L797.38 470.149L797.493 470.216V470.273L798.225 470.723C798.935 471.151 815.687 481.172 825.003 481.51C828.732 481.645 831.098 482.062 833.002 482.388C835.739 482.872 837.553 483.188 840.561 482.107C843.648 481.003 844.324 477.378 844.865 474.472C845.169 472.829 845.552 470.79 846.25 470.723C847.467 470.599 852.289 472.952 856.13 474.844C861.617 477.558 866.776 480.114 869.446 480.012C872.691 479.9 876.611 469.946 883.652 449.081C884.914 445.343 886.209 441.503 886.784 440.197C888.125 440.22 891.437 440.287 895.425 440.377C908.144 440.659 929.424 441.132 933.502 441.132C935.677 441.132 949.736 444.656 972.189 450.827L972.065 451.052L1034.01 475.418C1034.12 476.319 1034.18 477.603 1033.98 478.222C1033.9 478.402 1033.51 478.864 1033.24 479.168C1032.37 480.17 1031.29 481.42 1031.82 482.737C1032.32 483.987 1033.96 484.269 1035.14 484.37C1039.83 484.775 1042.49 487.117 1042.8 488.57Z" fill="#373234"/>
</svg>
