<?xml version="1.0" encoding="UTF-8"?><svg id="Layer_2" xmlns="http://www.w3.org/2000/svg" viewBox="0 0 2559.99 578.85"><defs><style>.cls-1{fill:#d83433;}</style></defs><g id="Layer_1-2"><path class="cls-1" d="m2558.11,224.29c-.78,13.44-1.73,26.87-1.74,40.34-.39-9.41-.6-18.82-.96-28.23-.95,16.92-1.14,33.88-1.99,50.8-.16,6.14-2.48,11.89-4.07,17.73-.37-5.68-.71-11.35-1-17.02-.44,4.36-.95,8.71-1.24,13.08-.73-4.98-1.4-9.99-1.92-14.97-1.06,4.95-2.03,9.91-3.06,14.87-.24-7.65-.4-15.29-.52-22.91-1.2,3.95-2.3,7.91-3.55,11.85-.32-4.35-.61-8.7-.86-13.03-.4,4.34-.86,8.69-1.09,13.05-.52-9.01-.84-18.04-1.87-27.02-.37,5.65-.72,11.3-1.02,16.95-.38-4.02-.72-8.03-1.01-12.03-.65,4.43-1.31,8.88-1.75,13.35-1.65-8.42-1.97-17-2.45-25.53-3.18,9.42-4.91,19.26-5.04,29.2-.25-2.74-.77-8.22-1.02-10.97-.4,6.38-.77,12.74-1.09,19.11-.72-19.11.84-38.39-2.01-57.37-.31,14.74-.2,29.49-.77,44.23-.3-8.68-.61-17.36-.73-26.04-.89,2.59-1.63,5.2-2.42,7.8-.37-7.38-.67-14.74-.99-22.1-1.27,12.06-1.63,24.18-2.16,36.29-1.49-11.35-1.41-22.83-1.79-34.25-.31,8.76-.8,17.51-1.15,26.26-2.95-10.5-3.47-21.5-4.08-32.32-.31,7.71-.59,15.41-.87,23.13-.45-12.11-.6-24.22-1.01-36.32-1.05,8.02-1.74,16.08-2.01,24.18-.63-4.78-1.31-9.58-1.78-14.36-.89,8.5-1.01,17.05-1.57,25.58-1.65-14.09-1.17-28.33-1.82-42.47-.96,8.89-.93,18.03-3.63,26.62-.4-3.1-1.22-9.3-1.63-12.41-.17,13.45-.21,26.89-.66,40.33-.59-10.04-.89-20.11-2-30.1-.26,2.97-.8,8.93-1.06,11.9-.21-2.96-1.48-6.04-1.27-8.96-.2,9.05-.37,18.09-.62,27.16-2.01-6.2-3.51-12.56-4.66-18.95-.03,16.42.75,32.96-1.5,49.26-.9-20.17-.88-40.37-2.06-60.53-.59,17.49-.66,35.01-2.1,52.45-1.47-14.09-1.52-28.27-1.98-42.4-.67,14.8-1.31,29.59-2.11,44.39-.45-12.79-.37-25.62-2.01-38.33-.44,10.12-.64,20.25-1.19,30.37-2.02-18.47-.83-37.1-1.76-55.63-.47,10.16-.75,20.34-1.51,30.49-1.34-11.62-1.01-23.36-1.03-35.02l-.92-.05c.01,13.62,0,27.24-.43,40.86-3.99-33.15.13-66.67-2.25-99.93-1.17,37.02.53,74.07-.88,111.09-3.24-47.07-.16-94.3-2.11-141.41-.82,24.4-.29,48.83-.38,73.24-.08,17.68.87,35.46-1.42,53.05-1.8-53.51.53-107.1-1.17-160.63-1.77,52.83,1.5,105.77-2.08,158.54-1.15-28.93.52-57.89-1.04-86.8-1.03,27.25.73,54.59-2.09,81.76-1.01-33.64.59-67.32-.85-100.96-1.49,31.02.9,62.11-1.43,93.1-2.88-28.96.88-58.15-2.3-87.1-2.02,27.53.9,55.25-2.45,82.7-1.11-34.28.64-68.59-.99-102.85-.17,38.54-1.49,77.08-1.34,115.64h-1.06c-.34-35.5.83-71.04-.63-106.55-1.11,28.61.49,57.26-.92,85.88-2.03-21.33-1.44-42.77-1.41-64.15h-1.08c-.32,32.15.78,64.32-.61,96.47-2.95-24.81-.39-49.86-1.89-74.75-.69,19.35-1.59,38.7-1.53,58.07-.05,18.63.73,37.35-1.67,55.89-1.15-37.99.62-76-.96-113.97-.81,34.65.18,69.41-3.03,103.97-.49-17.14-.25-34.29-.95-51.42-.54,15.81-.44,31.63-.97,47.44-.45-7.73-.78-15.46-1.14-23.19-.33,11.09-.53,22.2-1.05,33.28-.44-15.13-.26-30.29-.88-45.41-.5,14.13-.51,28.27-.77,42.41-.51-2.67-.97-5.33-1.37-7.99-.4,3.98-.75,7.96-1.05,11.94-.33-8.04-.54-16.08-.82-24.12-.44,4.68-.9,9.35-1.17,14.03-.26-7.35-.45-14.69-.59-22.02-.75,6.01-1.33,12.04-2.13,18.05-2.26-10.95-3.04-22.12-3.32-33.28-.27,9.06-.46,18.14-.71,27.21-.53-2.66-1.01-5.31-1.44-7.97-.27,7.71-.5,15.41-.75,23.11-1.14-9.35-2.22-18.7-2.94-28.09-.7,5.66-1.27,11.33-2.04,16.97-1.67-9.99-1.74-20.14-2.18-30.23-.5,12.12-.9,24.31-3.2,36.26-.22-14.46-.19-28.92-.83-43.37-.47,10.08-.61,20.17-.97,30.25-.42-6.36-.8-12.74-1.13-19.09-.36,8.38-.61,16.76-.93,25.16-1.23-18.08-1.72-36.19-2.61-54.28-.37,1.29-.73,2.6-1.03,3.9-.65-.43-1.27-.86-1.87-1.28-.2,10.46-.04,20.97-1.64,31.34-.51-23.19-1.58-46.36-3.03-69.51-.32,9.75-.53,19.5-.9,29.26-1.79-13.36-1.71-26.85-3.19-40.23-.5,19.18.18,38.37-1.11,57.52-1.1-9.75-1.4-19.58-1.97-29.36-.4,18.5.03,37.01-.79,55.5-1.31-29.28.5-58.6-1.12-87.86-.76,20.18.14,40.39-.98,60.56-2.75-24.14-.51-48.47-1.94-72.68-1.19,25.9.36,51.86-1.1,77.76-.7-19.85-.01-39.73-.89-59.58-.69,23.23-.93,46.46-2.16,69.67-.8-22.88.19-45.79-.9-68.66-.46,8.06-.71,16.13-1.06,24.2-1.74-24.87-.96-49.82-2.08-74.71-.77,19.78.68,39.79-3.05,59.37-.36-7.67-.67-15.33-1.03-22.98-.5,18.18-.09,36.36-.82,54.53-2.73-23.31-1.12-46.82-1.46-70.21l-1.04.03c.04,13.63-.01,27.26-.64,40.87-.56-18.51-.32-37.06-2.11-55.51-.35,14.79-.28,29.59-.85,44.38-.45-6.7-.8-13.41-1.1-20.1-.48,17.15-.23,34.3-.99,51.44-.56-18.52-.42-37.06-1.94-55.53-.41,7.38-.74,14.76-1.07,22.15-1.24-17.47-1.38-34.98-2.02-52.46-1.12,37.68.6,75.42-2,113.06-.96-22.19.17-44.41-1.08-66.59-1.05,25.24.41,50.51-.98,75.74-.52-15.81.22-31.73-1.86-47.45-.64,10.07-.8,20.18-1.25,30.26-.38-15.13-.25-30.29-.96-45.41-.46,13.45-.41,26.9-.9,40.36-.43-6.38-.77-12.75-1.08-19.12-.38,4.67-.8,9.34-1.04,14.02-.77-4.6-1.55-9.23-2.16-13.83-.25,9-.52,18-.92,27.01-.58-16.65-.33-33.31-.26-49.97h-1.11c-.02,28.62.08,57.23.08,85.86h-1.08c-.3-32.16.75-64.32-.58-96.46-1.15,27.93.44,55.91-1.02,83.83-1.23-31.3.58-62.64-1.05-93.93-.84,23.38-.16,46.79-.31,70.18h-1.11c.01-20.36.38-40.73-.47-61.08-.44,12.45-.61,24.89-1.07,37.33-1.23-30.96.46-61.94-1-92.9-.6,17.5-.27,35.01-.99,52.49-1.39-41.06.53-82.16-1.02-123.22-1.05,51-.17,102.02-.4,153.03h-1.09c-.3-55.73.77-111.46-.52-167.17-1.45,47.8.67,95.64-1.08,143.43-1.3-51.85.71-103.73-1.01-155.56-1.26,55.21.62,110.46-.94,165.66-1.47-51.16.7-102.37-1.1-153.52-1.27,53.86.74,107.76-.99,161.62-.52-16.17-.3-32.33-.92-48.48-1.33-37.7.47-75.44-1.03-113.13-1.45,44.42.67,88.91-1.1,133.32-.89-41.91-.1-83.83-.31-125.75h-1.09c-.3,35.52.78,71.06-.58,106.56-1.26-36.35.59-72.75-1.01-109.09-1.33,43.09.69,86.22-1.05,129.29-1.21-40.39.61-80.81-.92-121.19-1.34,32.64.57,65.32-1.1,97.96-.89-40.22-.1-80.46-.31-120.7h-1.09c-.35,42.25.87,84.53-.62,126.76-1.27-43.76.73-87.55-1.01-131.3-1.23,52.17.64,104.38-.92,156.56-1.41-59.58.6-119.2-1.01-178.78-1.46,52.85.68,105.75-1.08,158.58-1.2-35.01.54-70.04-.94-105.04-1.45,44.42.67,88.91-1.1,133.32-1.21-37.03.64-74.08-.97-111.1-1.31,70.02.63,140.09-.96,210.11-1.4-49.47.58-99-1.01-148.47-1.34,52.85.46,105.73-.91,158.58-.43-7.39-.79-14.79-1.15-22.19-.85,5.29-1.6,10.6-2.24,15.91-.2-4.95-.49-9.92-.58-14.85-.76,3.92-1.39,7.86-2.12,11.79-.82-2.17-1.59-4.35-2.33-6.54-.4,4.27-.82,8.55-1.13,12.84-1.2-11.04-1.24-22.18-1.7-33.27-.47,10.1-.77,20.22-1.85,30.28-.73-15.8-.62-31.6-.88-47.4-.87,6.65-1.65,13.31-2.33,19.97-.26-2.74-.8-8.2-1.06-10.93-.31,10.74-.5,21.5-1.03,32.24-2.03-19.78-2.16-39.69-3.02-59.55-.53,18.16-.11,36.35-.86,54.51-.46-12.45-.61-24.89-.97-37.34-.78,13.79-1.53,27.57-2.2,41.36-.74-20.86.26-41.76-1.05-62.6-3.17,23.08-.08,46.51-1.91,69.7-.56-17.68-.33-35.38-1.44-53.03-1.34-20.34-.68-40.76-2.69-61.05-.87,23.87.35,47.78-.97,71.65-1.03-26.57.26-53.15-.78-79.72-.44,7.03-.84,14.06-1.2,21.1-.39-6.03-.75-12.07-1.06-18.09-.5,22.21-1.2,44.41-2.02,66.61-1.15-31.3.56-62.64-1-93.93-1.28,41.74.7,83.52-1.03,125.25-1.21-35.34.63-70.72-.97-106.05-.7,32.65-.04,65.34-2.04,97.96-1.23-39.38.61-78.79-.98-118.16-1.23,31.3.55,62.64-1.04,93.94-1.23-36.69.61-73.42-.98-110.1-1.09,26.25.34,52.54-.98,78.77-2.62-33.61-.55-67.34-2.01-100.99-1.37,36.01.59,72.06-1.08,108.07-.91-41.57-.12-83.17-.33-124.75h-1.09c.06,60.61.01,121.22.08,181.83h-1.09c.07-67.35,0-134.69.08-202.04h-1.08c.35,48-.2,95.98-1.6,143.95-1.31-48.14.66-96.32-1.01-144.45-1.32,48.14.66,96.32-1.01,144.45-.95-37.87-.14-75.75-.35-113.64h-1.09c-.31,40.57.79,81.16-.56,121.71-2.45-48.8-.5-97.65-2.06-146.46-1.26,40.06.67,80.16-1.01,120.2-1.23-41.74.59-83.52-.94-125.25-1.42,66.32.6,132.67-1.01,198.99-1.38-57.9.52-115.83-.95-173.73-1.89,34.32-.98,68.69-2.15,103.02-1.22-35.01.6-70.05-.99-105.05-.94,34.5-.14,69.02-.35,103.54h-1.08c-.27-30.47.69-60.94-.55-91.39-1.67,26.23-1.07,52.51-2.06,78.76-.92-22.88.18-45.8-.95-68.67-1.07,47.62-.17,95.28-.41,142.93h-1.08c-.23-30.47.6-60.95-.45-91.4-2.72,36.99-.6,74.08-2.17,111.1-.69-19.51-.1-39.04-.8-58.55-.52,12.15-.75,24.32-1.54,36.47-3.01-35.64.49-71.52-1.74-107.21-1.56,38.02,1.54,76.18-2.06,114.11-.34-14.47-.32-28.93-.79-43.39-1.1,16.47-1.61,32.97-2.01,49.46-.12-2.94-1.13-5.99-.88-8.89-.38,1.43-1.14,4.3-1.51,5.74-.17-4-.5-12-.68-16-.31,3.34-1.04,6.64-1.15,10-.84-4.6-1.62-9.21-2.24-13.83-.09,12.38-.21,24.76-.79,37.13-.47-13.46-.41-26.92-.89-40.37-.42,7.72-.73,15.45-1.06,23.18-.38-4.69-.79-9.4-1.02-14.07-.09,3-1.1,5.88-.83,8.93-.28-1.51-.56-3.01-.78-4.52-.58,1.07-1.13,2.13-1.65,3.2-.59-4.19-1.11-8.4-1.76-12.57-.39,8.02-.64,16.04-.94,24.08-.36-3.31-1.15-6.69-1.33-9.98-.2,9.72-.39,19.44-.71,29.16-.33-8.72-.7-17.44-.91-26.16-.7,3.95-1.34,7.9-2.02,11.85-.35-1.66-1.06-4.98-1.42-6.64-.22,2.96-.69,8.89-.91,11.85-.45-11.41-.6-22.83-1.86-34.19-.41,10.4-.66,20.79-1.07,31.19-.4-14.12-.44-28.25-1.05-42.36-2.23,13.74-1.14,27.73-2.37,41.56-1.05-7.07-1.26-14.23-1.76-21.34-.25,9.05-.42,18.11-.68,27.18-.61-8.06-1.09-16.12-1.95-24.15-.48,4.67-.97,9.33-1.31,14.02-.48-6.13-.97-12.27-1.45-18.39-1.47,5.32-2.11,10.83-2.87,16.29-.59-14.44-1.14-28.86-1.83-43.29-.28,10.79-.21,21.58-.02,32.37-1.13-.64-2.22-1.25-3.33-1.85-.02-43.34.04-86.68.06-130.04h-1.09c-.3,35.52.78,71.06-.57,106.56-.72-45.8-.1-91.6-2.04-137.38-1.28,41.4.67,82.84-1.02,124.25-.91-36.52-.12-73.06-.33-109.6h-1.09c-.26,37.2.68,74.42-.47,111.61-2.2-39.37-.83-78.79-2.12-118.17-.93,41.74.29,83.52-2.02,125.25-1.34-46.11.69-92.27-1.06-138.37-1.75,39.07,1.72,78.3-1.77,117.26-1.79-37.04.5-74.15-1.17-111.2-1.37,36.01.58,72.05-1.07,108.06-.47-11.77-.51-23.55-.96-35.31-2.1,28.89-.95,57.88-1.91,86.81-2.64-26.18-.85-52.51-2.07-78.74-.88,24.58-2.92,49.1-3.18,73.71-1.16-41.74.59-83.51-.9-125.24-.49,13.93-.43,27.88-.93,41.82-1.5,35.2.51,70.46-1.2,105.65-.86-39.36-1.37-78.72-1.73-118.09-2.73,22.61-1.09,45.41-1.92,68.11-.93,18.33-.49,36.7-1.35,55.04-1.1-26.25.44-52.54-1.05-78.77-.94,23.55.3,47.14-.94,70.69-.38-12.8-.48-25.6-1.19-38.37-1.54,14.1-1.26,28.32-2.02,42.48-1.21-7.35-1.41-14.83-1.91-22.24-.5,8.69-.78,17.42-2,26.05-.39-11.05-.59-22.1-.87-33.14-.47,10.1-.71,20.24-1.93,30.3-.68-10.09-.78-20.22-1.12-30.32-.81,6.33-1.49,12.68-2.05,19.03-.39-4.1-1.19-12.32-1.59-16.43-.93,10.88-1.21,21.8-1.57,32.71-.32-11.44-.5-22.87-.91-34.3-.63,11.42-1.21,22.83-2.03,34.24-.35-12.08-.56-24.17-1.04-36.24-.58,13.09-.96,26.2-2.03,39.27-.27-8.69-.54-17.37-.7-26.05-.74,4.96-1.29,9.94-2.02,14.9l-.66-5.6c-.75,1.13-1.46,2.26-2.14,3.4-.16-6.98-.31-13.96-.47-20.93-.82,3.94-1.6,7.88-2.21,11.85-.26-1.36-.79-4.1-1.05-5.48-.57,8.3-1.04,16.62-2.18,24.86-.68-1.56-1.3-3.12-1.93-4.69-.27,1.38-.82,4.15-1.09,5.53-.13-10.66-.23-21.33-.34-31.99-.89,8.79-1.29,17.77-4.5,26.11-.32-6.36-.58-12.72-.78-19.06-.64,7.36-1.05,14.74-1.94,22.08-.78-7-1.37-14-2.14-20.99-.26,4-.79,12.02-1.05,16.03-.41-4.34-.86-8.71-1.14-13.03-.34,6.36-.65,12.71-.91,19.07-.91-16.48-1.44-32.97-2.12-49.44-.43,16.49-.18,32.99-.94,49.46-.75-22.22-1.01-44.43-2.02-66.64-.99,24.23.31,48.49-1.04,72.71-.8-21.53.08-43.09-.87-64.61-.6,9.39-.83,18.82-1.92,28.18-.65-14.45-.64-28.92-1.26-43.36-.78,19.93.38,39.92-1.38,59.81-2.5-25.39-.26-51-.96-76.48h-1.08c-.12,23.72.49,47.44-.44,71.14-2.32-20.43-1.1-41.04-2.15-61.54-.35,12.13-.38,24.29-1.67,36.36-.88-15.81-.72-31.66-1.4-47.47-1.04,25.23.45,50.5-1.01,75.73-1.24-37.02.7-74.08-1.01-111.09-.55,31.31-.31,62.64-2.02,93.92-1.16-32.99.62-66-1.01-98.97-1.12,33.64.45,67.32-.83,100.96-3.89-33.85.16-68.03-2.18-101.98-1.25,40.06.64,80.15-.99,120.18-2.19-45.76-.69-91.57-1.97-137.35-1.36,39.37.54,78.79-1.01,118.16-.78-49.49-.27-99-2.07-148.48-1.25,38.04.56,76.1-.96,114.13-1.39-37.69.61-75.43-1.08-113.12-.91,44.95-.12,89.92-.34,134.86l-1-.03c-.05-10.09-.05-20.2-.31-30.28-1.95-53.02.38-106.09-1.3-159.1-1.39,62.95.54,125.94-.96,188.88-.79-13.62-1.63-27.24-1.52-40.9-.01-45.45.01-90.92.05-136.38h-1.09c-.36,62.46.89,124.94-.62,187.38-1.27-55.55.74-111.13-.99-166.67-1.28,56.91.69,113.85-.99,170.75-.66-6.21-1.14-12.46-1.28-18.7-.76-54.04.84-108.12-.76-162.15-1.31,56.9.73,113.83-1.02,170.72-.53-14.65-.25-29.31-.52-43.95-2.17-50.31.37-100.7-1.52-151.01-1.27,65.65.75,131.34-.99,196.98-1.28-53.54.68-107.1-.99-160.62-1.34,63.29.7,126.63-1.02,189.91-.49-14.31-.29-28.63-.55-42.94-2.21-55.36.41-110.81-1.48-166.17-1.25,53.53.63,107.09-.94,160.61-1.06-24.04.16-48.1-.89-72.12-1.47-30.15.38-60.35-1.2-90.5-1.3,51.85.71,103.73-1.01,155.56-1.3-56.9.72-113.83-1.01-170.72-1.25,55.21.62,110.46-.94,165.66-1.36-36.24.61-72.53-1.16-108.76-.75-23,.28-46.02-.86-69.01-1.44,56.21.65,112.48-1.06,168.69-1.09-27.74.31-55.51-.83-83.25-1.47-31.5.35-63.04-1.19-94.54-1.33,56.56.68,113.16-1.01,169.71-.94-54.71-.14-109.44-.35-164.15h-1.09c-.35,75.93.87,151.89-.6,227.8-1.01-28.12.1-56.24-.51-84.36-2.23-50.31.37-100.7-1.54-151.01-1.24,69.01.68,138.06-.94,207.06-3.05-61.91-.13-123.92-2.07-185.85-.89,65.15-.14,130.32-.33,195.47h-1.09c-.35-48.99.88-98-.62-146.97-.67,47.81-.04,95.63-2.02,143.42-.58-18.17-.13-36.35-.87-54.51-1.09,31.13-1.86,62.27-1.45,93.42h-1.08c.09-15.33.14-30.65-.63-45.95-.6,18.18-.12,36.36-.92,54.53-1.22-16.12-1.52-32.3-2.02-48.44-.76,23.22-1.14,46.44-2.14,69.65-.81-25.07-.12-50.15-.3-75.23h-1.08c.08,15.31.1,30.59-.25,45.89-.7-10.37-1.3-20.73-2.41-31.05-.47,15.76.07,31.63-2.01,47.31-.39-14.49-.36-28.98-.9-43.45-.39,12.8-.49,25.63-1.83,38.39-.57-10.77-.83-21.55-1.17-32.32-.39,11.47-.62,22.94-1.66,34.37-.68-10.44-1.01-20.88-1.38-31.33-.41,9.07-.73,18.14-1.27,27.22-1.19-9.33-1.33-18.78-1.79-28.17-.31,8.73-.69,17.45-1.02,26.17-.79-9.07-1.47-18.14-2-27.24-.11,3-1.06,5.87-.82,8.91-.31-1.45-.95-4.33-1.27-5.78-.73,7.29-1.43,14.59-2.09,21.89-.16-5.61-.28-11.21-.36-16.81-.72,1.58-1.4,3.16-2.08,4.75-.83-8-1.07-16.05-1.46-24.07-.35,5.69-.68,11.39-.96,17.09-.2-2.97-1.22-6.06-1.07-8.99-.24,2.99-1.34,5.86-1.24,8.9-1.77-7.89-2.27-15.99-3.01-24.02-.15,12.08-.31,24.17-.79,36.25-.41-9.42-.62-18.83-.96-28.24-.49,4.69-.99,9.38-1.36,14.08-1.82-12-2.35-24.15-2.67-36.26-.41,7.03-.84,14.06-1.25,21.1-.43-21.2.12-42.45-1.95-63.58-1,27.59.52,55.21-.99,82.78-.54-43.77-.85-87.54-2.01-131.3-1.09,26.9.39,53.84-.82,80.74-1.24-22.86-1.32-45.76-2.22-68.62-1.76,39.37,1.79,78.92-1.83,118.18-1.68-48.8.57-97.67-1.11-146.47-1.94,41.74,1.71,83.65-1.88,125.3-1.69-30.29.47-60.66-1.2-90.96-.68,39.06-.15,78.13-2.07,117.16-1.19-41.74.66-83.52-.95-125.25-1.23,33,.51,66.03-.99,99.03-3.27-25.46-.14-51.24-2.09-76.79-.6,22.88-.15,45.81-2.05,68.64-.32-11.44-.46-22.87-.97-34.3-.65,19.52-.02,39.05-.96,58.56-1.43-29.1-1.63-58.23-1.38-87.36l-1,.03c.17,23.4-1.04,46.78-1.52,70.18-.48-4.34-1-8.71-1.36-13.04-.22,13.44-.2,26.88-.78,40.31-.59-32.98-.73-65.95-1.95-98.91-1.78,29.25-3.12,58.53-5.3,87.76-.19-8.35-.27-16.7-.34-25.04-.44,1.43-1.3,4.29-1.74,5.73-.27-2.76-.82-8.26-1.09-11.02-3.08,13.94-1.98,28.3-3.52,42.41-.47-7.02-.9-14.04-1.27-21.07-.41,8.55-.73,17.1-1.41,25.64-.91-9.2-1.19-18.44-1.57-27.66-.31,10.4-.61,20.79-.88,31.2-.65-9.36-1.3-18.7-2.25-28.02-.3,9.35-.58,18.7-.81,28.06-.57-7.88-.91-15.76-1.58-23.62-.81,7.5-1.01,15.04-1.51,22.57-.61-5.01-1.16-10.03-1.79-15.02-.54,2.99-1.02,5.98-1.45,8.98-.33-6.36-.64-12.75-.91-19.11-.21,5.99-.37,11.97-.48,17.96-.85-1.86-1.69-3.71-2.51-5.56-1.09,4.55-2.03,9.12-3.05,13.69-.3-7.7-.54-15.4-.78-23.08-.6,4.02-1.15,8.06-1.66,12.1-.67-6.03-1.17-12.09-1.66-18.12-.26,11.1-.52,22.22-1.31,33.31-.96-8.06-1.77-16.11-2.66-24.17-.34,8.71-.64,17.42-1.02,26.13-1.12-26.58-1.09-53.18-2.08-79.76-.52,16.85-.09,33.72-1.05,50.57-1.4-12.46-1.26-25.04-2.68-37.48-.56,9.75-.85,19.5-1.16,29.26-.34-8.74-.74-17.47-1.11-26.2-2.23,15.89-1.28,31.99-1.37,47.97h-1.03c.03-13.62,0-27.26-.49-40.88-.85,15.81-1.44,31.63-2.12,47.46-1.2-16.48-1.43-33-2.08-49.48-.41,16.14-.26,32.31-1.01,48.46-.46-15.82.23-31.72-1.8-47.44-.68,13.08-.68,26.19-1.02,39.28-1.75-18.78-1.44-37.65-2.21-56.48-.46,16.13-.3,32.28-.83,48.41-1.09-19.15-1.44-38.34-2.23-57.5-.64,19.53-.03,39.08-.87,58.61-2.88-24.15-.67-48.51-1.99-72.74-.54,8.2-1.01,16.42-1.73,24.61-1.1-11.52-1.02-23.1-1.24-34.65-2.75,27.33-1.25,54.83-1.56,82.24h-1.09c-.26-28.79.72-57.61-.58-86.37-3.22,25.12-.16,50.54-2.02,75.76-1.09-26.26.77-52.62-2.1-78.79-.92,24.91.44,49.85-.95,74.75-1.14-29.96.47-59.94-.94-89.89-1.29,30.96.47,61.96-1.05,92.92-.53-16.41-.37-32.81-1.01-49.21-1.06-27.02.36-54.08-1.02-81.1-1.28,48.15.58,96.34-.94,144.49-2.59-15.87-1.25-32.03-1.49-48.02-.27-32.16.74-64.34-.62-96.47-1.3,51.85.72,103.73-1.02,155.56-.59-18.12-.19-36.27-.93-54.38-1.17-29.01.35-58.03-1.01-87.03-1.4,42.74.61,85.54-1.06,128.28-1.3-58.24.62-116.52-.96-174.75-1.45,47.8.7,95.63-1.1,143.42-.78-5.85-1.2-11.75-1.3-17.64-.63-47.31.86-94.65-.7-141.96-1.27,41.74.68,83.52-1.01,125.26-1.28-45.11.7-90.26-1.01-135.36-1.14,42.76.83,85.56-2.06,128.28-.8-37.88-.12-75.75-.29-113.63h-1.09c-.32,40.57.81,81.17-.58,121.72-1.33-53.19.67-106.42-1.01-159.61-.94,61.45-.15,122.9-.35,184.36h-1.09c-.25-31.01.77-62.03-.71-93.01-.6-21.01.2-42.05-.82-63.05-1.42,56.21.59,112.47-1.02,168.68-1.41-57.9.6-115.84-1.01-173.73-1.36,39.37.53,78.79-1.01,118.16-3.13-50.45-.16-101.03-2.07-151.51-1.3,56.56.62,113.15-.96,169.7-1.44-56.21.65-112.48-1.06-168.69-1.3,53.18.61,106.41-.96,159.6-1.45-52.85.68-105.75-1.08-158.58-.88,70.21-.14,140.42-.33,210.62h-1.08c-.29-36.38.8-72.77-.72-109.13-.96-32.14.66-64.31-.92-96.43-.86,60.43-.12,120.87-.31,181.32h-1.09c-.33-54.04.83-108.11-.58-162.13-1.3,43.09.64,86.22-1.01,129.3-.94-49.66-.14-99.33-.35-149h-1.09c-.36,74.25.89,148.51-.62,222.74-1.28-48.31.82-96.67-1.15-144.96-.55-31.99-.05-63.97-.18-95.97h-1.08c.06,53.88.02,107.75.08,161.63h-1.09c.05-50.51.02-101.01.08-151.52h-1.09c-.35,57.42.87,114.84-.6,172.23-1.3-61.95.73-123.93-1.01-185.87-1.09,36.53.27,73.08-.65,109.61-.74,16.14-.79,32.31-.75,48.46l-1.03.03c-.31-54.04.77-108.1-.54-162.13-1.05,59.42-.17,118.85-.4,178.29h-1.09c-.33-60.78.84-121.58-.58-182.34-1.37,70.02.74,140.1-1.05,210.11-.89-45.28-.09-90.57-.32-135.85h-1.06c.05,16.95.14,33.9-.6,50.83-1.1,27.66.46,55.36-1.06,83.01-.75-20.19.12-40.39-.94-60.57-.99,33.49-3.05,66.96-2.43,100.48h-.89c-.13-10.27-.34-20.55-.78-30.8-1.56,13.06-1.47,26.25-2.03,39.38-.3-10.93-.39-21.86-.42-32.79h-.87c-.06,11.93-.17,23.88-.59,35.83-.43-7.75-.79-15.49-1.2-23.23-2.05,18.45-.95,37.06-1.91,55.57-.42-14.47-.41-28.95-1.08-43.41-.45,15.13-.27,30.29-.91,45.42-.61-17.5-.28-35.01-1.01-52.49-1.58,19.14-1.25,38.37-2.08,57.56-.67-19.35-.36-38.71-.32-58.07h-1.12c.09,17,.21,34.01-.46,50.99-.73-14.12-1.41-28.25-2.22-42.37-.32,13.46-.32,26.91-.9,40.36-.42-14.48-.42-28.95-.98-43.42-.39,11.1-.59,22.22-.99,33.32-1.14-15.11-1.54-30.28-2.15-45.42-.38,13.45-.36,26.9-.91,40.35-.47-8.4-.66-16.8-1.05-25.19-.32,6.36-.6,12.73-.85,19.11-.49-8.07-1.08-16.12-1.9-24.17-.47,6.37-.88,12.73-1.2,19.1-.31-4.01-.96-12.03-1.27-16.04-.22,15.12-.12,30.27-.88,45.38-.42-15.2-.19-30.4-1.22-45.57-1.59,14.63-1.26,29.36-1.12,44.05l-1.08.03c.1-17,.27-34.02-.61-51-.68,18.34-.32,36.69-.29,55.04l-1.01-.03c-.08-26.76-1.06-53.51-1.71-80.27-.44,11.77-.49,23.55-.97,35.32-.55-17.5-.22-35.02-1.06-52.51-.73,19.86.05,39.74-.97,59.61-1.78-11.54-1.47-23.25-1.51-34.87-.02-25.42.62-50.85-.47-76.26-1.04,37.52-.17,75.07-.4,112.62h-1.09c-.33-47.31.82-94.63-.58-141.93-1.3,43.09.64,86.22-1.01,129.3-.95-44.6-.14-89.23-.35-133.84h-1.09c.18,53.72.3,107.42-1.55,161.11-1.02-62.79-.17-125.59-.39-188.39h-1.09c-.3,54.04.77,108.1-.53,162.12-1.41-44.43.62-88.91-1.05-133.33-1.09,26.25.37,52.54-1.02,78.78-1.06-26.05.29-52.14-.85-78.2-.97-20.05-.11-40.15-1.16-60.19-1.36,49.82.71,99.68-1.06,149.49-1.19-37.02.59-74.07-.92-111.09-1.42,47.8.63,95.64-1.06,143.43-1.33-53.19.67-106.42-1.01-159.61-1.22,58.22.44,116.48-.82,174.7-3.1-40.33-.49-80.78-2.16-121.14-1.4,39.38.62,78.8-1.08,118.17-1.2-48.14.93-96.34-2.05-144.44-.25,34.37-2.92,68.64-2.97,103.02-.49-16.15-.33-32.31-.96-48.46-2.49,32.61-.7,65.32-1.99,97.96-1.4-19.15-1.46-38.36-2.02-57.55-.42,10.75-.65,21.51-1.01,32.26-.46-5.01-.92-10.04-1.28-15.05.11,31.6-.41,63.27-4.43,94.65-.76-3.72-.95-7.52-1.89-11.16-4.86-2.75-6.72,4.81-8.98,7.79-.11-.77-.34-2.3-.45-3.07-1.7,1.95-3.44,3.92-4.95,6.01-.13-4.17-.22-8.33-.29-12.49-1.07,3.33-2.09,6.68-3.11,10.02-.29-4.32-.56-8.64-.78-12.94-.26,2.73-.79,8.19-1.05,10.92-.41-2.48-.95-5-1.24-7.47-1.13,1.38-2.25,2.78-3.35,4.18,0-.71-.01-2.12-.02-2.83-.73.45-1.42.92-2.11,1.38-.88-5.43-1.73-10.88-2.54-16.32-.39,6.7-.73,13.4-1.05,20.11-.31-6.72-.55-13.44-.77-20.14-.43,2.66-.82,5.32-1.17,7.99-.28-2.95-1.29-6.05-1.28-8.96-.02,6.12.01,12.23.08,18.36-.8-.51-1.58-1.01-2.33-1.52-.12,1.54-.36,4.6-.48,6.12-.78-3.22-1.25-6.39-1.92-9.62-.71,3.55-1.34,7.11-1.94,10.68-.69-4.09-1.37-8.18-2.03-12.27-2.53,3.07-4.6,6.48-6.6,9.9-.34-7.88-.58-15.77-1.57-23.59-.65,8.36-1.11,16.74-1.98,25.09-2.03-12.69-3.24-25.5-4.24-38.3-.27,9.06-.63,18.11-1.04,27.17-1.35-8.69-1.68-17.49-2.48-26.23-.44,2.79-1.34,8.36-1.79,11.14-.65-3.31-1.45-6.7-1.9-10.01-.45,8.32-.82,16.65-1.44,24.95-.81-6.36-1.39-12.72-2.44-19.02-.91,7.7-1.48,15.44-2.06,23.17-.62-8.02-1.22-16.04-1.85-24.07-.87,6.04-1.77,12.07-2.64,18.11-.78-6.72-1.27-13.49-1.83-20.23-.98,7.33-1.23,14.73-1.68,22.11-.87-9.87-2.09-19.69-3.5-29.49-.62,3.42-1.33,6.81-1.72,10.27-.49-8-.79-16.01-1.88-23.95-.46,14.44-.4,28.87-.95,43.3-2.37-20.47-.93-41.11-2.06-61.64-.75,15.86.31,31.9-2.39,47.62-1.93-14.08-.86-28.39-1.61-42.55-.58,12.19.05,24.75-4.16,36.42-.45-10.12-.55-20.26-.77-30.37-.86,6.01-1.56,12.04-2.43,18.05-2.15-18.72-1.28-37.65-2.79-56.43-.38,7.72-.67,15.45-.97,23.17-.34-11.1-.61-22.22-1.67-33.28-.93,12.77-1.64,25.56-2.46,38.34-2.03-19.79-.94-39.73-2.05-59.56-.9,22.54.63,45.19-2.07,67.65-.46-24.91-.2-49.85-1.99-74.71-.61,24.55.1,49.15-1.91,73.66-.39-12.09-.58-24.19-1.01-36.27-.44,6.7-.71,13.4-1.07,20.1-.95-7-1.6-14.04-2.15-21.09-.2,12.43-.24,24.87-1.38,37.26-3.45-22.72-4.02-45.68-4.54-68.61-1.29,23.92-.66,47.98-3.65,71.78-2.19-52.52.54-105.14-1.41-157.69-1.26,58.58.63,117.19-.94,175.76-.51-15.82-.37-31.65-1.04-47.47-.73,9.99-1.13,19.99-1.44,30.01-.7-1.14-1.37-2.28-2.02-3.41-.16,6.62-.31,13.24-.44,19.88-.44-4.35-.92-8.71-1.27-13.04-.33,8.07-.61,16.13-1.01,24.21-2.08-13.27-1.35-26.78-2.19-40.16-.75,1.14-1.46,2.28-2.17,3.43-.25-4.26-.47-8.52-.68-12.77-.4,14.46-.66,28.93-1.83,43.35-.29-3.31-.85-6.69-.97-9.99-1.24,1.52-2.46,3.03-3.68,4.56.08-22.25.18-44.49.14-66.74h-1.1c.02,20.36.34,40.73-.38,61.08-.45-7.39-.81-14.78-1.19-22.17-.36,7.71-.64,15.43-.96,23.15-.41-5.02-.77-10.05-1.06-15.07-.91,7.7-1.54,15.42-2.14,23.15-.26-11.43-.4-22.86-.85-34.27-.15,4.41-.3,8.83-.35,13.26-.64-.42-1.25-.85-1.85-1.27-.37,1.28-.73,2.58-1.06,3.86-.33-11.07-.67-22.21-2.79-33.1-2.63,14.01-.93,28.46-2.9,42.57-.6-8.43-.79-16.88-1.14-25.31-.68,10.74-1.37,21.49-1.99,32.24-.55-10.44-.85-20.89-2.11-31.27-.35,9.4-.55,18.8-.84,28.2-2.17-20.78-1.2-41.71-2.07-62.55-1.54,16.82-1.92,33.76-4.93,50.42-.22-2.97-.69-8.92-.91-11.9-.97,6.02-1.83,12.05-3.06,18.02-.48-2.62-1.12-5.27-1.45-7.88-.25,4.01-.77,12.03-1.02,16.04-2.31-15.88-.99-32.04-1.19-48.02h-1.11c.08,10.2.03,20.4.05,30.6-.47-1.39-1.43-4.18-1.9-5.58-.3,4.26-.59,8.53-.84,12.79-.34-11.32-.41-22.63-1.31-33.92-.69,1.12-1.35,2.25-2.01,3.37-.32-13.03-.9-26.05-1.68-39.07-.68,20.86.09,41.74-.95,62.59-1.07-26.26.28-52.54-.91-78.79-2.59,24.17-.74,48.49-2.15,72.73-.9-23.22.14-46.45-.82-69.66-3.19,28.84-.4,57.91-2.21,86.83-1.12-35,.35-70.02-.75-105.02-2.85,26.47-.13,53.17-3.13,79.61-.36-3.28-1.07-6.64-1.27-9.91-.64,14.41-1.41,28.8-2.43,43.18-.61-1.52-1.19-3.04-1.77-4.57-.12,3.27-.69,6.48-.7,9.77-.26-3.93-.52-7.86-.69-11.78-.86,2.24-1.71,4.49-2.53,6.72-.07-4.42-.14-8.85-.11-13.26-.67.42-1.3.85-1.92,1.28-.89-7.88-2.46-15.66-4.66-23.27-.76,5.69-1.4,11.4-2.15,17.08-.34-3.29-.99-6.65-1.22-9.92-.42,10.62-.85,21.24-1.23,31.87-.33-.68-1.01-2.04-1.34-2.72-.83,1.67-1.66,3.33-2.47,4.99-.21-2.73-.65-8.19-.87-10.93-.87,9.03-1.54,18.08-2.14,27.15-.17-7.3-.27-14.6-.36-21.89-.99,1.48-1.96,2.96-2.92,4.45-.07-1.92-.21-5.77-.29-7.7-.93,1.56-1.85,3.12-2.73,4.7-.63-2.84-1.46-5.7-2.04-8.51-.12,4.95-.32,9.89-.42,14.84-.6-2.68-1.15-5.36-1.67-8.03-.84,5.66-1.31,11.35-1.83,17.04-.16-15.42-.02-30.87-1.83-46.2-.39,11.02-.46,22.09-1.66,33.09-.52-3-1-6-1.44-8.99-.29,4.34-.63,8.67-.85,13.03-.44-10.06-.66-20.14-1.82-30.15-.46,7.7-.82,15.41-1.16,23.11-.24-2.97-1.09-6.05-1.09-8.97-.41,3.34-1.13,6.63-1.41,9.99-1.27-11.7-1.12-23.51-2.25-35.21-1.19,13.06-2.69,26.12-3.48,39.22-1.29-12.4-1.53-24.85-1.9-37.3-.38,6.03-.73,12.06-1.05,18.1-.35-7.37-.66-14.73-.98-22.1-.65,13.81.51,27.93-2.61,41.51-.74-10.48-1.08-20.97-1.48-31.46-.98,14.45-1.56,28.92-2.04,43.38-.39-9.75-.6-19.5-1.02-29.24-.37,9.74-.55,19.49-.86,29.24-.54-8.45-.97-16.9-1.89-25.31-1.61,5.93-1.93,12.08-2.52,18.17-.09-10.73-.26-21.44-.59-32.15-.41,7.02-.81,14.04-1.18,21.07-.39-4.98-.76-9.98-1.05-14.95-1.02,6.42-1.86,12.88-2.76,19.33-.9-13.19-.79-26.44-1.11-39.65-.42,9.07-.75,18.14-1.23,27.22-1.08-6.65-1.63-13.38-2.18-20.07-.11,13.45-.07,26.89-.89,40.32-2.03-12.99-1.22-26.22-1.67-39.3-.78,4.29-1.54,8.6-2.27,12.9-.3-3.28-.94-6.62-1.15-9.88-.23,10.72-.36,21.45-.69,32.18-1.57-13.73-2.75-27.5-3.14-41.31-.35,5.69-.69,11.38-.99,17.07-.44-5.69-.86-11.38-1.25-17.06-.3,15.14-.14,30.29-.77,45.43-1.98-13.39-1.48-26.94-2.29-40.41-.52,1.48-1.55,4.43-2.06,5.91-.1-8.71-.43-17.4-.63-26.1-.79,18.48-1.39,36.97-2.12,55.45-.82-20.51-.09-41.04-.96-61.54-.45,10.11-.72,20.26-1.89,30.33-.72-13.14-.7-26.32-1.19-39.47-2.32,20.47-.93,41.1-2.02,61.63-1.23-22.7.74-45.49-1.57-68.15-1.72,17.96-.44,36.03-1.55,54.02-.92-23.57.53-47.22-2.04-70.72-1.06,27.95.53,55.92-.99,83.85-.7-36.03.04-72.07-2.05-108.07-.82,36.52-.1,73.06-.3,109.59h-1.06c.26-31.49-.91-62.96-1.66-94.43-1.14,33.65.55,67.35-.9,100.99-2.41-50.64-1.19-101.34-1.42-152.02h-1.09c-.4,52.35.97,104.75-.67,157.07-3.28-42.33.16-84.86-1.88-127.26-1.33,36.01.49,72.05-1,108.07-.86-23.39-1.67-46.78-1.48-70.18l-1.03-.03c-.3,28.11,1.18,56.31-1.67,84.33-.32-14.47-.31-28.93-.85-43.39-.41,12.45-.57,24.89-1.17,37.33-1.98-14.71-1.14-29.6-1.83-44.38-.62,18.84-.72,37.69-2.19,56.5-.4-11.76-.44-23.54-.84-35.3-.63,9.7-1.14,19.41-2.11,29.09-.45-8.73-.86-17.46-1.58-26.16-.87,13.79-.95,27.62-1.37,41.43-.86-5.61-1.63-11.24-2.33-16.87-.13,12.67-.38,25.36-1.7,37.97-.42-4.29-.82-8.59-1.18-12.88-.32,5-.65,9.99-.89,15.01-.77-5.28-1.49-10.57-2.19-15.85-.31,4.27-.6,8.56-.84,12.85-.25-5.32-.46-10.65-.67-15.95-.74,2.19-1.47,4.39-2.23,6.59-.49-1.53-.97-3.03-1.44-4.55-.21,2.95-.4,5.91-.58,8.87-.33-1.74-.99-5.22-1.32-6.96-.32,4.33-.66,8.65-.89,13-1.08-4.96-1.98-9.96-2.96-14.94-.38,3.34-1.11,6.61-1.36,9.99-.68-3.96-1.28-7.97-1.75-11.95-1.11,2.49-2.19,5-3.23,7.52-.82-7.65-1.72-15.27-2.88-22.86-.37,6.07-.72,12.13-1.08,18.22-1.48-4.91-2.47-9.97-3.2-15.04-.2,6.33-.44,12.66-.67,19-.68-8.04-1.29-16.08-1.88-24.14-.89,1.91-1.76,3.83-2.62,5.75-1.12-5.26-2.07-10.56-2.84-15.87-.21,9.4-.4,18.8-.75,28.2-.46-11.4-.82-22.8-2.11-34.14-.31,7.99-.46,15.98-.69,23.97-1.71-9-3.5-17.99-4.56-27.1-.61,4.27-1.29,8.54-1.89,12.82-.26-2.96-.77-8.89-1.02-11.85-.33,10.08-.48,20.15-.95,30.24-.81-23.21.1-46.42-.73-69.63-2.29,19.44-4.22,38.92-4.28,58.52-1-25.91.31-51.85-.94-77.75-.62,24.91-.79,49.83-2.08,74.72-1.15-29.28.51-58.6-1.04-87.86-.72,27.93.16,55.92-2.07,83.81-1.03-31.3.61-62.63-.97-93.91-1.21,37.02.64,74.09-.97,111.1-1.34-51.51.71-103.06-1.03-154.55-1.1,44.78.78,89.6-2.05,134.34-.32-14.48-.32-28.95-1-43.4-.96,23.56.34,47.16-.98,70.72-1.9-17.44-.88-35.06-2.92-52.47-.34,8.7-.57,17.41-.79,26.12-.38-1.73-1.13-5.16-1.51-6.89-.25,6.01-.46,12.02-.67,18.04-.47-4.01-.92-8.02-1.33-12.02-.28,17.14-.21,34.33-1.89,51.41-1.06-7.33-1.58-14.71-1.96-22.1-.58,5.72-1.1,11.45-1.79,17.15-.99-5.69-1.79-11.44-2.57-17.14-1.11,7.98-1.36,16.05-1.89,24.1-1.33-10.37-1.41-20.84-1.91-31.26-1.23,11.21-1.64,22.49-2.59,33.73-.91-11.71-1.01-23.47-1.92-35.18-1.04,10.52-1.18,21.11-2.62,31.59-.34-9.89-.38-19.79-.39-29.67-.44.01-1.3.04-1.74.06-.23,8.97-.61,17.95-1.24,26.91-1.36-10.42-1.12-20.96-1.67-31.43-1.06,9.4-1.55,18.84-2.24,28.27-1.83-11.36-2.42-22.84-2.72-34.32-.39,13.75-.51,27.51-.84,41.27-.87-9.08-1.64-18.17-2.58-27.25-.91,7.38-1.56,14.78-2.51,22.16-1.22-11.03-1.79-22.11-2.22-33.2-.27,11.15-.51,22.3-1.15,33.44-1.4-8.33-2.01-16.76-2.81-25.17-.53,7.39-1.14,14.77-2.02,22.11-2.27-11.32-1.39-22.97-1.99-34.44-.78,10.76-1.61,21.52-3,32.22-.41-10.39-.68-20.77-.93-31.15-.74,9.12-1.58,18.26-2.95,27.32-.68-12.47-.84-24.95-1.12-37.44-1.09,11.07-1.8,22.18-2.89,33.25-.81-6.68-1.56-13.34-2.25-20.01-.6,8.98-1.23,17.97-2.18,26.93-.27-11.43-.46-22.84-1.09-34.25-.86,9.21-1.48,18.44-2.33,27.65-2.07-9.02-2.04-18.34-2.56-27.52-.55,8.35-1.2,16.67-2,24.99-.42-6.36-.85-12.73-1.28-19.08-2.44,8.58-2.46,17.52-3.09,26.34-1.31-16.47-1.06-33-1.62-49.49-1.48,14.43-1.56,28.93-2.09,43.41-1.16-9.05-1.85-18.17-2.86-27.23-.79,7.33-1.32,14.69-2.22,22.01-.25-5.64-.49-11.27-.73-16.89-.3,2.72-.91,8.16-1.21,10.89-.99-6.3-1.9-12.62-2.99-18.89-.41,7.67-.74,15.35-1.11,23.04-.41-6.7-.68-13.42-1.02-20.11-.44,8.05-.64,16.11-1.04,24.18-.32-11.43-.41-22.84-.83-34.26-.34,8.72-.73,17.44-1,26.16-1.29-13.45-3.38-26.8-4.35-40.28-.25,16.8-.62,33.61-1.86,50.37-.76-17.76.56-35.68-2.04-53.33-.44,10.05-.61,20.12-1.1,30.19-2.6-17.82.97-36.31-3.73-53.82-.96,15.21-.45,30.48-1.09,45.71-.91-13.1-1.53-26.24-2.15-39.35-.37,15.48-.04,31.03-1.66,46.45-.77-21.9-1.26-43.83-3.52-65.65-.56,21.19.26,42.39-.93,63.57-.82-7.43-1.1-14.9-1.39-22.36-.7.48-1.38.95-2.06,1.42-1.71-28.68-3.26-57.36-3.59-86.11-1,28.58.13,57.19-.58,85.79-.38-1.72-1.17-5.14-1.56-6.85-.35,6.68-.68,13.35-1.07,20.02-2.18-15.03-.89-30.31-1.72-45.42-.7,13.78-1.37,27.57-2.16,41.35-.37-8.39-.62-16.78-.97-25.17-1.12,14.53-1.56,29.09-1.24,43.65-.72-.52-1.42-1.04-2.12-1.55-.42,6.5-.88,13-1.47,19.5-.69-8.06-1.09-16.14-2.02-24.18-.69,12.76-1.87,25.5-4.2,38.08-.92-8.62-1.95-17.2-3.05-25.79-.68,8.35-1.56,16.67-2.68,24.97-1.12-4.54-2.01-9.14-2.92-13.72-.54,1.03-1.04,2.06-1.55,3.1-.94-4.92-1.73-9.83-2.93-14.67-.42,6.39-.77,12.8-1.13,19.21-.32-8.03-.57-16.07-.88-24.11-.83,5.3-1.56,10.62-2.16,15.95-.75-3.56-1.53-7.14-2.19-10.71-.22,4.61-.49,9.19-.69,13.82-.53-4.71-1-9.43-1.45-14.11-.71,4.63-1.26,9.27-1.82,13.93-.31-7.36-.63-14.72-1.01-22.08-.84,5.06-1.47,10.15-2.12,15.24-4.71-9.03-2.96-19.54-3.69-29.29-.24,3.01-.94,5.91-.99,8.98-.31-1.73-.93-5.17-1.23-6.89-.35,6.01-.67,12.02-1,18.04-.29-12.19-.23-24.39-.1-36.58-.79.51-1.57,1.04-2.33,1.57-.17-1.58-.52-4.72-.69-6.29-.75,4.97-1.35,9.95-1.94,14.95-.13-14.79-.33-29.65-3.03-44.23-.45,18.82.07,37.65-.94,56.47-.65-27.64-.13-55.33-2.32-82.93-2.02,26.57-.83,53.3-2.72,79.9-.77-5.52-1.46-11.05-1.37-16.63-.47-32.17.86-64.35-.67-96.48-.84,35.69-.23,71.47-3.03,107.08-1.23-49.83.74-99.7-1-149.51-1.12,48.12.79,96.28-1.82,144.37-.4-8.72-.85-17.44-1.27-26.15-.33,13.45-.3,26.91-.91,40.36-1.18-31.3.47-62.64-.96-93.93-.51,15.88-.27,31.77-1.26,47.65-4.19-16.19-1.41-33.18-2.84-49.68-1.05,24.9.4,49.84-1.04,74.73-.48-15.14-.28-30.29-.9-45.42-.61,15.79-1.23,31.59-2.07,47.38-.89-22.17.05-44.35-.83-66.53-2.52,30.23-.9,60.57-2.18,90.82-.61-15.79-1.03-31.6-2.06-47.37-1.79,13.2-3.7,26.46-3.46,39.83.12,17.03-1.97,33.94-3.32,50.88-1.05-4.33-2.17-8.68-3.23-12.99-.27,3.34-.73,6.63-.91,9.99-1.07-3.15-2.12-6.3-3.12-9.47-.79,2.48-1.58,4.95-2.42,7.42-.95-7.68-1.56-15.39-2.46-23.08-.45,8.88-1,17.76-1.68,26.63-2.43-8.67-2.27-17.71-2.67-26.61-.52,10.09-1.11,20.19-2.03,30.25-2.32-16.76-.38-33.78-2.8-50.54-.98,16.83-.39,33.72-1.1,50.58-1.19-9.73-1.72-19.52-2.91-29.24-1.05,6.99-1.8,14-2.31,21.05-.76-13.44-1.4-26.89-2.7-40.29-.65,13.76-.75,27.53-1.15,41.3-1.29-12.87-.66-26.05-3.8-38.67-.92,11.52-.85,23.1-1.15,34.64-4.43-16.76-1.97-34.34-3.21-51.43-.6,17.57-.09,35.18-1.3,52.74-4.64-23.08-.01-46.78-3.6-69.97-1.43,23.55.12,47.17-1.07,70.74-2.69-23.14-2.31-46.43-3.21-69.67-.9,23.55.18,47.13-.75,70.68-4.02-22.98-2.93-46.44-4.17-69.65-1.08,20.65.41,41.36-1.51,61.98-3.85-21.14-.93-42.71-2.63-64.02-.58,22.88-1.05,45.77-1.93,68.63-2.38-23.15-2.43-46.41-3.15-69.64-.92,25.2.11,50.42-.62,75.63-4.83-29.36-1.7-59.19-3.24-88.76-1.97,28.23-1.22,56.52-1.93,84.77-.24-3.99-.73-11.97-.97-15.97-.58,2.25-1.11,4.51-1.62,6.77-.4-25.53.62-51.07-.7-76.59-1.1,31.63.38,63.3-.83,94.94-1.94-29.98-2.63-59.98-3.31-90-3.41,22.01.69,44.57-2.95,66.61-2.1-20.75-.82-41.65-2.01-62.46-.9,23.22.23,46.46-.92,69.67-.52-15.84-.7-31.8-4.13-47.34-.37,11.38-.45,22.76-.68,34.15-1.57-15.42-2.97-30.85-3.42-46.34-.27,9.75-.4,19.51-.67,29.27-.73-2.62-1.83-5.36-2.39-7.93-.23,3.31-.67,6.57-.81,9.91-.33-2.96-1.05-6.04-1.22-8.96-.24,10.74-.42,21.48-.9,32.22-.6-17.8-.3-35.6-.53-53.4-.61,2.22-1.17,4.45-1.71,6.68-.21-2.95-.65-8.86-.86-11.82-.53,12.11-1.08,24.22-2.03,36.3-.12-7.49-.13-14.98-.16-22.46-.76.54-1.49,1.08-2.21,1.64-.15-1.84-.46-5.5-.61-7.34-.43,5.04-.88,10.06-1.27,15.11-1.45-8.35-2.12-16.8-2.92-25.22-.77,8.01-1.29,16.04-1.81,24.09-.67-7.76-1.18-15.52-2.3-23.23-.8,9.4-1.33,18.82-1.76,28.26-.35-12.09-.48-24.19-.85-36.27-.4,5.7-.78,11.41-1.15,17.11-.15-2.95-.68-6.01-.67-8.92-.52,1.59-1.02,3.17-1.52,4.77-2.68-23.43-1.99-47.03-2.92-70.56-.67,23.89.03,47.83-1.97,71.68-.35-10.76-.61-21.52-1.07-32.27-.33,13.12-.35,26.27-1.11,39.38-1.55-14.08-1.31-28.29-1.9-42.41-1.06,26.25.83,52.61-2.12,78.77-.19-8.33-.2-16.66-.22-24.97-.69,1.13-1.35,2.28-2.01,3.43-.24-1.66-.73-4.95-.97-6.6-.07,10.33-.08,20.64-.1,30.96-.51-1.38-1.52-4.16-2.01-5.56.01,4.55.03,9.07.1,13.63-.69-1.17-1.37-2.34-2.04-3.51-.13,1.48-.24,2.95-.34,4.43-.3-1.02-.6-2.03-.87-3.05-1.92,2.3-3.74,4.68-5.85,6.81-1.01-5.5-1.35-11.1-1.89-16.64-1.72,7.66-2.54,15.47-3.76,23.22-.35-9.04-.62-18.08-.79-27.13-.85,6.79-1.23,13.69-2.85,20.37-1.47-6.33-2.63-12.75-3.7-19.15-.46,7.96-.82,15.93-1.65,23.86-.33-6.57-.65-13.12-.96-19.69-1-.99-1.99-2-2.96-3-.53,4.83-1.01,9.66-1.47,14.5-.26-5.64-.51-11.26-.76-16.88-.35,4.02-1.07,12.07-1.42,16.1-1.28-10.05-1.35-20.23-2.62-30.28-.51,11.44-.57,22.88-1,34.32-6.16-15.39-2.61-32.44-4.21-48.49-.47,11.77-.49,23.54-.91,35.32-.43-7.73-.75-15.46-1.16-23.18-.27,9.73-.49,19.47-.83,29.21-.32-8.74-.76-17.46-1.04-26.18-.83,4.95-1.56,9.9-2.26,14.88-.38-12.04-.96-24.08-1.84-36.09-.31,10.83-.62,21.67-1.49,32.48-1.89-18.52-.39-37.19-1.6-55.75-.51,15.13-.27,30.28-.97,45.41-.42-8.39-.54-16.79-.82-25.18-.56,5.84-1.18,11.68-1.78,17.52-1.91-22.64-.07-45.37-1.33-68.04-1.43,11.36-1.61,22.79-1.88,34.22-.7-3.34-1.37-6.69-2.07-10.02-.43,7.07-.86,14.13-1.27,21.21-.9-10.06-1.38-20.15-1.89-30.25-.43,5.69-.84,11.38-1.25,17.07-.45-18.33-.2-36.66-.17-54.99h-1.11c-.29,35.52.77,71.05-.56,106.55-.75-19-1.55-38.03-1.39-57.05-.03-14.59.36-29.27-1.66-43.77-.55,9.98-.98,19.97-1.92,29.93-.42-4.3-.83-8.61-1.21-12.9-2.6,32.28.38,64.73-2.62,96.97-.56-9.43-.85-18.85-1.15-28.28-.38,3-1.1,5.9-1.34,8.95-.29-6.69-.53-13.38-.8-20.05-.26,18.9-3.06,37.61-4.13,56.46-.11-2.91-.31-5.85-.34-8.74-.9-.05-1.79-.1-2.67-.16-.66,3.63-1.23,7.27-1.89,10.9-.51-10.03-.76-20.1-2.04-30.06-.53,9.36-.77,18.75-1.88,28.08-1.1-7.33-1.74-14.72-2.35-22.11-.31,6.74-.63,13.47-.96,20.22-1.25-3.89-2.3-7.85-3.18-11.83-.47,3.42-1.3,6.7-1.72,10.14-1.68-8.42-1.64-17.07-2.22-25.6-.29,10.14-.6,20.3-1.8,30.39-2.13-9.67-1.59-19.67-2.29-29.48-1.38,7.91-1.19,15.97-1.43,23.97-1.1-2.61-2.13-5.2-3.24-7.78-.34,2.01-1.03,6.02-1.37,8.03-.71-8.04-1.28-16.09-1.89-24.14-.49,8.38-.92,16.76-1.62,25.13-.94-7.36-1.79-14.73-2.57-22.11-1.33,9.3-2.06,18.68-2.96,28.02-.33-9.99-.66-19.98-1.7-29.92-.78,7.09-.65,14.46-3.1,21.25-.4-5.77-.76-11.54-1.06-17.31-.67,6.03-1.29,12.08-2.1,18.1-1.03-6.99-1.57-14.04-1.97-21.1-.8,5.04-1.6,10.08-2.51,15.11-.75-5.02-1.23-10.09-1.78-15.11-.3,6.36-.6,12.71-.92,19.07-1.55-9.33-2.66-18.74-2.99-28.2-.49,7.3-.85,14.62-1.56,21.91-.87-3.58-1.64-7.11-2.52-10.66-.66,3.25-1.45,6.47-2.03,9.74-.68-5.61-1.32-11.22-2.01-16.83-.29,2.97-.57,5.95-.83,8.93-1.21-3.33-2.47-6.71-3.59-10.05-2.82,6.96-1.89,14.68-2.47,21.99-.7-3.61-1.36-7.21-2.1-10.81-.38,4.28-.74,8.58-1.08,12.88-1.38-11.37-1.53-22.81-1.89-34.23-.62,8-1.08,16.03-1.98,24.02-.23-2.95-.68-8.85-.9-11.8-.53,2.21-1.02,4.45-1.48,6.68-.29-7.33-.59-14.64-.98-21.94-1.18,10.7-1.33,21.48-1.71,32.24-.56-6.69-1.02-13.37-1.69-20.03-.92,3.26-1.71,6.58-2.61,9.85-1.07-6.11-1.35-12.34-1.73-18.52-.36,0-1.09.01-1.45.02-.23,7.2-.47,14.42-.75,21.63-.45-10.39-.59-20.8-1.98-31.12-.86,13.07-1.46,26.15-2.07,39.23-1.82-16.76-1.26-33.64-1.96-50.46-.45,10.83-.46,21.72-2,32.47-2.47-14.39-1.54-29.12-3.19-43.59-.46,17.83-.11,35.67-.86,53.51-.47-14.47-.9-28.93-1.97-43.37-.7,8.41-1.24,16.86-2.97,25.15-.48-6.36-.85-12.73-1.24-19.1-.32,9.41-.56,18.8-.96,28.21-.43-8.4-.64-16.8-1.03-25.19-.32,11.09-.51,22.19-.92,33.28-.75-25.07-1.76-50.12-1.48-75.21l-1.05-.03c-.08,22.04.55,44.11-.58,66.13-1.2-9.36-1.48-18.79-1.96-28.2-.42,5.73-.83,11.46-1.24,17.18-2.98-10.52-2.31-21.54-2.77-32.34-.25,8.73-.72,17.45-.97,26.19-.42-5.7-.83-11.4-1.21-17.08-.28,14.11-.34,28.23-.86,42.34-.45-10.76-.57-21.55-1.88-32.25-.59,9.73-.78,19.48-1.19,29.22-.36-15.87-.36-31.8-2.84-47.52-3.89,12.08-2.54,24.93-3.26,37.41-.38-10.36-.6-20.72-1.33-31.06-.43,1.33-.86,2.67-1.27,4.01-.66-.49-1.29-.99-1.93-1.49-.1,7.16-.2,14.33-.34,21.49-.64-6.39-1.17-12.79-1.92-19.17-.42,7.05-.82,14.09-1.18,21.14-.55-6.08-1.05-12.17-1.62-18.25-.88,8.42-1.06,16.87-1.57,25.31-.32-6.36-.58-12.73-.87-19.08-1.35,12.79-.41,26.54-6.73,38.21-1.11-4.07-1.99-8.18-3.17-12.23-.45,7.13-.89,14.26-1.3,21.4-.48-9.04-.77-18.1-2.04-27.08-.24,4.97-.46,9.92-.65,14.91-.95-1.15-1.89-2.3-2.82-3.45-.18,5.88-.37,11.75-.59,17.64-.38-10.07-.53-20.17-.94-30.23-.36,6.36-.62,12.74-.92,19.11-.34-2.96-.96-6.06-1.17-8.98-.32,3.99-.63,7.99-.92,11.99-2.37-9.2-2.76-18.72-3.15-28.17-.64,9.4-1.16,18.81-1.78,28.22-.45-2.68-.86-5.34-1.25-8.01-.2,2.99-.69,5.85-.79,8.89-.73-7.48-1.06-14.98-2.08-22.42-.81,2.37-1.6,4.76-2.35,7.14-1.96-15.28-2-30.71-3.68-46.01-.42,5.65-.84,11.3-1.25,16.97-1.39-14.61-1.38-29.29-1.32-43.94h-.9c.03,13.67.11,27.39-1.52,40.98-.64-8.42-.83-16.87-1.27-25.29-.27,11.41-.36,22.83-.77,34.24-1.84-19.8-1.19-39.7-2.32-59.54-1.65,12.71-1.29,25.57-1.88,38.36-.41-15.79-.33-31.6-.82-47.39-1.04,14.75-1.68,29.53-2.16,44.31-1.02-23.87.12-47.77-.93-71.63-.43,6.03-.81,12.07-1.2,18.12-.34-8.06-.58-16.12-.93-24.18-1.73,24.87-1.05,49.82-1.99,74.72-.82-15.79-1.42-31.58-1.95-47.37-.37,10.4-.72,20.8-1.06,31.2-.39-9.07-.63-18.15-.98-27.21-.51,8.75-.85,17.52-1.83,26.24-1.47-5.93-1.92-12.05-2.61-18.09-.31,23.21.23,46.41-.43,69.61-.49-4.01-.96-8.02-1.4-12.02-.53,11.05-1.05,22.11-1.69,33.16-.68-2.87-1.32-5.74-1.98-8.6-1.34,4.15-2.81,8.25-4.2,12.39-.69,3.35-1.47,6.67-2.1,10.04-.68-2.16-1.35-4.32-2.03-6.48-.7,6.25-1.32,12.53-2.07,18.78-.3-7.33-.58-14.67-.89-21.99-.84,6.98-1.46,13.98-2.14,20.98-.33-5.63-.62-11.24-.91-16.86-.83,4.62-1.59,9.25-2.28,13.9-.18-7.01-.36-14.02-.55-21.02-.73,5-1.35,10.01-2.12,15-.4-4.66-.75-9.33-1.08-13.98-.63,4.68-1.23,9.36-1.9,14.04-.34-4.04-1.04-12.11-1.38-16.15-1.04,8.72-1.39,17.49-2,26.25-.2-13.15-.25-26.32-1.08-39.45-.91,8.06-1.33,16.17-1.86,24.28-.45-9.42-.64-18.85-1.62-28.23-.46,8.73-.95,17.47-1.29,26.21-.36-12.15-.56-24.33-1.36-36.46-1.86,12.4-1.09,25.01-1.71,37.5-.46-10.45-.65-20.91-1.98-31.29-.47,8.41-.77,16.81-1.09,25.22-.63-11.43-1.19-22.84-1.99-34.26-.36,6.01-.68,12.02-1.02,18.04-.81-5.94-1.47-11.91-2.14-17.87-.4,4.66-.81,9.3-1.18,13.96-.86-5.33-1.33-10.73-1.92-16.07-.28,8.38-.48,16.75-.87,25.13-1.32-11.39-1.52-22.86-2.04-34.3-.28,11.47-.46,22.93-1.15,34.39-1.57-13.27-1.25-26.66-1.25-39.98h-.84c-.1,10.29-.31,20.58-.81,30.86-1.1-7.2-1.26-14.51-1.73-21.75h-.53c-.15,8.58-.32,17.15-.62,25.74-.97-7.71-1.67-15.44-2.12-23.19-.36,7.4-.72,14.81-1.16,22.22-1.4-12.07-1.33-24.26-1.89-36.38-.33,9.75-.55,19.51-.94,29.26-.73-9.71-1.3-19.44-1.85-29.16-.53,7.38-1.25,14.75-2.03,22.12-.39-2.99-.9-6.09-1.29-9.02-.52,8.01-.88,16.04-1.67,24.05-.47-7.03-.93-14.06-1.4-21.08-.19,15.15.21,30.37-1.69,45.44-.85-16.49-.46-33.02-1.25-49.5-.77,19.85.47,39.79-1.68,59.58-1.4-22.2-.08-44.44-1.33-66.65-.57,20.86-.34,41.76-2.13,62.59-.79-23.55.43-47.13-.93-70.66-.77,21.88.35,43.85-2.04,65.66-.51-17.85-.12-35.71-.89-53.54-1.24,16.8-1.4,33.65-2.11,50.49-.75-21.21.12-42.43-.96-63.62-.79,23.22-1.01,46.45-2.1,69.67-.65-19.86.07-39.73-.95-59.59-1.3,12.75-1.54,25.57-2.12,38.36-.45-18.17-.08-36.35-.81-54.51-1.67,22-1.61,44.07-1.48,66.12l-1.09.03c-.15-21.72.98-43.51-1.15-65.16-.54,7.05-1.05,14.1-1.55,21.17-.26-11.8-.34-23.61-1.04-35.39-3.37,26.12.25,52.64-1.83,78.86-.69-21.21-1.05-42.41-2.07-63.61-.62,19.17-.09,38.37-.93,57.55-.67-16.8.05-33.7-2.04-50.42-.49,15.45-.39,30.91-.97,46.36-2.92-27.51-.52-55.21-2.06-82.78-1.12,25.91.24,51.86-.95,77.77-2.77-27.2-.63-54.56-2.07-81.81-1.37,34.33.57,68.7-1.1,103.02-.56-43.78-.96-87.55-2.01-131.32-1.82,38.02,1.83,76.23-1.88,114.12-1.1-21.53.08-43.1-1.13-64.62-.61,17.81-.23,35.64-.8,53.47-2.66-16.69-1.19-33.63-2.19-50.42-1.02,22.52.62,45.15-1.98,67.6-1.46-42.39.64-84.82-1.13-127.21-1.04,26.72.36,53.48-.8,80.21-1,21.39-.09,42.83-1.12,64.22-1.39-42.74.56-85.53-1.02-128.27-1.03,39.72-1.17,79.46-2.06,119.18-1.18-32.99.41-66-.89-98.98-1.74,26.23-1.16,52.52-2.11,78.76-.59-17.5-.23-35.03-1.06-52.51-2.03,17.74-1.34,35.62-1.4,53.44-.6-1.54-1.19-3.07-1.78-4.61-.81,8.27-1.32,16.58-1.76,24.88-3.76-8.17-3.71-17.29-4.07-26.1-.62,5.3-1.14,10.63-1.92,15.91-.43-3.29-.95-6.67-1.3-9.94-.74,7.71-1.34,15.43-1.99,23.15-.85-7.3-1.34-14.66-1.67-22-.15,1.25-.45,3.75-.61,5-.67-.45-1.32-.89-1.97-1.33-.69,5.79-1.55,11.56-2.53,17.31-1.16-13.47-2.9-26.87-4.35-40.31-1.18,11.44-1.36,23.15-4.75,34.22-.86-5.36-1.61-10.74-2.45-16.09-1.28,7-2.1,14.06-3.05,21.11-1.06-11.37-1.23-22.78-1.63-34.18-.45,3.33-.95,6.62-1.33,9.98-.26-13.74.13-27.56-1.94-41.18-.32,11.35-.35,22.7-.49,34.07-.81-2.97-1.58-5.94-2.38-8.89-.28,5.69-.56,11.37-.82,17.05-.31-1.78-.93-5.32-1.24-7.1-.79,2.32-1.54,4.67-2.23,7.02-.2-6.68-.48-13.36-.67-20.02-.38,7.03-.77,14.06-1.14,21.11-.32-9.07-.59-18.14-.94-27.2-.42,4.68-.79,9.35-1.15,14.03-.26-7.36-.48-14.7-.71-22.04-.72,7.65-1.25,15.32-1.98,22.97-.82-6.28-1.6-12.57-2.48-18.83-.23,10.02-.39,20.04-.76,30.08-.38-10.77-.58-21.54-.9-32.3-.38,3.02-.91,5.92-1.21,8.98-.59-6.37-1.14-12.74-1.86-19.09-.75,10.46-1.14,20.97-3.36,31.25-2.45-8.84-2.31-18.05-2.66-27.13-.34,2.74-1.02,8.21-1.36,10.95-.67-24.21.46-48.44-.88-72.64-.92,23.55.21,47.13-.81,70.68-.51-4.69-.93-9.39-1.37-14.05-.3,16.3-.2,32.6-.14,48.91h-1.1c-.07-22.04.38-44.08-.31-66.1-.81,12.43-1.49,24.86-2.3,37.3-.88-15.13-1.38-30.28-2.05-45.41-.52,17.67-.36,35.35-.29,53.03l-.98-.05c-.04-11.94-.17-23.88-.73-35.82-.62,27.59-.11,55.21-1.73,82.78-.33-1.74-1.02-5.19-1.35-6.92-.95,6.67-1.84,13.34-2.74,20.01-.69-5.69-1.33-11.37-2.08-17.04-.77,4.99-1.51,9.99-2.18,14.99-1.01-7.29-2.03-14.59-3.1-21.87-.38,6-.77,11.99-1.21,18-.99-5.68-1.72-11.41-2.64-17.09-.46,6.36-.88,12.71-1.33,19.07-.8-5.04-1.41-10.13-2.06-15.18-.87,4.34-1.66,8.71-2.65,13.03-.89-6.26-1.52-12.56-2.2-18.83-.51,7.31-.95,14.65-1.67,21.95-.6-7.5-1.09-15-1.74-22.49-.9,6.73-1.35,13.52-2.21,20.27-.91-5.06-1.6-10.14-2.7-15.15-.48,3.07-1.42,9.21-1.9,12.3-.89-7.33-1.43-14.71-1.9-22.08-.82,9.72-1.48,19.45-2.21,29.18-1.73-12.66-1.17-25.49-2.7-38.16-.55,10.38-.98,20.77-1.99,31.13-.57-6.18-1.1-12.37-1.7-18.53-.6,6.13-.96,12.27-1.38,18.43-.79-5.36-1.39-10.76-2.26-16.1-.92,5.03-1.6,10.08-2.37,15.14-1.05-9.04-1.1-18.17-1.7-27.25-.91,9.75-1.51,19.53-2.53,29.27-.88-10.4-1.66-20.8-2.23-31.21-.55,6.72-1.12,13.44-1.86,20.15-.92-4.27-1.71-8.58-2.29-12.9-.83,5.31-1.93,10.58-2.94,15.86-.23-2.77-.71-8.28-.95-11.05-.59,4.06-1.15,8.12-1.71,12.2-1.79-11.36-1.99-22.87-2.37-34.34-.76,10.7-1.45,21.4-2,32.12-.8-8.72-1.56-17.44-2.34-26.15-1.49,9.3-1.88,18.72-2.91,28.08-.3-15.09-1.34-30.16-3.02-45.15-.23,12.1-.38,24.22-1.01,36.32-1.84-11.01-1.37-22.26-2.04-33.36-.33,11.74-.38,23.48-.68,35.22-1.22-10.04-2.07-20.12-3.23-30.17-.89,7.33-1.49,14.69-2.07,22.07-.38-12.04-1.02-24.08-2.08-36.07-.36,15.74-.32,31.49-.67,47.24-.83-9.76-1.74-19.5-3.35-29.16-1.26,10.69-1.51,21.46-1.97,32.2-.45-18.17-1.05-36.32-2.05-54.46-.49,17.46-.25,34.94-.73,52.4-2.98-22.38.05-45.18-4.42-67.4-.23,14.07-.25,28.15-.83,42.21-.7-20.18-1.18-40.36-2-60.54-.63,17.13-.37,34.29-.93,51.43-1.81-18.11-2.75-36.29-3.19-54.49-.41,14.09-.24,28.32-3.08,42.2-.77-22.49.28-45.01-.99-67.48-1.03,25.24.41,50.5-.94,75.73-.94-15.12-.97-30.35-2.94-45.39-.49,13.18-.51,26.4-1.45,39.58-4.15-25.8-.77-52.05-2.73-78.01-1.19,24.5,1.02,49.15-1.97,73.55-.3-5.65-.62-11.3-.92-16.94-.33,3.99-.66,7.98-.96,11.98-.29-2.73-.88-8.18-1.16-10.92-.37,3.32-.78,6.6-1.1,9.95-.34-6.03-.67-12.06-1.02-18.08-.29,12.77-.37,25.55-.76,38.32-.59-11.08-1.12-22.18-2.18-33.23-.35,12.08-.43,24.17-.65,36.25-.92-2.26-1.83-4.54-2.73-6.81-.04,4.23-.08,8.48-.11,12.72-.46-1.39-1.4-4.18-1.87-5.58-.23,6.28-.45,12.57-.71,18.87-.33-12.45-.49-24.89-1.01-37.33-.7,18.22.45,36.53-1.73,54.68-.66-1.49-1.97-4.49-2.63-5.97-.1,1.93-.31,5.8-.41,7.73-.7-6.01-1.29-12.01-2.12-18-.46,4.99-.79,9.98-1.15,14.98-.57-3.95-1.12-7.9-1.66-11.85-.52,1.57-1.04,3.12-1.56,4.7-.54-7.96-.9-15.92-1.82-23.85-.49,6.03-.99,12.05-1.56,18.08-.78-6.73-1.14-13.51-1.68-20.26-.18,9.39-.43,18.76-.71,28.15-.38-7.03-.75-14.06-1.12-21.1-.37,4.35-.74,8.7-1.09,13.06-.17-2.91-.39-5.93-.51-8.8-1.17,3.31-2.29,6.66-3.63,9.92-.31-11.15-.46-22.3-.8-33.43-1.14,11.07-1.72,22.19-2.11,33.31-1.17-9.98-1.46-20.03-1.61-30.07-.39,1.39-1.18,4.2-1.58,5.61-.42-8.67-.57-17.37-1.73-25.96-.58,11.4-.67,22.8-.95,34.22-.85-8.66-1.59-17.32-2.3-25.98-.24,7.32-.52,14.63-.81,21.95-.31-8.73-.79-17.44-1.08-26.16-.37,9.06-.7,18.14-1.13,27.21-.34-13.11-.38-26.24-.92-39.35-.15,4.49-.23,8.95-.31,13.45-.75-.59-1.48-1.17-2.21-1.75-.17,5.84-.35,11.69-.58,17.54-.37-10.08-.55-20.17-.95-30.25-.37,11.1-.57,22.2-1.02,33.3-.33-11.09-.49-22.18-.94-33.26-.25,8.57-.49,17.14-.6,25.71l-.75-.05c-.18-8.57-.39-17.13-.73-25.7-.26,9.41-.66,18.8-.98,28.21-.24-8.57-.48-17.13-.57-25.71l-.75.05c-.19,8.57-.41,17.13-.76,25.7-.34-9.4-.51-18.79-.73-28.19-.83,7.74-1.39,15.54-3,23.18-.6-10.44-.94-20.87-1.29-31.31-.34,10.76-.6,21.52-1.01,32.27-.4-9.41-.62-18.82-1.05-28.23-.34,9.41-.49,18.83-.81,28.25-.35-2.62-.69-5.23-1.01-7.84-.22,1.17-.43,2.34-.65,3.53-1.38.18-2.75.37-4.12.55-.09,6.96-.17,13.93-.29,20.9-.83-5.28-1.62-10.58-2.35-15.87-.3,5.63-.62,11.27-.94,16.89-.31-9.72-.43-19.45-.75-29.16-1.6,14.72-1.71,29.53-2.03,44.32-.51-7.44-.99-14.86-1.59-22.27-.76,6.38-1.22,12.78-1.81,19.17-.24-14.12-.37-28.27-1.9-42.33-.33,14.48-.31,28.95-.95,43.42-.48-16.15-.26-32.31-1-48.45-3.02,18.69-.63,37.73-1.81,56.56-.52-4.36-1-8.74-1.49-13.08-.7,8.03-1.27,16.06-1.76,24.12-.37-15.48-.71-30.96-1.92-46.4-.45,6.04-.84,12.07-1.27,18.12-.6-21.86.32-43.75-.87-65.6-.49,25.99-.72,51.98-2.09,77.93-1.34-3.92-2.45-7.94-3.46-11.96.14,5.31.29,10.64.43,15.96-1.05-.52-2.1-1.01-3.14-1.52-.45,3.49-.87,6.97-1.32,10.46l-1.7-5.87c-.77,4.27-1.37,8.56-1.93,12.87-.58-7.01-1.09-14.01-1.81-21-.27,4.01-.83,12.02-1.1,16.03-.54-9.71-1.02-19.42-2.06-29.08-.35,8-.61,16.01-.96,24.02-.38-7.76-.65-15.52-1.06-23.27-2.24,7.24-4.2,14.57-6.17,21.89-.74-1.41-1.46-2.83-2.19-4.24-.14,1.42-.28,2.85-.42,4.28-1-5.3-1.97-10.59-3.1-15.85-.48,3.37-.93,6.68-1.36,10.07-.25-4.67-.46-9.35-.67-14-.23,1.72-.7,5.13-.93,6.85-.98-3.66-1.91-7.31-2.92-10.95-.34,2.77-1.03,8.28-1.37,11.04-.29-2.76-.86-8.27-1.14-11.04-.75,5.32-1.28,10.67-1.87,16.01-.62-4.31-1.22-8.64-1.89-12.94-.32,4.01-.96,12.05-1.28,16.06-.27-6.68-.43-13.36-.65-20.02-1,10.37-2.29,20.72-3.24,31.1-.57-7.02-1.03-14.04-1.88-21.02-.46,6.35-.79,12.68-1.17,19.03-.58-8.07-1.01-16.15-1.88-24.2-.47,7.73-.8,15.46-1.21,23.2-.35-10.45-.6-20.89-1.49-31.3-.55,7.05-1.05,14.12-1.51,21.2-.46-10.04-.7-20.11-1.99-30.08-.37,10.68-.55,21.37-.84,32.05-.92-11.04-1.66-22.11-2.27-33.17-.31,13.77-.38,27.54-.89,41.3-1.77-16.08-1.39-32.28-2.15-48.42-.49,13.29-.36,26.58-.34,39.87-.5,0-1.5.01-1.99.01.05-13.64-.01-27.28-.65-40.9-.61,16.77.28,33.65-2.01,50.33-.54-17.45-.16-34.92-1.06-52.34-.55,16.81-.16,33.65-.9,50.47-2.02-21.49-1.08-43.08-2.02-64.62-.63,21.54-.67,43.1-2.2,64.6-.41-16.82-.07-33.65-.92-50.46-.46,12.95-.4,25.91-.37,38.87h-2.06c.05-18.68.34-37.37-.58-56.04-.58,17.87-.06,35.76-1.17,53.63-1.47-10.39-1.32-20.92-1.82-31.37-.29,11.14-.57,22.3-1.6,33.4-1.42-20.38-.78-40.81-.79-61.21h-1.13c.08,16.99.24,33.99-.44,50.97-2.57-19.75-.96-39.71-2.05-59.55-.6,16.5-.33,33.06-2.2,49.47-.81-23.22.34-46.47-.92-69.68-.62,23.22-.77,46.46-2.1,69.66-.41-16.49-.16-33-.87-49.48-1.21,13.77-1.54,27.6-2.12,41.41-.37-14.44-.37-28.88-.71-43.32-.87,10.71-1.65,21.42-2.35,32.15-.43-16.98-.36-33.96-.27-50.94l-1.08.03c-.06,15.92.82,32.01-1.71,47.81-.69-20.13.11-40.3-.75-60.43-1.57,15.43-1.64,30.93-2.21,46.42-.51-17.84-.17-35.69-.89-53.52-1.68,26.05-1.61,52.17-1.46,78.27h-1.1c-.49-24.33,1.55-48.83-1.57-73.05-1.06,25.86.37,51.76-1.03,77.6-.39-14.83-.11-29.7-1.81-44.46-1.12,20.86-.13,41.78-1.15,62.65-1.23-29.28.34-58.6-.96-87.86-3.15,25.47-.39,51.19-2.09,76.75-.46-16.17.03-32.39-1.7-48.49-1.77,25.9.16,51.89-1.39,77.8-1.49-36.86,1.14-73.79-1.38-110.61-.85,7.38-1.03,14.8-1.16,22.22.26,33.67.12,67.34.19,101.01h-1.1c-.2-27.11,1.04-54.28-1.58-81.32-.47,15.82-.65,31.66-2.04,47.44-.39-8.05-.62-16.12-1.03-24.17-1.38,19.11,2.03,38.86-2.91,57.6-.41-7.75-.68-15.51-.98-23.26-.21,3.97-.43,7.95-.64,11.93-.62-1.57-1.22-3.12-1.84-4.69-.01,3.25-.01,6.42,0,9.7-.66-1.19-1.31-2.37-1.97-3.56-.31,2-.93,6-1.24,8-.55-2.97-1.02-6.05-1.5-8.99-.94,3.24-1.88,6.5-2.83,9.76-1.7-.67-3.4-1.33-5.09-1.98-1.4,3-2.87,5.97-4.45,8.89-1.05-3.9-2.08-7.78-3.12-11.67-.38-.09-1.17-.26-1.57-.35-3.17,3.58-6.71,6.9-8.97,11.18-.87.1-2.29.27-3.58.43.09.38.17.76.24,1.14h4.33c.25,2.74.76,8.21,1.01,10.95,2.16-3.39,3.58-7.16,5.04-10.89,1.41,3.48,2.87,6.95,4.42,10.38.66-1.43,1.96-4.3,2.62-5.74.56,3.55,1.1,7.11,1.69,10.67.56-1.54,1.11-3.05,1.67-4.57.16,1.7.49,5.09.67,6.79.58-3.4,1.11-6.82,1.8-10.2,1.43-1.95,2.71-4.1,3.98-6.13.94,3.84,1.7,8.01,4.98,10.58.24,1.34.72,4.04.96,5.39.64-1.09,1.26-2.18,1.9-3.27.15,6.28.28,12.56.47,18.84.36-5.7.7-11.41,1.07-17.09.3,3.98.6,7.97.89,11.97.35-2.73,1.07-8.17,1.42-10.9.2,9.89.17,19.78.22,29.68h.89c.05-11.95.15-23.9.62-35.84,1.89,25.63.65,51.35,2.54,76.98,1.76-16.85.65-33.83,1.54-50.73.78,18.17-.47,36.46,1.86,54.56,1.4-23.22-.14-46.49,1.21-69.71,1.21,26.3-.69,52.67,1.3,78.94,2.88-25.53-.21-51.32,1.78-76.91,1.15,40.38-.51,80.79.84,121.17,3.91-38.57-.2-77.47,2.14-116.13,1.9,35.59-1.95,71.45,2.14,106.91.99-33.27-.63-66.58.9-99.84,1.04,26.05-.28,52.14.84,78.2.9,19.71.15,39.46,1.2,59.18,1.3-46.8-.73-93.62,1.03-140.4.94,23.36-.25,46.75.8,70.1,1,21.39.08,42.83,1.12,64.22,1.41-41.06-.61-82.16,1.07-123.2,2.02,42.39.77,84.83,1.97,127.25,1.29-39.36-.39-78.75.89-118.11,3.74,31.15,0,62.62,2.23,93.87,1.13-35.34-.49-70.71.83-106.04,3.08,45.39.39,90.92,2.11,136.35,1.43-42.78-.68-85.59,1.11-128.36,3.4,24.42-.04,49.25,1.92,73.8,1.1-24.26-.3-48.55,1.07-72.8,1.68,7.82,1.4,15.86,1.51,23.82-.06,20.37-.56,40.74.44,61.1,1.38-26.05-.86-52.19,1.47-78.2.83,5.13,1.19,10.3,1.76,15.48.33-6.38.64-12.75,1.02-19.11,1.74,16.61,1.29,33.34,1.22,50.01h1.01c-.21-26.11.69-52.18,1.71-78.26.38,13.45.35,26.9.97,40.35.28-12.13.29-24.3,1.73-36.37,1.16,19.52.21,39.09,1.32,58.61.64-18.5.07-37.03.88-55.52.56,10.71.66,21.48,2.21,32.13.31-13.08.33-26.17.8-39.23.92,12.07,1.6,24.16,1.89,36.26.69-7.98,1.31-15.96,2.24-23.92.34,5.64.67,11.29,1,16.93.57-9.03.94-18.06,2.02-27.05.37,9,.62,18.02,1.03,27.04.39-8.05.6-16.12.98-24.17.36,6.01.66,12.03,1.02,18.05.67-7.65,1.28-15.31,1.81-22.97.71,5.3,1.4,10.63,2.16,15.94.35-5.71.66-11.42,1-17.1.3,2.62.62,5.24.91,7.88.68-4.66,1.31-9.3,2.04-13.94.46,10.44.72,20.87,1.21,31.31,1.34-10.38,1.51-20.84,1.99-31.28.3,7.38.58,14.75.87,22.14.54-7.54,1.06-15.06,1.78-22.57,1.04,11.52.96,23.11,1.15,34.66.64-10.4,1.23-20.79,2.16-31.16.31,7.01.64,14.03.95,21.07.68-5.68,1.24-11.35,2.06-16.99.41,9.03.66,18.07,1.01,27.12.51-8.07,1.03-16.14,1.84-24.19.51,7.74.96,15.48,1.46,23.23,1.38-7.98,1.35-16.11,1.8-24.18.6,5.68,1.19,11.36,1.97,17.01.42-8.03.68-16.08.99-24.12.7,6.01,1.2,12.05,2.11,18.04.47-8.36.64-16.76.98-25.13.51,9.07.75,18.18,1.99,27.2.59-10.07.68-20.17,1.04-30.24.59,12.78,1.25,25.55,2.17,38.31.33-9.75.51-19.51.91-29.25,1.03,11.42,1.64,22.85,2.08,34.31.29-12.09.37-24.21,1.65-36.23.52,7.35.95,14.7,1.39,22.07.43-10.38.51-20.8,2.03-31.1.26,7.99.57,15.99.76,23.99.51-7.16,1.1-14.33,1.74-21.47.61,4.78.99,9.57,1.49,14.38.7-2.94,1.37-5.96,2.09-8.86.25,3.96.51,7.94.76,11.92.35-1.74,1.06-5.2,1.4-6.94,1.33,5.3,2.64,10.63,3.95,15.95.89-7.99,1.48-16.01,1.93-24.05.31,4.33.57,8.65.86,13,.59-6.36,1.12-12.7,1.85-19.01.46,5.68.91,11.37,1.34,17.06.82-6.99,1.48-13.99,2.11-20.99.52,15.78,1.41,31.55,2.67,47.29.89,15.8.52,31.64,1.31,47.45-.39-23.36,1.75-46.56,4.84-69.68.42,3.34.77,6.62,1.18,9.98.33-5.33.69-10.67,1.04-16,.4,12.76.93,25.52,1.97,38.25.38-13.77.43-27.54.85-41.31,3.43,20.35,3.76,40.99,4.2,61.57.46-12.12.64-24.3,2.74-36.28.41,7.01.77,14.02,1.1,21.04.52-8.03,1.1-16.04,1.99-24.04.6,12.41.74,24.82,1.14,37.24,1.19-13.75,1.7-27.55,2.21-41.34.33,14.79.32,29.59.86,44.39.51-8.55.84-17.1,1.56-25.63.69,6.14,1.03,12.3,1.57,18.48.75-5.31,1.45-10.63,2.18-15.93.18,15.45.11,30.9.84,46.34.7-19.54.07-39.09.9-58.63,1.55,7.24,2.29,14.62,3.11,21.97.3-1.65.93-4.93,1.23-6.58.21,2.97.63,8.91.83,11.88.39-9.41.79-18.8,1.51-28.19.54,5.32,1.01,10.67,1.49,16.01.28-4,.85-12.01,1.14-16.01.3,8.39.51,16.77.81,25.17.72-12.46,1.84-24.87,3.18-37.28,1.06,9.03,1.63,18.1,2.68,27.14,1.81-8.59,3-17.27,3.3-26.04.68,4.22,1.35,8.47,2.03,12.7.58-6.96.96-13.91,1.83-20.83.43,6,.82,12.01,1.26,18.03.31-7.73.57-15.45.92-23.16.36,6.03.69,12.07,1.06,18.12.84-3.94,1.56-7.92,2.24-11.88.8,10.68,1.28,21.37,1.89,32.06.29-12.79.28-25.6,1.45-38.35.32,4.03.99,12.07,1.31,16.09,1.56-7.07,3-14.18,5.22-21.08,1.02,4.29,2,8.59,2.98,12.9.65-3.93,1.27-7.86,1.99-11.77.81,3.55,1.49,7.09,2.18,10.68.08-1.35.26-4.06.34-5.42.96.99,1.91,1.99,2.87,3,.64-3.1,1.26-6.26,1.94-9.35,1,8,1.34,16.04,1.93,24.08.33-8.05.6-16.11,1.02-24.15.35,13.43.31,26.86.8,40.3,1.07-8.39,1.81-16.81,3-25.17,1.94,15.74,1.49,31.62,2.08,47.44.49-13.46.43-26.96,2.04-40.35,2.77,24.45.76,49.09,1.83,73.62,2.83-21.75.96-43.71,2.24-65.56.71,15.63,1.07,31.28,2.64,46.86.8-8.16.9-16.38,1.24-24.56.31,1.72.93,5.16,1.23,6.88.4-2.93.65-6.04,1.08-8.9.32,4.66.6,9.3.92,13.99.4-7.77.8-15.53,1.35-23.28,1.34,14.8,1.11,29.68,1.59,44.52.38-10.75.64-21.51.98-32.25.83,10.39,1.73,20.79,3.21,31.12.26-20.52.81-41.05,3.1-61.46.36,17.83.07,35.67.81,53.49.7-11.16-.75-23,3.94-33.47.42,7.09.81,14.2,1.15,21.3,1.46-14.06,1.51-28.22,2.08-42.33.35,12.78.4,25.57.69,38.35.42-2.65.85-5.28,1.26-7.92.31,2.72.92,8.16,1.22,10.88.45-20.84-.15-41.7.71-62.53.7,15.15,1.03,30.35,3.02,45.41.64-11.74.6-23.51.9-35.25.6,9.33,1.07,18.71,2.22,28.01,1.07-14.4,1.48-28.83,2.05-43.25,1.31,13.78,1.52,27.61,2.15,41.43.88-8.04,1.4-16.13,2.06-24.19,1.28,13.05,1.88,26.17,2.93,39.25.62-20.49-.42-41.06,1.89-61.47.58,17.13.32,34.29,1.03,51.43.25-9.02.42-18.03.57-27.06.45,1.39,1.32,4.16,1.77,5.55.26-4.59.52-9.18.81-13.76.78,5.62,1.4,11.24,2.08,16.88.4-7.68.79-15.36,1.49-23,.48,7.05.94,14.1,1.38,21.17,1.34-10.72,2.42-21.46,3.1-32.24.33,12.75.7,25.52,1.87,38.23.83-12.06,1.48-24.15,2.15-36.22.52,9.76.86,19.55,2.01,29.26.65-11.77,1.22-23.54,2.05-35.3.45,11.03.61,22.1,1.88,33.08.57-6.69,1.11-13.38,1.88-20.04,1.03,4.63,1.81,9.3,2.34,14.02.52-5.68.98-11.35,1.77-16.98.82,6.68,1.48,13.38,2.12,20.08.62-6.31,1.23-12.61,2.04-18.88.46,4.64.94,9.26,1.48,13.92,1.28-7.01,2.18-14.08,3-21.15.51,6.02.92,12.03,1.35,18.06,1.27-3.19,2.42-6.46,3.62-9.68.34,3.31.63,6.5,1.05,9.85,1.02-7.43,2.05-14.84,2.85-22.3.17,9.82.42,19.63.93,29.44,1.62-6.68,2.24-13.55,3.27-20.33.71,2.96,1.39,5.88,2.14,8.86.65-5.98,1.08-11.98,1.6-17.96.61,7.71,1.21,15.42,1.94,23.11.6-6.38,1.13-12.76,1.82-19.12.68,3.99,1.31,7.99,1.98,11.99.75-2.64,1.53-5.26,2.31-7.88.9,3.58,1.61,7.17,2.35,10.79,1-6.22,1.92-12.46,2.82-18.69.45,4.69.86,9.36,1.33,14.07,1.3-5.29,1.92-10.74,2.75-16.12.43,5.96.87,11.94,1.46,17.9.89-3.59,1.64-7.21,2.39-10.82.69,4.3,1.35,8.62,2.23,12.89.82-4.96,1.3-9.99,1.94-14.96,1.04,10.3,2.33,20.59,3.77,30.85,1.09,15.73.52,31.51.52,47.27l.98-.04c.04-11.95.16-23.88.68-35.82.41,11.43.55,22.87,1.1,34.3.28-14.13.04-28.3,1.63-42.37,1.06,14.75,1.69,29.51,2,44.29.73-7.32,1.37-14.63,2.39-21.9.45,14.09.22,28.25,2,42.27.51-20.88,1.01-41.74,1.96-62.61.48,15.45.4,30.9.88,46.36.3-8.73.78-17.43,1.06-26.15.24,4.02.74,12.06.99,16.08.4-2.66.81-5.3,1.21-7.94.49,6.85,1.02,13.69,1.69,20.55,1.25-6.46,1.66-13.04,2.39-19.55.37,3.32.62,6.57.98,9.93.28-6.02.52-12.04.79-18.04.41,7.01.84,14.04,1.28,21.08.31-11.76.36-23.53.81-35.27.2,3.14.29,6.22.48,9.4.68-.59,1.35-1.17,2.03-1.75.11,9.88.19,19.79,1.34,29.62.57-11.12.86-22.27,1.59-33.38,1.22,8.72,1.25,17.54,1.84,26.32.29-15.14.7-30.29,1.94-45.39.84,4.96,1.45,9.93,2.19,14.92.05-1.95.14-5.83.19-7.77.36.81,1.09,2.42,1.45,3.23,1.34-4.14,2.68-8.3,4.01-12.44,2.33,13.32,1.6,26.93,2.2,40.39.92-5.99,1.51-12.04,2.19-18.05.28,6.36.52,12.71.86,19.07,1.57-16.49,1.2-33.14,3.82-49.52,1.49,7.35,2.3,14.82,3.34,22.25,2.01-7.31,3.31-14.81,4.85-22.23.56,10.77.94,21.57,1.96,32.32,2.02-14.75,3.92-29.51,4.33-44.4,1.4,8.53,1.82,17.17,2.52,25.78.61-.05,1.81-.14,2.42-.19.66-4.63,1.3-9.25,2.27-13.82,3.56,12.77,1.66,26.14,3.48,39.15.92,7.56,1.87,15.1,2.42,22.71.23-12.08.39-24.17.93-36.24.48,17.15.64,34.32,2.04,51.43.76-20.52-.24-41.06,1.07-61.56,2.01,13.01,1.21,26.25,1.94,39.36.96-7.35,1.48-14.73,2.2-22.08.38,20.5-.22,41.02.84,61.52.94-23.21-.23-46.44.82-69.64,1.6,26.22,1.24,52.49,2.19,78.73,1.17-34.65-.4-69.33.83-103.98,2.8,36.29.59,72.7,2.24,109.02,1.16-37.02-.55-74.07.87-111.09,1,26.25,1.21,52.52,2.1,78.76.99-20.51-.75-41.15,1.82-61.56,1.7,34.3-.49,68.67,1.27,102.98,1.54-29.27-1.48-58.68,1.73-87.86,1.32,24.38.38,48.81.61,73.21h1.1c-.52-33.51.48-67,1.6-100.49.9,39.56.12,79.14.34,118.7l.99-.03c.55-33.16.92-66.32,1.7-99.47,1.08,28.26-.38,56.56.88,84.81,3.84-41.61-.22-83.52,2.15-125.23,1.22,40.06-.59,80.15.94,120.19,2.84-35.62.4-71.39,2.02-107.05,1.34,34.32-.57,68.68,1.07,103,1.74-9.83,1.4-19.85,1.51-29.77-.14-21.89-.16-43.79-.14-65.67l1.03.03c-.1,14.62-.41,29.31,1.36,43.86,1.05-19.17.33-38.36,1.26-57.52,1.36,31.34-.82,62.74,1.29,94.06,2.62-27.58.07-55.3,1.68-82.93.59,16.83.44,33.7,2.15,50.47.47-17.5.16-35.01.89-52.49.66,16.8,1.23,33.62,2.05,50.42.67-18.83.21-37.68.9-56.53.8,8.39,1.42,16.78,2.15,25.17.3-8.7.57-17.41.94-26.11.89,12.76,1.53,25.52,2.16,38.3.33-9.75.47-19.5.84-29.23.56,11.38,1.1,22.77,2.11,34.13.3-5.65.59-11.27.89-16.9.39,4.04,1.18,12.11,1.59,16.15,1.13-11.76,1.11-23.6,1.57-35.39.35,10.43.59,20.88,1.79,31.26.43-6.35.71-12.7,1.01-19.03.63,4.63,1.26,9.29,1.96,13.92.83-2.26,1.66-4.53,2.48-6.78.42,6.96.78,13.95,1.41,20.92.18-2.55.53-7.62.72-10.15.64.39,1.28.8,1.93,1.21.35-1.27.73-2.55,1.1-3.81.24,5.95.47,11.9.75,17.86.81-8.05,1.43-16.12,2.11-24.19.56,3.9,1.02,7.79,1.47,11.72.7-1.12,1.39-2.23,2.11-3.34.56,4.9.83,9.81,1.27,14.74.53-2.71,1.07-5.42,1.63-8.12.69,3.03,1.11,5.95,1.83,9.03.08-4.96.1-9.94.19-14.89.58,1.57,1.13,3.13,1.72,4.72.75-6.62,1.24-13.27,1.86-19.89.38,5,.69,9.97,1.1,14.98.95-6.29,1.41-12.65,2-18.97.25,7.03.55,14.06.87,21.1.69-11.43,1.33-22.85,1.89-34.28.65,5.01,1.21,10.02,1.91,15.02.57-4.38,1.13-8.74,1.71-13.1.87,7.03,1.13,14.12,1.68,21.2.25-7.36.48-14.72.77-22.07.97,8,1.69,16.03,2.31,24.08.28-8.03.37-16.06.67-24.08.83,7.33,1.59,14.66,2.32,22,.24-10.39.41-20.76.78-31.14.9,8.36,1.65,16.74,2.23,25.14.26-9.06.47-18.12.77-27.18.61,6.69,1.12,13.4,1.9,20.08.46-7.39.85-14.76,1.27-22.12.66,8.36,1.3,16.7,2.16,25.05.29-8.01.48-16.02.81-24.02.71,8,1.29,16.01,2.12,24.01.3-7.33.58-14.66.91-21.97.74,7.33,1.32,14.7,2.03,22.05.39-5.33.82-10.66,1.27-15.98.76,5.96,1.19,11.94,1.73,17.93.55-2.72,1.41-5.23,2.07-7.89.13,2.75.4,8.24.53,11,.64-1.58,1.27-3.14,1.93-4.71-.06,2.8-.18,8.41-.23,11.2.78-.57,1.57-1.12,2.36-1.67.12,2.78.26,5.58.42,8.36.55-4.46,1.05-8.95,1.67-13.39.47,4.36.72,8.73.99,13.13.64-1.14,1.27-2.28,1.93-3.42-.25,21.78.27,43.56,1.56,65.3.52-17.14.24-34.31,1.06-51.43.8,20.17-.09,40.36.81,60.54,1.25-22.85,1.31-45.76,2.23-68.62.86,38.21.1,76.43.32,114.65l.99-.03c-.07-29.29,1.6-58.55,1.04-87.85h1.06c.27,30.45-.71,60.94.55,91.39.67-29.96.35-59.94,2.07-89.88.89,32.48.14,64.97.34,97.46h1.1c-.1-17-.21-34.01.41-50.99.47,4.68.79,9.33,1.21,14.04.47-8.38.82-16.76,1.48-25.12.73,7.01,1.39,14.05,2.18,21.08.48-5.33.95-10.66,1.39-15.98.38,13.59.36,27.2.33,40.81h.97c-.14-22.73.68-45.45,1.66-68.15.38,14.12.41,28.27.94,42.4,2.96-25.16.48-50.52,2.04-75.75.97,25.74.23,51.51.42,77.26h1.06c-.31-30.49.63-60.95,1.63-91.41.96,24.57-.33,49.17.99,73.73.58-31.64.43-63.29,1.92-94.91.53,13.75.57,27.51.88,41.28.94-12.07,1.63-24.16,2.22-36.24.39,7.75.76,15.5,1.3,23.26,1.32-9,1.03-18.14,1.41-27.19.3,1.45.92,4.32,1.22,5.77.51-2.27,1.03-4.54,1.57-6.79.69,7.33,1.09,14.69,1.64,22.04.77-8.04,1.37-16.1,2.07-24.15.3,6.69.47,13.38.76,20.07.59-7,1.04-14.01,1.86-20.98.19,1.63.58,4.89.77,6.53.88-1.88,1.79-3.74,2.73-5.59.24,7.7.43,15.4.71,23.1,1.9-10.32,3.57-20.69,4.28-31.18.57,7.05,1.09,14.11,1.84,21.15,1.11-2.66,1.78-5.54,3.02-8.11,1.36,6.27,1.64,12.69,2.11,19.08.28-2.74.83-8.2,1.1-10.94.23,4.33.36,8.66.59,13.01.39-1.58.79-3.15,1.19-4.72.77,2.89,1.55,5.78,2.35,8.67.14-4.62.21-9.24.34-13.84,1.22,4.88,2.61,9.78,5.24,14.11,1.11-3.22,1.74-6.61,2.53-9.91.51,5.22,1.1,10.43,1.78,15.64.33-5.64.67-11.26,1-16.87.35,10.4.6,20.81,1.01,31.22.76-9.04,1.35-18.1,1.95-27.16.36,4.02,1.09,12.07,1.46,16.1.86-6.71,1.3-13.48,1.94-20.2,1.2,13.07,1.24,26.21,1.85,39.31.33-13.12.37-26.25.81-39.36.27,2.96.24,5.78.6,8.79.68-1.15,1.35-2.31,2.05-3.46.2,31.22-.85,62.46.57,93.65,1.38-35.83-1.43-71.79,2.54-107.5.75,7.7.89,15.44.99,23.17-.27,38.72-.09,77.45-.18,116.17h1.09c.23-45.61-.64-91.23.39-136.82.38,8.72.82,17.44,1.18,26.18.35-9.42.61-18.83,1.09-28.23.83,23.21-.35,46.45.98,69.66.49-13.42.33-26.85.55-40.27.55,2.23,1.11,4.49,1.7,6.76.13-10.37.23-20.73.6-31.08.26,8.76.7,17.51,1.12,26.28,2.23-5.8,2.57-12.03,3.41-18.1.15,25.7.01,51.41.02,77.14h1.08c.05-20.21-.06-40.41-.13-60.61.06-11.6-.07-23.39,2.94-34.68.4,19.78-.13,39.57.56,59.36.8-17.84,2.35-35.63,3.35-53.45,1.42,10.68,1.41,21.47,1.77,32.23.41-8.78.97-17.54,1.63-26.29.77,8.07,1.11,16.17,1.56,24.28.56-10.76,1.24-21.52,2.78-32.2.63,10.03.92,20.11,2.35,30.09.56-12.73-.3-25.7,2.83-38.16.56,13.75.57,27.52.97,41.29.58-13.11,1.13-26.22,2.24-39.28.29,6.35.46,12.7.74,19.06.27-2.73.82-8.19,1.09-10.92.32,1.7.97,5.1,1.29,6.81.35-4.99.62-10,.99-14.97,1.15,13.42,1.39,26.88,1.84,40.34.38-13.17.58-26.4,2.69-39.44.62,10.46.96,20.92,1.4,31.39.64-10.16.89-20.54,3.96-30.34.35,5.73.72,11.45,1.07,17.18.41-6.04.8-12.08,1.28-18.11.94,9.03,1.29,18.11,1.86,27.18.25-10.75.42-21.5.79-32.24.45,3.34.7,6.63,1.18,10,.41-3.29.65-6.67,1.11-9.93.24,13.74.27,27.5.71,41.25.75-18.49,1.75-36.96,3.17-55.39.56,11.75,1.23,23.5,2.08,35.24.96-8.01,1.54-16.07,1.84-24.14.29,1.73.88,5.17,1.17,6.9.35-2.64.71-5.27,1.07-7.89.35,3.33.51,6.59.9,9.96.47-2.96.61-6.07,1.2-8.97.21,7.36.38,14.71.59,22.07.86-6.45,1.28-13.02,3.41-19.22,1.62,7.61,1.26,15.44,1.62,23.18.82-7.45.85-15.11,3.42-22.23.58,1.49,1.73,4.5,2.29,5.99.04-4.57.01-9.16.06-13.72,1.04,4.28,2.09,8.62,3.26,12.89.49-3.04,1.47-9.11,1.97-12.15.77,8.41.95,16.84,1.38,25.28.43-10.45.47-20.99,2.84-31.24.43,7.72.77,15.44,1.12,23.18,1.07-8,2.27-15.98,3.22-23.99.4,5.73.85,11.47,1.33,17.2,1.32-3.98,2.19-8.09,3.06-12.18-.11,2.39-.2,4.8-.27,7.21.78-.6,1.57-1.18,2.36-1.76.15,1.85.47,5.54.62,7.39.32-4.99.45-10,.71-14.97.64,3.4,1.09,6.8,1.7,10.23,1.33-3.6,2.17-7.36,3.09-11.06-.14,5.16-.24,10.33-.29,15.51.48-.96.97-1.91,1.46-2.85.6.91,1.19,1.82,1.81,2.74.08-4.84.11-9.69.23-14.51.16,1.52.47,4.59.63,6.11.7-.51,1.4-1.01,2.13-1.52.13,2.75.29,5.51.47,8.27.33-5.31.65-10.63.96-15.93.47,5.42.97,10.86,1.48,16.31,1.3-3.26,2.18-6.67,3.17-10.02-.14,16.1.41,32.22,2.15,48.24.7-12.11.91-24.25,1.24-36.37,2.46,18.05,2.73,36.27,3.19,54.46.38-12.27.45-24.55.46-36.82l1-.05c.06,21.99-.13,44-.04,65.99.51-1.4,1.52-4.2,2.02-5.61-.04,14.05-.06,28.11.57,42.15,2.41-27.53.8-55.18,1.88-82.76,1.07,14.77,1.72,29.55,2.07,44.36.43-5.71.85-11.41,1.32-17.08.27,16.47.07,32.96.83,49.42.62-20.19,1.1-40.38,1.83-60.56.41,3.97.83,7.96,1.26,11.95.25-10.4.56-20.78.92-31.17,2.14,25.36,1.32,50.82,1.4,76.24h1.12c.54-24.72-1.89-49.71,2.31-74.22.47,7.71.89,15.44,1.29,23.17.53-10.76.99-21.53,2.13-32.26.39,16.83.06,33.66.88,50.48.57-17.83.16-35.68.99-53.51.41,8.4.58,16.79.92,25.21.73-7.3,1.48-14.6,2.49-21.87.67,1.11,1.34,2.23,2.04,3.35.21-9.95.52-19.91,1.76-29.79.8,23.5-.45,47.04.93,70.54,1.01-26.91-.31-53.87.79-80.78.62,7.74,1.08,15.49,1.87,23.22.53-4.03,1.09-8.06,1.66-12.07.86,7,1.16,14.05,1.75,21.11.27-5.68.53-11.35.85-17,.84,8.67,1.47,17.36,2.18,26.05.19-13.09.09-26.24,1.79-39.25.52,9.69.62,19.4.91,29.11,3.46-9.94,3.58-20.52,4.15-30.89.18,1.14.35,2.3.58,3.46,1.4.21,2.83.36,4.24.59.01,1.65.03,4.94.03,6.59,1.31-5.07,2.65-10.14,4.28-15.12.88,3.65,1.61,7.3,2.38,11,.08-1.66.25-4.97.33-6.63.56,1.56,1.12,3.11,1.7,4.67.19-1.71.6-5.11.79-6.82.23,2.62.47,5.24.72,7.88.25-1.4.75-4.21,1-5.62.39,1.37,1.19,4.11,1.6,5.48.17-4.26.37-8.53.6-12.79.37,4,.76,8,1.16,12.02.29-3.31.39-6.69.78-9.97,2.27,10.96,3.93,22,4.34,33.22,0-8.73.59-17.44.66-26.15.69,13.78,1.86,27.55,3.32,41.28.29-9.1.63-18.2,1.2-27.28,2.04,17.09.88,34.38,1.56,51.55.67-9.06,1.3-18.12,2.14-27.17.68,6.98,1.34,13.98,1.95,20.98.64-7.38,1.2-14.73,2.22-22.05.57,15.62-.01,31.34,2.52,46.83,1.96-12.12,2.01-24.42,2.2-36.65.34,2.74,1.02,8.2,1.36,10.94.4-4.67.71-9.35,1.12-13.99.33,15.96.25,31.95.2,47.92h1.1c-.03-20.35-.29-40.7.32-61.05.94,12.43,2.4,24.8,3.26,37.23.1-17.85,1.99-35.59,3.17-53.37.31,12.33.46,24.66,1.17,36.99.62-1.08,1.23-2.14,1.87-3.21.35,1.42.73,2.86,1.12,4.29.13-7.99.38-15.97.61-23.94.31,8.72.8,17.43,1.15,26.16,1.43-14.41,1.47-28.9,1.95-43.35.53,10.77.78,21.59,2.19,32.31,1.93-15.07,1.13-30.31,1.9-45.45.27,8.06.66,16.11.96,24.18.18-8.73.79-17.44,1.04-26.17.85,20.52.02,41.06.98,61.58,2.18-19.61,1.38-39.37,1.45-59.06l.99-.06c.03,18.4-.08,36.88,2.67,55.11.62-15.81.43-31.65,1.95-47.41,2.6,16.85.61,33.97,2.66,50.87,2.22-23.31-.12-46.76,1.3-70.1.37,8.72.8,17.43,1.16,26.16.4-6.36.74-12.75,1.15-19.11.3,16.14.12,32.3.94,48.43,1.9-15.35.99-30.89,2.92-46.24,2.39,22.08.84,44.31,2.04,66.46.93-22.54-.04-45.11.92-67.65.43,4.67.7,9.33,1.09,14.01.34-7.01.68-14.02,1.07-21.01,1.11,21.11-1,42.4,2.05,63.4.72-17.6-.21-35.32,2.62-52.77,1.23,16.26.63,32.59,1.37,48.88.51-14.43.42-28.86.59-43.29.55,2.21,1.11,4.42,1.71,6.67.22-5.64.48-11.26.79-16.87.46,22.53.59,45.07,1.95,67.58.47-23.56.08-47.19,3.22-70.6.6,22.54-.31,45.09.85,67.61.65-24.58,1.89-49.13,3.04-73.69,1.17,21.19,1.19,42.41,2.04,63.61.8-19.65-.34-39.35,1.27-58.97,4.04,16.29,1.38,33.33,2.67,49.92,2.09-17.81.83-35.79,2.83-53.61,1.41,17.8,1.63,35.65,2.16,53.51.94-17.51,1.16-35.06,2.84-52.51.94,17.25.36,34.54,1.71,51.77,2.32-18.46,1.67-37.15,2.55-55.7.67,17.8,1.23,35.61,2.04,53.41.57-18.14.93-36.29,2.04-54.4.28,12.24.49,24.5,1.57,36.71,1.31-11.23,1.52-22.58,3.43-33.74.46,10.75.64,21.51,1.01,32.28.82-9.36,1.83-18.71,3.14-28.01.51,7.31,1.01,14.64,1.69,21.94.74-9.09,1.42-18.2,3.17-27.16.7,8.67,1.12,17.38,2.34,26.01.27-8.33.36-16.65.6-24.96,1.1,5.29,2.3,10.56,3.38,15.85.58-6.6,1.22-13.17,1.86-19.76.67,9.01,1.32,18.06,3.16,26.94.29-8.72.48-17.43.75-26.14.67,4.66,1.24,9.32,1.96,13.99,1.53-3.43,2.69-7.02,3.88-10.58-.21,11.64-.16,23.29.17,34.94.65-2.96.81-6.08,1.59-8.99.11,16.46-.03,32.92.62,49.37.79-14.14,2.09-28.25,3.29-42.36.73,21.14-.94,42.41,1.73,63.46.44-4.64.81-9.3,1.29-13.92.23,8.36.42,16.72.7,25.08.38-7.03.79-14.06,1.21-21.1.87,16.17,1.05,32.4,2.88,48.51,1.39-27.95-.43-55.94,1.17-83.87,1.06,26.91-.46,53.87.93,80.78.7-19.18.07-38.39,1.08-57.56.88,19.88-1.02,39.99,2.72,59.67.53-4.38.93-8.78,1.47-13.12.17,12.74.23,25.49.7,38.24,3.42-33.89.19-67.99,2.11-101.95.57,17.49.21,35.01,1.09,52.49.54-16.82.12-33.66,1-50.47.91,36.86.09,73.73.32,110.6h1.1c-.1-18.64-.28-37.27.62-55.88.45-16.56-.15-33.18,1.67-49.68,1.29,19.2-.39,38.52,2.08,57.65,1.65-29.95-.22-59.97,1.07-89.94,3.37,19.98,1.57,40.36,4.3,60.39.37-16.1.15-32.23.95-48.32,1.8,14.75,1.31,29.66,2,44.49,2.48-18.44.56-37.15,2.98-55.59.46,6.44.81,12.86,1.32,19.31,1.86-5.9,2.27-12.1,2.96-18.22.21,3.97.44,7.94.71,11.92.83-9.11,1.88-18.2,3.47-27.22.82,6.69,1.12,13.42,1.65,20.14.66-8.03,1.49-16.04,2.83-23.99.28,1.95.84,5.85,1.12,7.81.68-3.61,1.41-7.19,2.16-10.77.11,2.64.23,5.28.36,7.93.91-.36,1.83-.73,2.77-1.08.41,1.27.84,2.55,1.28,3.83,1.04-3.14,1.8-6.38,2.74-9.56.56,3.89,1.13,7.79,1.78,11.68.32-5.66.66-11.32,1-16.96.36,5.33.77,10.68,1.21,16.02.29-4.69.49-9.39.83-14.05.62,3.05.71,5.94,1.47,9.05.66-2.93.93-5.98,1.68-8.89,1.06,3.24,2,6.46,3.05,9.72.63-2.93.65-6.04,1.51-8.91,1.85,7.61,2.78,15.38,3.7,23.15.3-3.99.64-7.97,1-11.95.04,7.07.05,14.15.08,21.25.77-.43,1.56-.85,2.35-1.27.69,7.1,1.06,14.2,1.62,21.33.22-14.8.17-29.61.87-44.39.96,20.83-.78,41.8,1.76,62.55.42-6.02.77-12.04,1.18-18.05.46,3.34.66,6.61,1.19,9.98.3-7.72.57-15.43.95-23.14.33,11.43.46,22.86.96,34.29.37-9.75.57-19.5,1.02-29.24.41,14.12.41,28.27.69,42.4.53-2.67,1.06-5.32,1.62-7.97.17,14.6.09,29.21.07,43.82h1.08c.22-28.77-.62-57.57.48-86.33.41,5,.64,9.99,1.03,15.02.39-7.03.77-14.05,1.23-21.08.44,18.5-.06,37.01.85,55.49.69-17.83,1.19-35.66,1.95-53.49.83,6.99,1.45,13.98,2.18,20.99.3-4.3.63-8.6.97-12.89.35,7.72.66,15.44,1.09,23.16.49-18.5-.05-37.03.91-55.51,1.19,29.95-.58,59.94,1.04,89.89,1.01-25.24-.43-50.5.97-75.72.17,4.8.17,9.59.32,14.41.71-.57,1.42-1.12,2.16-1.69.12,7.53.26,15.04.47,22.58.32-10.21.54-20.45,2.08-30.56,1.83,8.7,1.45,17.68,2.06,26.52.76-16.49,1.88-32.96,3.07-49.41.35,12.39.22,24.85,2.03,37.15.36-15.11.52-30.25,1.99-45.3.62,19.52.07,39.06.75,58.58,1.69-18.47,2.71-36.98,3.33-55.51.36,16.48.16,32.98.89,49.45.38-11.5.54-23,1.32-34.47,2.06,10.67,2.28,21.56,2.79,32.4,1.77-18.11,1.62-36.34,3.06-54.46.68,21.21-.17,42.43.92,63.64,3.22-22.7-.09-45.81,3.15-68.53.53,19.15-.13,38.34.97,57.5,3.15-16.33,2.07-33.06,2.94-49.58.79,18.44-.44,37.03,2.08,55.36.46-16.13-.22-32.36,1.87-48.39,1.21,16.5,1.43,33.05,2.19,49.57.4-16.81-.23-33.69,1.63-50.44,1.39,13.72,1.88,27.5,2.29,41.28.41-13.8.48-27.61,1.11-41.4,3.2,13.24,2.38,26.95,2.98,40.45.35-14.15.36-28.39,2.94-42.36.55,10.07.65,20.15,1.06,30.25,1.04-14.11,2.05-28.22,3.07-42.32.33,10.4.57,20.79,1.06,31.19.18-4.96.2-9.93.38-14.87.63,1.17,1.26,2.35,1.92,3.54.34-3.24.35-6.6.85-9.81.25,11.75.27,23.5.65,35.25.6-15.14,1.56-30.27,3.36-45.32.27,10.09.42,20.2.9,30.29,2.05-11.35,2.06-22.93,3.11-34.38.29,14.47.31,28.93.77,43.4,1.29-14.45,2.59-28.89,3.29-43.38.23,14.47.18,28.93.86,43.39,2.44-11.94,2.46-24.19,2.98-36.3.4,7.39.81,14.79,1.34,22.2,1.19-6.69,2.12-13.41,2.98-20.14.23,7.74.52,15.49.95,23.24,1.11-6.11,1.99-12.27,3.42-18.33.31,3.01.94,9.03,1.26,12.04.95-5.68,1.98-11.35,3.04-17,.77,4.34,1.51,8.72,2.44,13.05.84-4.97,1.32-10,2.03-14.99.23,6.66.37,13.31.66,19.97,1.07-5.64,2-11.3,3.1-16.94.37,4.65.65,9.27,1.05,13.94,1.14-6.96,2.27-13.92,3.27-20.9.13,14.69.29,29.41,1.84,44.04.39-14.41.89-28.81,2.01-43.18.51,21.17.32,42.36,1.98,63.49,1.27-13.73,1.53-27.52,2-41.28,1.23,11.37,1.6,22.79,2.18,34.22.98-10.72,1.43-21.48,2.03-32.23,1.21,31.45-1.15,62.97,1.35,94.36,3.04-25.28,2.56-50.78,3.57-76.18.65,14.46,1.19,28.92,1.97,43.35.55-8.04.91-16.09,1.89-24.1,1.22,14.75,1.64,29.55,2.23,44.34.8-27.95,1.07-55.89,2.05-83.81.75,19.52-.47,39.16,1.97,58.6.44-12.08.37-24.23,2.08-36.22.73,16.42,1.32,32.83,1.85,49.27,1.35-29.27,1.18-58.56,2.15-87.82.67,19.51.03,39.04.95,58.54,1.75-10.1,1.07-20.56,3.69-30.51,1.19,9.46,1.8,18.97,2.58,28.48.27-15.13.16-30.27.79-45.38.34,10.7.51,21.41.74,32.12.51-2.9,1.49-5.66,2.14-8.52.49,1.48,1.02,2.96,1.56,4.45.1-7.64.17-15.28.3-22.9.71,5.34,1.47,10.71,2.32,16.04,3.27-8.74,6.13-17.66,6.21-27.12.62,5.7,1.28,11.39,2.15,17.06.84-5.01,1.32-10.06,2.03-15.07.47,3.91.95,7.83,1.4,11.75.89-4.22,1.86-8.44,2.88-12.64.6,1.53,1.22,3.05,1.86,4.58-.03-1.62-.07-4.85-.1-6.46,1.9,2.32,3.87,4.6,6,6.73.32-3.33.3-6.75.71-10.06.59,3.2,1.17,6.43,1.81,9.64,1.06-3.29,2.18-6.58,3.41-9.82.73,4.35,1.4,8.73,2.08,13.1.24-2.74.74-8.21.98-10.95.23,5.69.44,11.38.72,17.07.37-1.71,1.13-5.13,1.51-6.84.65,7.3,1.14,14.63,1.7,21.96.32-2.74.98-8.2,1.3-10.93.92,10.72,1.32,21.47,1.9,32.22.23-11.08.37-22.17.79-33.24,1.51,18.12,1.45,36.3,2.22,54.46.43-15.13.22-30.29,1-45.42.46,16.83-.23,33.72,1.57,50.5.7-7.05,1.34-14.09,2.13-21.12.44,7.33.87,14.69,1.31,22.05.38-15.47.34-30.93,1-46.38,1.2,29.61-.55,59.27,1.07,88.88.43-29.96.53-59.93,2.04-89.86,1.11,31.97-.67,63.97.98,95.93.44-27.95.92-55.88,1.96-83.81,1.28,37.69-.56,75.43,1,113.12,1.89-43.08.8-86.21,2.09-129.29,1.09,38.68-.37,77.39.72,116.07.88-9.55,1.82-19.09,1.67-28.69.07-30.31-.08-60.62-.05-90.93h1.09c.31,48.99-.81,97.99.56,146.96,2.51-41.37.45-82.83,2.08-124.22,1.3,40.4-.85,80.86,1.11,121.26,3.26-43.36-.32-86.94,1.9-130.36,1.74,38.39-1.73,76.95,1.89,115.24,1.48-31.66-.55-63.38,1.15-95.04.66,33-.02,66.01,2.01,98.97,1.15-37.68-.46-75.39.83-113.06.58,13.46.52,26.99,2.23,40.38.35-14.49.3-28.99.99-43.46.23,30.47,1.4,60.92,1.4,91.39l1.01.03c.23-32.16-.62-64.33.45-96.48.72,10.76,1.43,21.52,2.3,32.28.28-15.11.14-30.24.68-45.34,1.54,23.85,1.3,47.76,2.17,71.64.56-17.5.27-35.01.93-52.51.32,6.02.55,12.03.86,18.07.57-7.39,1.16-14.76,2-22.11.97,9.05,1.78,18.12,2.35,27.22.32-9.41.52-18.81,1.01-28.21.35,11.77.44,23.54,1,35.31.52-17.48-.08-35.02,1.79-52.42.52,11.02.71,22.1,2.18,33.06.34-7.67.63-15.35,1-23,.34,9.06.6,18.12,1.02,27.19.46-9.06.79-18.12,1.59-27.16.89,4.98,1.68,9.98,2.49,14.99.49-2.95.32-6.07,1.07-8.94.32,4.33.57,8.65.97,13,.52-11.09,1.11-22.18,2-33.24.41,8.44.71,16.87,1.22,25.31.78-3.65,1.22-7.38,1.87-11.04.65,3.01.57,5.84,1.47,8.93.59-6.36,1.03-12.74,1.51-19.11.27,11.05.51,22.11,1.51,33.14.47-3.98.98-7.94,1.49-11.9.46,9.68.71,19.42,2.15,29.03.32-13.41.29-26.82.79-40.22.37,9.56.75,19.11,1.53,28.65.75-4.79,1.11-9.64,1.75-14.43.33,4.66.54,9.3.9,13.98.85-6.67,1.48-13.37,2.14-20.05,1.2,9,1.43,18.06,1.93,27.13.35-8.39.66-16.77,1.33-25.14,7,7.57,3.31,18.73,4.05,27.96,1.12-6.49,2.93-12.82,5.86-18.73.23,4.29.51,8.6.81,12.9.6-8.38,1.17-16.76,1.94-25.13.33,8.7.63,17.42,1.02,26.14.88-9.05,1.6-18.11,2.17-27.19.3,9.73.51,19.47,1.03,29.2.99-10.39,1.43-20.82,1.96-31.24.77,8.39,1.29,16.79,1.98,25.2.36-6.04.7-12.08,1.14-18.1.84,5.98,1.31,11.98,1.95,17.99.27-4.01.82-12.05,1.1-16.07,1.86,11.35,1.26,22.9,1.88,34.35.35-10.78.52-21.56,1.66-32.29.84,7,1.44,14.02,2.37,21.01.36-4.95.66-9.92,1.08-14.86.8,5.62,1.45,11.24,2.21,16.88.11-14.41.11-28.81.6-43.2,1.64,15.27,1.7,30.61,1.62,45.96.45-.02,1.38-.06,1.85-.08.15-8.9.36-17.81.76-26.7.4,14.44.38,28.88.73,43.32,1.45-10.7,2.05-21.49,3.24-32.22.87,8.06,1.47,16.13,2.21,24.22.2-14.48.2-28.95.91-43.41.66,19.85-.02,39.73.9,59.57.47-12.8.66-25.68,3.01-38.32,1.49,38.35-.62,76.76,1.11,115.11.64-22.7.98-45.4,1.78-68.09.24-8.3,1.97-16.45,3.5-24.58.18,12.69.17,25.44,1.8,38.05.58-18.82.1-37.65.93-56.46.44,8.06.69,16.12,1.14,24.2.07-5.8.08-11.61.17-17.4.74.52,1.48,1.05,2.25,1.58.42-9.53.91-19.05,1.47-28.57.41,11.39.53,22.83,2.1,34.15.36-8.02.62-16.04.99-24.05.11,5.62.21,11.24.38,16.88.67-1.17,1.35-2.33,2.06-3.5.19,4.26.43,8.54.7,12.81.23-9.73.42-19.46.71-29.18.61,11.45,1.1,22.95,3.07,34.28.74-15.13-.29-30.5,2.9-45.42,1.38,12.73,1.1,25.76,4.2,38.26.55-9.7.9-19.4,2.05-29.05.31,9.03.62,18.07.91,27.12.91-2.62,1.16-5.4,2.28-7.96.69,5.61,1.36,11.22,2.1,16.83.28-10.67.4-21.36,1.85-31.95.34,7.75.64,15.5,1.16,23.26,3.04-8.4,2.12-17.57,2.71-26.32.55,5.69,1.15,11.4,1.86,17.09.59-10.45.91-20.9,1.44-31.34.34,10.08.48,20.15.92,30.24.29-9.03.43-18.05.62-27.09,1.05,4.33,2.12,8.68,3.45,12.94.32-5.71.68-11.41,1.06-17.1,1.36,21.18,1.21,42.39,1.9,63.59.52-15.05.64-30.11,1.41-45.14.67,1.12,1.35,2.25,2.06,3.38.16-2.55.37-5.08.63-7.61.4,7.17.89,14.34,1.45,21.51.95-9.18,1.13-18.43,1.65-27.64.29,8.45.73,16.88,1.3,25.32.72-7.76,1.23-15.53,1.77-23.3.3,12.46.38,24.96,1.94,37.35.35-13.14.36-26.31,1.73-39.39.85,7.69,1.61,15.39,2.27,23.1.28-4,.85-12.01,1.12-16.01,1.14,28.93,1,57.89,1.97,86.83.77-19.92-.38-39.9,1.38-59.77,2.38,24.9-.09,49.97,1.64,74.92.96-24.9-.27-49.83.87-74.72.41,10.75.68,21.51,1.21,32.27.4-15.14.23-30.29.85-45.42,1.1,11.4,1.52,22.83,1.96,34.28.36-7.05.75-14.09,1.17-21.12.55,11.82,1.14,23.64,2.35,35.42,1.15-13.16,1.11-26.39,1.8-39.56,2.3,17.42.77,35.08,1.84,52.59.72-17.15-.41-34.44,1.94-51.49.38,6.65.39,13.31.6,19.97,1.07-4.7,2.16-9.39,3.53-14,.46,6.74.69,13.49,1.12,20.25.3-9.75.52-19.5,1.02-29.23.37,13.45.32,26.9.86,40.35.36-10.75.58-21.51.92-32.26.53,3.34.67,6.61,1.28,9.99.11-3.97.24-7.93.41-11.88.56,1.54,1.13,3.08,1.73,4.63.3-9.71.58-19.47,2.72-28.98.33,9.22.46,18.46.6,27.69l.89.04c-.07-15.32-.19-30.64,1-45.91.58,2.23,1.19,4.48,1.86,6.74.17-1.94.54-5.81.72-7.74.24,2.72.73,8.17.97,10.9.7-3.97,1.4-7.94,2.15-11.9.74,5.64,1.44,11.3,2,16.96.65-7.66,1.36-15.3,2.19-22.92.23,11.37.31,22.74.55,34.12.73-15.53,3.93-30.79,4.45-46.35.31,6.7.49,13.39.85,20.08.39-4.67.61-9.36,1.01-14.02.57,8.72,1.09,17.47,2.09,26.17.81-11.41,1.34-22.82,1.95-34.23,1.3,11.03,1.55,22.14,2.07,33.23,1.44-11.73,2.36-23.51,3.09-35.3.23,11.13.47,22.28,1.24,33.4,1.33-12.48,1.13-25.07,2.64-37.52.93,9.7,1.6,19.44,1.81,29.19.97-7.99,2.07-15.96,3.3-23.92.23,2.98.71,8.92.95,11.9,1.08-5.31,2.02-10.66,3.09-15.98.45,5,.77,9.99,1.26,15,.89-5.66,1.27-11.4,1.91-17.08,1.4,6.01,2.52,12.07,3.76,18.14.27-8.75.72-17.49.93-26.23.6,9,1.13,18.03,2.13,27.02.34-5.65.71-11.27,1.08-16.9,3.12,7.29,3.94,15.18,4.3,23.04.54-8.02,1.11-16.03,1.64-24.05.23,1.69.7,5.06.93,6.75.38-1.38,1.15-4.15,1.54-5.53.19,2.9.4,5.82.65,8.74.19-1.69.57-5.06.75-6.75.48,1.48.99,2.95,1.52,4.43.76-4.51,1.61-8.99,2.47-13.48.9,3.28,2.02,6.62,3.07,9.88.28-2.8.84-8.4,1.12-11.19,1.23,3.6,2.45,7.16,3.65,10.79.14-4.61.21-9.23.43-13.82,4.18,8.45,3.99,18.01,4.35,27.23.55-9.71,1.19-19.4,2.02-29.08.16,3.12-.01,6.16.3,9.3.65-.61,1.31-1.2,2-1.8.42,3.35.09,6.55.81,9.96,1.23-4.05,2.04-8.21,3.15-12.3.14,1.68.42,5.03.58,6.71.57-2.71,1.17-5.4,1.8-8.1.9,5.02,1.72,10.05,2.44,15.1.73-6.7,1.6-13.39,2.79-20.02.56,3.39.91,6.76,1.31,10.17,1.09-1.28,2.17-2.61,3.44-3.74.69,2.05,1.36,4.13,2.03,6.24.24-1.95.72-5.85.95-7.8,3.45,18.34,1.32,37.15,2.47,55.67.49-6.71.73-13.44,1.21-20.14.24,23.88.56,47.79,1.93,71.65.29-12.47.33-24.93.84-37.38,3.08,7.16,3.44,15.06,3.59,22.75-.38,38.41,1.74,76.78.96,115.19l1.04-.03c-.06-15.26-.07-30.52.7-45.76.71-21.61-.21-43.24.92-64.83.42,14.47.4,28.95.95,43.41.4-12.46.57-24.9,1.01-37.35.87,8.4,1.49,16.8,2.28,25.21.28-16.82.03-33.65.8-50.46.57,27.95,1.1,55.91,3.12,83.8.93-21.21-.93-42.52,1.68-63.64.73,12.61.74,25.25.72,37.88l1.01.06c.09-23.74-.46-47.49.42-71.21.41,11.46.67,22.93,1.71,34.37.65-10.45,1.01-20.9,1.56-31.34.32,16.14.2,32.3.89,48.44.58-17.48.31-34.97.79-52.44.29,4.01.9,12.02,1.19,16.02,2.9-12.24,4.56-24.74,6.93-37.09.37,1.66,1.12,4.96,1.49,6.62.22-8.33.33-16.68.68-25.01.31,6.04.55,12.08.91,18.14.45-2.68.93-5.34,1.44-8,.79,5.3,1.22,10.63,1.88,15.96.22-7.02.48-14.04.8-21.05,2.37,10.58,2.52,21.44,3.11,32.22.26-12.76.38-25.52,1.57-38.23.37,3.01,1.12,9.01,1.51,12.02.37-6.05.73-12.09,1.22-18.12.86,7.69,1.22,15.4,1.64,23.13.29-2.74.9-8.22,1.19-10.97.36,4.33.6,8.66.99,13.02.49-9.7.98-19.4,2.01-29.05.28,7.67.53,15.34.87,23.01.29-4.01.62-8.02.98-12.03.3,1.72.9,5.14,1.2,6.85.72-4.62,1.43-9.23,2.13-13.85.14,10.37.35,20.74.72,31.12.35-8.73.76-17.45,1.13-26.17.32,9.06.58,18.12.93,27.2.44-10.41.64-20.84,1.91-31.19.46,7.69.83,15.39,1.29,23.1.37-8.4.54-16.8.97-25.18.31,11.09.51,22.19.99,33.28.35-8.05.54-16.11.9-24.17.58,7.04,1.05,14.09,1.89,21.11.53-5.01.84-10.04,1.37-15.04.22,10.75.35,21.49.72,32.24.41-5.7.81-11.4,1.3-17.08.62,22.51-.1,45.04.61,67.55.37-4,1.11-12,1.47-16,1.28,11,1.4,22.1,2.33,33.13.45-1.41,1.37-4.26,1.84-5.69.13,10.01.24,20.02.62,30.05.4-12.45.57-24.9,1.07-37.33,1.27,32.63-.58,65.32,1.07,97.96.46-16.5.18-33.01,1.02-49.47.49,13.28.35,26.57.34,39.86l1.05.03c.3-33.85-.78-67.7.59-101.52.99,24.56-.31,49.16.99,73.72.33-9.73.55-19.46.88-29.18.35,7.01.72,14.03,1.09,21.07.45-11.06.91-22.12,2.22-33.12.19,8.19.25,16.38.35,24.59l.78-.04c.11-10.27.31-20.52.81-30.76.83,21.87-.27,43.78.98,65.64,1.08-26.59-.48-53.21,1.02-79.79.91,23.22-.32,46.47,1.01,69.68.42-13.46.35-26.92,1.01-40.37.38,14.8.29,29.61,1.02,44.41,1.15-30.29-.61-60.62,1-90.9.48,38.05,1.03,76.09,2.03,114.13.87-46.96.09-93.94.31-140.9h1.09c.3,59.09-.78,118.2.53,177.28,1.36-34.33-.62-68.7,1.11-103.01.62,18.5-.04,37.03,1,55.53.52-32.65.9-65.32,2.01-97.96,1.21,40.05-.65,80.15.98,120.19,1.26-38.04-.62-76.11,1.01-114.14,1.23,36.35-.56,72.73.96,109.08.53-39.06.94-78.11,2.02-117.15,1.38,41.06-.61,82.17,1.06,123.22.94-39.55.13-79.13.35-118.69h1.09c.29,35.52-.8,71.06.58,106.56.83-38.38,1.09-76.77,2.05-115.14,1.23,43.76-.63,87.55.93,131.3,1.41-41.06-.66-82.17,1.1-123.22,1.16,30.28-.63,60.61,1.01,90.89.54-47.13.37-94.28,1.93-141.4,1.43,47.8-.68,95.63,1.08,143.43,1.22-35.01-.64-70.05,1.01-105.05,1.14,29.95-.54,59.95.99,89.9,1.23-33.02-.6-66.07,1.02-99.08,3.45,21.36.06,43.21,1.96,64.72.71-19.14.32-38.31.68-57.46.82,6.97,1.68,13.94,2.57,20.91.92-14.72,1.28-29.47,1.81-44.21.39,6.36.67,12.73,1.1,19.11.31-9.41.53-18.81.99-28.21.66,15.8,1.22,31.6,1.94,47.4.71-15.81,1.32-31.62,2.14-47.41.51,17.66.33,35.33.27,53h1.12c.04-22.05-.49-44.11.51-66.14.66,11.78,1.13,23.57,2.07,35.34.26-7.73.56-15.46.9-23.18.24,8.73.87,17.45,1.17,26.19.1-5.93.15-11.86.25-17.77.42.52,1.27,1.57,1.7,2.09.64-3.15,1.44-6.25,2.16-9.39.31,8.35.48,16.7.9,25.05.44-14.15.22-28.37,2.07-42.43.35,14.49.31,28.98.95,43.46.6-18.46-.02-36.99,2.06-55.37.27,10.72.49,21.44.88,32.16.77-8.75,1.45-17.5,2.16-26.25.31,11.73.3,23.52,1.99,35.16.36-11.04.54-22.1.86-33.14.39,9.14.79,18.3,1.45,27.44,2.04-9.33,2.28-18.92,2.78-28.43.28,7.71.54,15.42.94,23.14.35-4.99.48-10.01.85-15,.54,9,.97,18.05,2.21,27.01.38-14.42.37-28.84.99-43.24.38,8.36.52,16.74.86,25.13,1.31-13.39,1.73-26.83,2.23-40.27.49,18.5.93,37.01,1.98,55.49.37-9.74.54-19.5.99-29.23.33,9.39.51,18.78.87,28.18,1.04-10.72,1.9-21.5,4.01-32.08.23,1.68.72,5.03.95,6.72.3-1.45.91-4.33,1.21-5.77,1.11,6.27,2.16,12.56,3.27,18.84.12-7.64.24-15.29.45-22.91.35,2.73,1.06,8.2,1.41,10.94.38-3.29.3-6.67.78-9.93.74,4.85,1.49,9.72,2.51,14.53.59-.48,1.75-1.45,2.33-1.93.07,2.88.21,8.64.28,11.52.45-7.44.9-14.86,1.51-22.28.86,5.36,1.16,10.77,1.82,16.18.2-7.7.35-15.41.64-23.1.61,7.71,1.14,15.44,1.98,23.14.68-5.36,1.26-10.72,2.07-16.06,1.56,12.04,1.71,24.18,2.07,36.3.51-2.96.19-6.08.97-8.97.67,3.63,1.29,7.25,2.05,10.88,1.32-9.7,2.36-19.44,4.24-29.05,2.19,26.17.83,52.48,3.05,78.64.38-21.48.37-42.97,1.44-64.43.44,1.4,1.34,4.19,1.8,5.6.15-7.3.35-14.61.64-21.9,1.29,27.24-.41,54.52,1.13,81.76.8-21.54-.18-43.11.97-64.64.45,15.28-.24,30.64,1.96,45.82,2.2-10.03,1.56-20.45,2.22-30.63.31,16.82.1,33.65.87,50.46.48-16.14.31-32.3.92-48.44,1.6,14.4,1.54,28.89,2,43.36,2.28-20.46,1.02-41.06,2.13-61.58.4,14.47.38,28.95.96,43.42,1.22-14.44,1.52-28.93,2.16-43.4.56,19.5-.15,39.09,2.07,58.52.68-21.87-.32-43.76.88-65.61.73,19.55-.12,39.15,1.16,58.69,3.24-25.81-.22-51.97,1.91-77.87,1.33,24.87-1.28,49.91,1.78,74.69.95-19.17.2-38.36,1.25-57.52.75,20.19-.1,40.39.92,60.58.69-21.19,1.11-42.39,1.98-63.58,1.53,12.05,1.65,24.19,2.17,36.3.37-16.17.26-32.33.79-48.48.71,5.3,1.36,10.61,1.98,15.92.63-2.92,1.39-5.81,2.13-8.71.3,1.98.92,5.93,1.23,7.91.31-6.38.54-12.76.93-19.11,1.23,8.67,1.46,17.43,1.98,26.17.25-7.36.54-14.74.88-22.1.3,8.73.74,17.46,1.09,26.2.78-9.4,1.39-18.79,2.04-28.19,1.04,10.69,1.47,21.41,2.05,32.14.37-15.47.33-30.95.98-46.39,1.16,11.4,1.51,22.86,2,34.32.39-6.05.75-12.1,1.24-18.14.84,6.69,1.24,13.4,1.91,20.11.71-12.74,1.29-25.48,1.85-38.22.35,12.14.58,24.29,1.4,36.41,1.19-10.08,1.14-20.27,1.57-30.4.39,4.07.82,8.14,1.29,12.23.81-2.31,1.37-4.67,2.35-6.95.64,5.9,1.04,11.81,1.61,17.73.35-11,.83-22,1.98-32.96.48,8.68.86,17.37,1.65,26.04.73-3.69,1.43-7.38,2.22-11.04.24,4.01.73,12.05.97,16.06.38-5.34.77-10.68,1.19-16,.21,3.99.62,11.97.82,15.97.75-6.97,1.52-13.93,2.33-20.88.23,13.04.56,26.1,1.84,39.1.36-12.09.57-24.19,1.12-36.26.26,8,.3,16.01.52,24.02.74-3.98,1.61-7.93,2.49-11.88.47,16.48.25,32.97.94,49.44.38-11.1.57-22.22,1.05-33.31,1.22,30.96-.55,61.96,1.06,92.92,1.09-25.22-.91-50.55,1.98-75.68,1.19,33.97-.49,67.97.97,101.94,1.39-39.38-.64-78.8,1.08-118.17.78,32.65-.23,65.35,2.09,97.96,1.06-35.01-.67-70.04.94-105.03,1.14,31.63-.51,63.3.93,94.94,2.1-22.84.96-45.79,2.03-68.66,1.34,36.01-.57,72.06,1.05,108.07,1.08-26.26-.39-52.54,1.02-78.78,1.23,34.66-.59,69.38,1,104.04.71-45.8.1-91.6,2.04-137.38,1.3,49.82-.71,99.68,1.02,149.5.9-41.57.11-83.17.33-124.75h1.09c.72,42.25-1.83,84.62,1.67,126.78,1.09-33.33-.66-66.69.95-100.01,1.23,38.37-.64,76.79.99,115.15,1.04-27.92-.3-55.87.91-83.78,1.23-28.63-.35-57.3,1.11-85.93.93,58.07.14,116.16.35,174.26h1.09c.3-38.9-.81-77.8.57-116.67,1.22,31.3-.58,62.64,1.05,93.94.62-17.98.05-35.98.82-53.95,1.48-33.51-.4-67.08,1.12-100.6,1.44,49.47-.7,99.01,1.1,148.47.87-23.23-.21-46.47.9-69.69,1.24-30.96-.4-61.97,1.03-92.93,1.04,52.68.16,105.38.4,158.08h1.09c.29-43.94-.77-87.89.53-131.81,1.37,37.69-.62,75.43,1.08,113.12,1.11-29.76-.42-59.56.83-89.31,1.05-21.73.01-43.5,1.11-65.23,1.41,52.84-.59,105.74,1.02,158.58,1.14-27.4-.25-54.83.87-82.23.83-19.38.21-38.8,1.24-58.16,1.19,33.65-.66,67.35.99,101,1.52-27.28-1.47-54.7,1.81-81.86.83,15.14.47,30.34,1.19,45.49.87-22.87-.03-45.76.78-68.63,1,10.02,2.03,20.04,3.32,30.05.28-4.3.61-8.59.97-12.87.41,5.01.67,10.01,1.14,15.04.21-14.46.21-28.92.76-43.37.55,15.81,1.1,31.63,2.23,47.42.35-15.13.19-30.29.91-45.41.45,16.14.31,32.31.87,48.46.22-5.69.42-11.37.71-17.04.52,1.56,1.03,3.11,1.59,4.67,1.02-10.3,1.44-20.66,1.91-31.01.38,11.72.76,23.47,2.05,35.14.57-16.72-.46-33.58,2.1-50.17.2,8.28.19,16.58.31,24.87.48-1.38,1.43-4.16,1.9-5.55.14,9.32.25,18.64.6,27.96.43-6.36.72-12.75,1.2-19.11.3,8.38.39,16.74.74,25.13,2.68-15.32,2.84-30.85,2.97-46.35.66,5.66,1.28,11.36,2.14,17,.37-4.67.6-9.35,1.03-14,.6,3.03.27,5.89,1.19,8.97.27-7.36.54-14.74.93-22.1,1.39,9.01,1.58,18.11,2.07,27.21.26-9.43.49-18.85.93-28.26,1.14,8.7,1.51,17.46,2.07,26.22.22-11.75.36-23.53,1.67-35.22.65,9.8,1.03,19.65,2.44,29.39,1.66-7.29,2.19-14.79,2.8-22.23.85,5.34,1.74,10.71,3.12,15.95.19-2.98.41-5.95.66-8.93,1.06,2.17,2.1,4.38,3.13,6.58.53-1.13,1.1-2.26,1.69-3.38.18,4.61.27,9.2.59,13.83.31-3.16.19-6.39.58-9.54.97.55,1.98,1.1,3,1.67.4-3.74.84-7.46,1.32-11.17.35,5.31.74,10.63,1.15,15.95.55-7.04,1.01-14.09,1.8-21.11.39,4.68.63,9.35,1.08,14.04.7-3.65,1.39-7.28,2.21-10.91.4,6.68.61,13.37,1.04,20.05.32-7.73.54-15.45.93-23.17.83,8.7,1.49,17.42,2.09,26.15.28-8.73.55-17.46.99-26.18,1.06,12.43,1.52,24.87,2.07,37.33.38-8.39.56-16.78.98-25.16.41,8.44.7,16.87,1.31,25.32,1.17-7.35,1.14-14.82,1.65-22.23.61,9.39,1.3,18.78,2.22,28.16.26-14.81.21-29.61.81-44.41.43,15.13.2,30.31,1.66,45.4,1.07-3.53,1.82-7.13,2.74-10.71.51,11.67,1.84,23.27,2.82,34.91.32-12.11.73-24.22,1.2-36.32.6.35,1.22.71,1.87,1.06.38-1.25.81-2.49,1.25-3.74.37,26.82-.63,53.67.61,80.49.78-22.86-.06-45.79,2.03-68.6.3,10.38.52,20.76.87,31.15,1.82-18.77,1.31-37.73,4.36-56.38.58,30.44.07,60.89.22,91.33l1.02-.03c-.16-28.11.9-56.21,1.7-84.31,1.23,50.49-.74,101.03.98,151.51,1.08-34.85-.29-69.72.65-104.56.81-16.65.57-33.33,1.31-49.98,1.01,39.21.15,78.44.39,117.67h1.09c0-30.31-.1-60.61-.08-90.91h1.09c.29,35.52-.79,71.06.57,106.56.79-39.9,1.87-79.78,1.37-119.7h1.09c.32,40.57-.85,81.17.6,121.72,1.01-45.45-.6-90.95,2.06-136.36.8,29.78.09,59.59.3,89.37h1.1c-.03-20.37-.43-40.76.5-61.12.93,6.66,1.5,13.34,2.27,20.02.1-14.1.11-28.22,1.29-42.27.57,2.66,1.16,5.32,1.78,7.99.12-10.72.25-21.43.65-32.14.25,8.7.62,17.41.86,26.13.3-2.73.91-8.18,1.2-10.91.17,1.69.52,5.05.7,6.73.54-1.54,1.1-3.07,1.7-4.6.23,6.3.44,12.61.79,18.92.31-10.06.41-20.14.74-30.19.44,7.05.92,14.09,1.47,21.14.88-7.01,1.16-14.09,1.7-21.14.22,2.73.68,8.16.9,10.89.61-4.65,1.29-9.27,2.04-13.89.4,6,.77,12,1.21,18.02.25-3.25.04-6.59.43-9.81.99,1.12,2.01,2.24,3.04,3.37.05-8.95.16-17.9.42-26.84.4,10.75.65,21.51,1.09,32.27.38-6.38.62-12.75,1.05-19.11.31,9.07.54,18.14.94,27.23.6-11.11,1.22-22.22,2.08-33.3.35,5.03.5,10.04.9,15.09.37-2.67.78-5.32,1.23-7.98.29,4.34.47,8.68.86,13.04,1.33-3.6,2.46-7.24,3.73-10.87.47,4.59.8,9.15,1.35,13.76.17-2.05.37-4.09.61-6.12.99-.63,1.97-1.27,3-1.91.05,6.42.11,12.84.31,19.29.46-6.06.83-12.12,1.37-18.17,1.25,12.06,1.22,24.21,1.88,36.31,1.48-13.73,1.82-27.54,2.99-41.3.34,11.07.44,22.17,1.66,33.19.5-6.02.93-12.04,1.49-18.05.4,19.34.21,38.68.18,58.04h1.1c.24-28.77-.65-57.56.45-86.31.85,20.51,1.15,41.04,2.24,61.54.85-23.55-.34-47.13.88-70.67,1.02,38.37-.35,76.78,2.15,115.12.51-21.87.06-43.79,2.04-65.61.59,19.89-.29,39.82,1.14,59.68,1.13-12.46,1.34-24.97,1.84-37.46,1.06,31.3-.55,62.64.96,93.93,1.21-34.66-.53-69.37.96-104.03,1.3,30.95-.54,61.96,1.09,92.91,1.09-36.02,1.04-72.05,2.02-108.06,1.23,38.7-.66,77.45.97,116.15,1.13-27.93-.47-55.91,1.03-83.83.78,21.2-.09,42.42.94,63.62.53-16.1-.09-32.3,2-48.31.63,17.45.27,34.91,1.03,52.35,1.35-32.64-.58-65.33,1.11-97.96,1.2,33.65-.67,67.35,1.01,101,.59-18.15.21-36.32.55-54.46.36,2.73,1.1,8.19,1.47,10.92.52-8.03.89-16.08,1.73-24.1.33,8.67.56,17.34.81,26.02.44-1.39,1.29-4.18,1.73-5.58.25,4.25.56,8.53.91,12.8.38-19.84-.08-39.73,1.94-59.49.42,15.29.34,30.58.28,45.89h1.08c-.07-15.33-.13-30.66.28-45.98.43,2.64.9,5.28,1.39,7.94.84-8.33,1.44-16.7,2.02-25.05.25,11.08.42,22.17.94,33.26.4-10.08.52-20.17.96-30.25.35,12.44.5,24.88,1,37.33,1.24-13.08,1.52-26.24,2.13-39.36.78,22.88-.29,45.8.97,68.67.91-23.23-.27-46.47.96-69.69.4,12.78.47,25.57.87,38.36.35-5.7.68-11.4,1.09-17.08.62,6.35,1.11,12.72,2.02,19.05.37-6.68.5-13.38.84-20.04.35,2.73,1.06,8.19,1.41,10.93.19-12.43.3-24.85.84-37.27.39,9.74.57,19.48,1.07,29.23,2.8-18.39,2.28-36.99,3.05-55.49.59,15.04.28,30.11.2,45.17.7-1.15,1.41-2.3,2.17-3.43.18,5.93.37,11.87.7,17.81.32-13.45.3-26.9.87-40.34.43,6.71.61,13.42,1.05,20.14.28-9.07.6-18.14,1.01-27.2.32,6.7.62,13.39.94,20.1.28-7.03.6-14.05.95-21.08.32,4.02.96,12.07,1.28,16.09,1-6.02,1.99-12.04,3-18.06.32,6.69.59,13.36,1,20.05.27-11.03.3-22.07.33-33.1,1.18,3.49,2.39,7,3.86,10.41,1.38-1.93,2.78-3.87,4.1-5.86.6,3.91,1.3,7.84,2.22,11.71.5-.77,1.49-2.3,1.98-3.06,1.19,21.34.23,42.78,2.5,64.06.96,19.29.15,38.61.74,57.92.51-2.67,1.06-5.32,1.64-7.98.06,14.78-.02,29.56.77,44.32.5-13.29.34-26.58.34-39.86l1.08-.03c-.09,18.68-.4,37.38.6,56.05.94-23.55-.35-47.15.96-70.69,1.22,31.3-.58,62.64,1.06,93.93,1.1-28.6-.5-57.24.93-85.83.94,22.54-.14,45.11.99,67.65.92-24.05.26-48.13.41-72.2h1.11c.02,20.39-.52,40.8.57,61.18,1.69-7.82,1.33-15.88,1.52-23.82.02-25.42-.73-50.86.5-76.27,1.26,38.04-.62,76.11,1.01,114.14,1.26-41.4-.59-82.84.96-124.24,1.35,34.32-.61,68.69,1.1,103.01,1.24-40.39-.73-80.82,1.01-121.2,1.25,47.12-.74,94.29.99,141.41.88-28.11.12-56.22.34-84.33h1.1c-.1,18.67-.37,37.36.56,56.03.38-13.12.41-26.25,1.06-39.36.41,15.14.24,30.29.98,45.43.39-14.81.31-29.63,1.02-44.43.47,16.49.2,32.99.93,49.47.71-19.01.42-38.05.38-57.06l1.05.03c-.07,13.62-.03,27.26.66,40.88-.1-35.39,2.59-70.67,2.96-106.04.42,8.05.63,16.11,1.09,24.19.29-11.09.49-22.19.97-33.27.41,8.39.56,16.78.99,25.19.44-16.82.97-33.64,2.07-50.44.48,12.08.93,24.18,1.74,36.25.85-3.28,1.46-6.62,2.4-9.89.1,9.03.49,18.06.74,27.1.32-8.73.79-17.45,1.15-26.18.34,6.36.6,12.73.98,19.11.32-7.39.62-14.79,1.01-22.17.65,10.73,1.36,21.47,1.99,32.2,1.8-19.11,1.21-38.31,2.04-57.46,1.27,30.96-.5,61.96,1.06,92.92.81-21.19-.05-42.39.78-63.58,2.55,30.23,2.29,60.59,4.31,90.83.55-23.56,1.03-47.12,2.05-70.66,1.12,33.65-.67,67.34.96,100.99.79-44.44-.2-88.92,2.05-133.33.33,32.64.74,65.27,1.81,97.9,2.17-28.21,1.08-56.49,2.04-84.74,2.98,21.76.64,43.8,2.12,65.66,2.34-18.76,1.08-37.72,1.74-56.57,5.76,18.61,3,38.39,4.39,57.54.58-25.95.22-51.95,2.21-77.85,2,12.7,1.04,25.64,1.69,38.44.4-6.05.75-12.09,1.24-18.12.24,12.75.28,25.5.68,38.25.86-4.28,1.65-8.58,2.48-12.87.07,12.06.19,24.13.83,36.19.71-20.19-.01-40.39.74-60.58.58,3.33.61,6.59,1.3,9.96,1.2-14.74,1.37-29.53,1.9-44.31,1.55,21.84,1.22,43.75,1.99,65.62.91-22.89,3-45.72,3.09-68.65.79,22.38.29,44.77.36,67.14h1c.04-10.26.13-20.53.41-30.78.41,4,.87,8.01,1.37,12.03.29-17.14.89-34.28,1.96-51.39.35,15.79.3,31.6.84,47.4.68-9.22.62-18.56,2.89-27.57,1.4-5.82,1.67-11.83,2.33-17.76.38,10.4,1.26,20.77,3.06,31.03,1.89-13.71,1.17-27.61,2.27-41.39,1.15,7.2,1.36,14.49,2.27,21.73.77-9.18.91-18.41,1.38-27.6.35,4.34.66,8.67,1.16,13.03.33-8.05.47-16.1.87-24.15.37,7.73.68,15.47,1.15,23.21.96-7.01,1.28-14.1,2.01-21.14.29,6.02.51,12.04.89,18.07.42-4.68.6-9.38,1.04-14.04.45,5.08.73,10.15,1.24,15.26.73-6.4,1.71-12.78,2.62-19.17,1.28,5.57,2.29,11.15,3.34,16.78.44-3.3.21-6.7.81-9.97.71,2.35,1.43,4.72,2.19,7.09.51-2.97-.04-6.09.87-8.99.62,3.01.13,5.87,1.13,8.94.3-7.36.62-14.73,1.04-22.08.34,15.13.2,30.28.85,45.41.39-11.1.58-22.21,1.07-33.29.25,4.97.28,9.94.58,14.93.47-1.41,1.38-4.22,1.85-5.63.05,19.08-.35,38.19.42,57.27,1.44-23.53,1.32-47.1,2.26-70.64.56,14.98.1,29.96.43,44.96.12,13.66,2.07,27.21,2.68,40.85.19-14.46.22-28.92.88-43.37.37,11.45.47,22.89.97,34.35,1.34-10.73,1.59-21.54,2.19-32.31.37,18.17-.01,36.34.88,54.51.53-18.85.43-37.73,2.11-56.54,1.04,21.8-1.25,43.82,2.02,65.49,1.02-28.56-.6-57.16.92-85.71.99,23.5-.72,47.12,2.11,70.53.3-15.77.2-31.54.85-47.29,1.51,17.47,1.34,35,2.15,52.51.67-17.78-.5-35.68,2-53.34.36,15.74.24,31.49.8,47.22.25-6.87.5-13.75.76-20.62.43,0,1.28.01,1.71.02.08,10.24.26,20.5.67,30.75.67-24.56.93-49.14,2.14-73.69.34,13.11.35,26.24.87,39.36,1.74-14.07,1.54-28.27,2.13-42.41.39,16.15.26,32.32.99,48.47.4-13.1.38-26.22.85-39.32,1.26,20.83,1.39,41.7,2.14,62.55.5-25.59.97-51.17,2.13-76.74.5,18.17.08,36.34.81,54.51,1.4-17.49,1.42-35.03,2.24-52.54,1.25,11.73,1.38,23.54,1.84,35.32.29-12.77.37-25.58,1.84-38.29.64,12.77.75,25.56,1.21,38.34.52-17.82,1.07-35.64,1.95-53.44.38,10.45.73,20.89,1.33,31.33.62-4.31,1.06-8.65,1.76-12.94.07,2.48,1.6,5.16,2.08,7.7.5-3.3.34-6.7,1.07-9.97.15,3.99.36,7.99.62,12,.32-1.53.67-3.04,1.05-4.56.88,9.02,4.65,17.42,5.56,26.41.49,12.27.23,24.54.8,36.82.44-10.12.54-20.26,1.06-30.37.94,3.01,1.12,5.92,2.26,8.99.17-7.68.31-15.36.59-23.01.55,10.76.17,21.75,2.69,32.31.43-3.01,1.31-9.05,1.76-12.06,1.43,11.69,1.2,23.49,1.81,35.24.4-17.14.73-34.3,1.91-51.42,1.54,13.75,2.01,27.57,3.2,41.34.29-14.81.22-29.62.94-44.42.26,9.7.3,19.4.46,29.1.46-1.4,1.35-4.2,1.81-5.61.15,8.99.37,17.99.8,26.99.66-20.87-.24-41.81,1.89-62.61,1.68,11.02,2.48,22.14,3.2,33.26.24-8.06.39-16.13.79-24.2,2.7,8.48,2.68,17.42,3.28,26.23.13-9.06.27-18.11.56-27.16.3,1.71.91,5.12,1.21,6.83.58-6.3,1.05-12.6,1.87-18.87.66,4.77,1.14,9.54,1.95,14.33.82-11.19.91-22.43,1.26-33.63.32,9.06.66,18.14,1.08,27.21.29-10.76.51-21.52.95-32.28,1.61,12,2.03,24.12,3.16,36.17.19-7.27.39-14.54.67-21.79.23,1.27.69,3.82.91,5.09,1.38.55,2.77,1.1,4.15,1.7.01-4.02.08-8.03.19-12.03.79,11.43,1.48,22.85,2.13,34.29,2.09-14.55,1.27-29.29,1.37-43.94l.95.02c.02,11.94.12,23.88.67,35.82.42-9.47.65-18.94,1.22-28.4.69.42,1.4.85,2.16,1.27.43-3.37.99-6.73,1.57-10.07.32,2.96.68,5.93,1.06,8.9.6-3.96,1.22-7.92,1.9-11.87.33,1.67,1.01,4.99,1.35,6.66.46-3.27.21-6.65.91-9.88.36,2.98-.36,5.82.36,8.86.66-1.22,1.33-2.45,2.05-3.67.09,2.73.28,8.18.37,10.91.74-3.34.85-6.79,1.75-10.11,3.88,24.1-.06,48.68,3.63,72.78.29-9.99.14-19.99.09-29.99.46,1.38,1.35,4.14,1.8,5.52.48-2.55.94-5.09,1.39-7.65,0,4.14,0,8.27,0,12.41.29-.9.63-1.79,1.02-2.64v-166.9c-.64-.51-1.27-1.04-1.88-1.62h0Z"/></g></svg>