<?xml version="1.0" encoding="UTF-8"?><svg id="Layer_2" xmlns="http://www.w3.org/2000/svg" viewBox="0 0 30.13 26.68"><defs><style>.cls-1{fill:#dd4e4d;}</style></defs><g id="Layer_1-2"><path class="cls-1" d="m30.13.17c-.22-.28-.1-.06-.12.03l.12-.03Z"/><path class="cls-1" d="m30.01.2l-.09.02c.06.02.08,0,.09-.02Z"/><path class="cls-1" d="m29.38.55c-.11-.3.3-.19.04-.54-.3-.05-.37.21-.04.54Z"/><polygon class="cls-1" points="29.74 .55 29.58 .39 29.76 .73 29.74 .55"/><polygon class="cls-1" points="29.97 .62 29.89 .58 29.93 .9 29.97 .62"/><path class="cls-1" d="m28.91.84l.05-.16c.34.1.26.35.49.42.13-.15-.46-.49-.22-.6-.24-.18-.25.3-.58-.04-.25.06.2.19.26.38Z"/><path class="cls-1" d="m24.7,9.61s-.03,0-.05-.01c.04.03.08.04.05.01Z"/><path class="cls-1" d="m23.27,11.78c-.06,0-.1,0-.14.02.04.02.09.04.12.05l.02-.07Z"/><path class="cls-1" d="m25.08,7.81c.06,0,.11,0,.15,0-.06-.03-.12-.04-.15,0Z"/><path class="cls-1" d="m13.07,19.1s-.05-.06-.1-.1c0,0,0,0-.01,0l.08.1h.03Z"/><path class="cls-1" d="m21.94,14.44s-.04.07-.04.12c.05-.05.06-.08.04-.12Z"/><path class="cls-1" d="m25.66,7.09s-.02.02-.03.03c.02,0,.05,0,.07,0l-.04-.02h0Z"/><path class="cls-1" d="m24.3,11.56s-.09.01-.1.03c.05,0,.08-.01.1-.03Z"/><path class="cls-1" d="m26.95,2.3c-.06,0-.06.05-.04.11.07.03.11,0,.04-.11Z"/><path class="cls-1" d="m26.38,3.03h0s-.04-.03,0,0Z"/><path class="cls-1" d="m25.97,3.44v-.02s-.05-.02,0,.02Z"/><path class="cls-1" d="m26.9,2.41c-.19-.06-.66-.44-.23.07l.08.04c-.15-.05-.01.18-.04.25.05.03.1.06.14.09.03-.02.07-.04.15-.07.16.03-.04-.22-.1-.37Z"/><path class="cls-1" d="m24.61,9.53c.1.07.09-.01,0,0h0Z"/><path class="cls-1" d="m24.76,8.6s-.05.03-.07.05c.03,0,.07,0,.07-.05Z"/><path class="cls-1" d="m26.84,6.45s-.02,0-.03,0c.05.05.05.03.03,0Z"/><path class="cls-1" d="m24.64,8.7s.03-.04.05-.05c-.03,0-.06,0-.05.05Z"/><path class="cls-1" d="m25.98,6.9s-.02,0-.02,0c0,0,.02,0,.02,0Z"/><path class="cls-1" d="m6.48,15.46c.08,0,0,.15.01.23.38-.26-.2-.17.19-.36-.05-.03-.12-.02-.19,0l-.2.37c.19-.05.03-.15.18-.24Z"/><path class="cls-1" d="m11.94,19.1h.04c-.15-.1-.19-.15-.33-.15.16.25.57.43.71.75,0-.04.03-.07.09-.07-.23-.12-.4-.34-.52-.53Z"/><path class="cls-1" d="m12.46,19.64h.02s.06.05.09.06c.02-.01.04-.02.07-.01-.07-.04-.13-.05-.18-.05Z"/><path class="cls-1" d="m7.9,16.87s.02.05.03.07c.03-.08,0-.09-.03-.07Z"/><path class="cls-1" d="m18.1,10.88s-.03-.1-.04-.15c-.01.05,0,.1.04.15Z"/><path class="cls-1" d="m13.17,18.29s.07,0,.1-.01c0-.01,0-.03.01-.05l-.11.06Z"/><path class="cls-1" d="m11.41,26.38c-.01-.7-.04.11-.2-.13l-.02.14-.07.17c.03.05.07.09.1.12.07-.08.14-.21.2-.3Z"/><path class="cls-1" d="m6.51,15.3l-.03.03s0,0,.01,0v-.03Z"/><path class="cls-1" d="m7.46,23.66s-.02-.08-.03-.11c0,.03,0,.07.03.11Z"/><path class="cls-1" d="m12.97,19.35l.25-.25h-.16c.14.19-.28.03-.1.25Z"/><path class="cls-1" d="m13.36,24.54l.17.24c.09-.57.35-.77.61-1.01.25-.23.49-.5.37-1.02.6.07.55-.22.45-.46-.05-.12-.09-.26-.08-.33,0-.06.08-.08.32,0l-.12-.08c.98-.88,2.28-1.59,2.72-2.83l.15.13c1.55-1.27,2.49-2.99,3.88-4.37-.02-.26-.42-.46-.49-.73.06-.04.14-.17.33-.01.02.19.23.27.27.37.12-.18.52-.21.43-.56l-.35-.08c-.05-.14.1-.18.15-.22.1.13.43.28.45.37-.32-.83.47-.02.46-.49-.46-.49-.59-1.18-.77-1.71h.23c-.13.15.37.32.19.48.28-.03.19-.36.4-.44-.15-.08-.31-.23-.32-.34.15-.03.41.18.53.1l.07.24c.25.1.05-.18.08-.27.23.16.4.04.62.27-.17-.39.04-.3-.02-.61-.36-.04-.24-.28-.44-.42l-.07.25c.36-.13-.03.11.35.41-.27-.03-.46-.68-.57-.43.02-.39.22-.3.13-.8-.06.2-.21-.23-.39-.25.15-.2.17.06.45.21.08-.11.31.03.13-.29.25-.07.25.26.47.3.2.28-.7.19.14.83-.06.09.15.46.03.57.2-.02.59.06.52-.23l-.44-.39c.08-.11-.21-.39-.11-.43.1.15.35.24.38.13-.08-.03-.1.01-.17-.06.09-.18-.19-.46-.12-.71-.24.05-.4-.04-.72-.07-.28-.31.04-.14.07-.25.03.05.03.07.11.1l-.08-.22c.29-.07.44.42.72.4.35.12-.02-.27.19-.22-.03-.02-.07-.04-.09-.05.02-.01.04-.02.06-.02l-.02-.02c.04-.14.15-.22-.06-.45.12.08.04-.11,0-.21-.05-.14-.21-.5.23-.26h0c.15-.07.35-.07.45.07l.26-.11.29.29c.07-.25-.12-.39-.33-.78.29.03.34-.32.29-.5.02,0,.04-.02.06-.07l-.18-.03c.13-.13-.04-.25.03-.34-.04,0-.06-.02.03-.03.02-.01.04-.02.07-.03.03.03,0,.05-.03.06l.12.07c.42.17-.04-.33.18-.35,0,.02,0,.06,0,.07.14,0,.66.28.41.03.05.01.01-.06-.03-.14h.09s-.06,0-.09,0c-.06-.11-.15-.23-.08-.18l.2-.12c.07,0,.07-.07.06-.14l.15.08c.03-.08.11-.01.14.02.63.17.06-.53.64-.43-.17-.23-.35-.21-.47-.31-.13-.18-.16-.44-.22-.6.38.15.91.06,1.29.47.2-.16-.31-.17-.38-.39h.04c-.11.02-.3-.06-.49-.16-.24-.18-.16-.41-.05-.4l.29.32c.04-.27-.48-.66-.71-1.05.25-.03.47.31.79.53l.05-.22.24.21c.02-.15-.19-.37.02-.42.15.29.4,0,.59.4.15,0-.31-.43.05-.19-.22-.28-.19-.05-.3-.08-.4-.29-.04-.32-.06-.49.2.16.18.26.4.26-.13-.15-.18-.31.05-.22-.24-.21.05-.16.12-.21-.11.03-.37-.03-.54-.26-.05-.14-.06-.22.07-.31l-.18-.02c-.27-.41.41.05.41-.18.1.19.06.22.2.43-.06-.16-.13-.44-.15-.65l.46.19c-.17-.17.13-.12-.11-.33.29,0,.19.37.36.54.32-.05-.28-.5.25-.35l.18.26c.07-.04.04-.28.16-.18-.08-.07-.07-.01-.11.02-.46-.46-.11-.57-.63-.98l-.1.05c.01-.21-.25-.59,0-.54.23.07.3.35.39.5.13-.09-.47-.57-.3-.67-.14,0-.31-.17-.4-.32-.1.05-.35.14-.11.29h.07c.12.13.13.22.18.3-.1.11-.27-.15-.39-.21-.24.12.49.45.33.6l-.12-.06c.06.19-.03.33.26.62-.39-.21-.04.3-.3.22-.73-.6.3-.25-.01-.68-.22-.04-.3-.35-.43-.52l.07.55c-.12-.06-.54-.29-.33-.01h.04c-.01.17.3.4.12.41-.08-.04-.17-.17-.21-.22-.14.03.1.21.11.33-.14.03-.25-.3-.4-.29.19.34-.21.11-.27.21.44.31.25.83.77.95l.09.45c-.27-.12-.44-.64-.83-.87l.16-.16c-.53-.41.02.64-.64.27-.1.07-.01.11-.41.07l.48.36c-.18,0-.45-.18-.54-.25-.02.08-.07.11-.13.15-.06-.07-.1-.14-.1-.19-.31-.15-.23-.05-.12.09.08.13.02.18-.03.23l-.12-.19c0,.07.02.15.1.22-.02.02-.03.06-.02.1.09.05.39.24.57.26-.36.05-.4.3-.92.15-.12-.12-.22-.33-.26-.32-.14.03,0,.32.21.49,0,.03-.01.05-.02.07-.13-.08-.26-.16-.32-.14-.05-.03-.1-.04-.14-.02.33.34,0,.35.14.53.07,0,.11-.06.14-.12.18.28.4.58.16.47-.11-.33-.49-.18-.42-.47-.57-.25.26.35-.03.36l-.26-.06c-.25-.24,0-.27-.11-.33l-.02.09c-.14-.24.21-.37.05-.78l-.41.18c-.03.66-.8.84-.52,1.66v-.02s.07.07.17.16l-.08-.04.14.24c-.31-.14-.48-.04-.77-.09q.23.06.43.23c.25.24.35.35.16.37-.19-.16-.12-.22-.34-.27.13.04.22.19.21.25-.17-.04-.29.04-.48-.12-.03-.07.06-.04.1-.04-.02-.07-.27-.03-.35-.24l-.04.16c-.21-.07-.21-.25-.33-.31-.04.3.31.76.29,1.04-.09-.09-.5-.45-.38-.35-.24.02.21.67.11.84-.1-.13,0-.14-.03-.24-.55.32-.88.68-1.64.77l.33.48-.38-.13c-.66.21-.68.79-.92,1.33-.09.16-.36-.18-.54-.22-.3.25.12.73-.03,1.09-.1-.15-.41-.53-.53-.43.1.13.28.31.14.32l-.1-.15c-.25-.1-.13.13-.33.2-.21.26-.12.76.17,1.37-.24.19-.44-.42-.57-.45.29-.02.02-.17-.1-.33.05.19.03.35-.31.13-.08.13-.14.17-.04.46-.05-.15.15-.05.24.12-.19,0-.28.34-.65,0-.4.61-1.01,1.16-1.5,1.76.11.27.14,0,.23.16.13.36-.23,0-.13.29l-.17-.23c-.18.14.05.66.09.99-.21-.23-.31-.03-.33-.29-.03.12-1.17-.7-1.01-.45l1.06.76c.09.09-.07.15,0,.2-.25-.1-.56-.21-.6-.16-.27-.19-.11-.27-.04-.33-.4-.37-.46,0-.76-.43-.06.2.23.16.31.38l-.2.05.22.02c.03.21.32.52-.04.46l.28.5c-.34-.27-.15.05-.29.06l-.17-.23c-.08.11-.17.1-.34.06-.24-.3.15-.03-.1-.29l-.19.03c.19.16.27.35.45.37.26.4.5.7.25.93-.42-.16-.17-.37-.53-.59-.36.15.54,1.03.37,1.16-.3.09,0,.33-.15.54-.16-.25-.35-.06-.59-.2l-.16-.27c.01.12-.12.1-.26-.05.3.24.05.5.07.75l.27.19c-.01.18.02.46-.15.52-.07.24.19.39.34.76-.29-.12-.54-.36-.8-.62.17.06.16-.08.3-.09-.03-.4-.41-1.02-.1-1.13-.52-.61-.06.21-.36.13-.03-.03-.04-.05-.04-.06,0,0-.02.01-.04.01,0-.14,0-.35-.28-.64-.05.18.52.61.12.55.07.26-.49-.05-.6-.01.16.27.64.69.38.81l-.26-.38c-.2.21.4.53.21.72.1-.04.27.36.4.23.12.22.03.4-.16.43.03.07.11.11.22.21.34.08-.06-.39.36-.2l-.29-.4c.23,0,.53.24.62.43.01-.05-.01-.12.07-.09.56.45-.31-.03.12.41l.03-.11c.39.27.15.46.04.54-.27-.03-.42.03-.69-.19l.03-.25c-.28-.1-.05.31-.14.39-.04-.02-.07-.04-.1-.04.03.01.05.03.08.05-.03,0-.08,0-.15-.04-.08.07-.03.32-.16.3l.23.2-.12-.13c.06-.05.29-.03.41.18.01.31-.44-.06-.65-.23-.3-.36.1-.11.05-.3-.39-.25-.15.1-.46,0-.31-.41.11-.12-.21-.46-.12,0,.12.28-.04.27-.14-.19-.1-.27-.32-.48l-.13-.08c.03-.08-.43-.46-.49-.58-.15-.15.27.32.04.09.14.17.44.45.53.64l-.13-.07c-.16-.19-.31-.46-.45-.61.03.05.06.1.09.16.09.13.15.18.26.36-.11-.12.31.53.38.79-.04.03-.08.03-.18-.13.14.52.01.64.06,1.23-.04-.42-.19-.57-.29-.8.04-.14-.14-.66-.25-1,0,.07.15.65.21.82-.11-.17.06.43-.08.11-.07-.17-.12-.58-.18-.78-.04.01.14.71.06.64-.01-.08-.01-.11-.04-.22-.05-.1-.03.22,0,.54-.12-.65-.09-.08-.13-.35,0-.06-.01-.15-.03-.28-.05.17.04.46.06.74-.01.33-.12-.03-.14-.17.02,0,.03-.2.06-.06l-.04-.57c-.07-.44-.05,1.18-.16.62.07-.22.04-.38.07-.73-.01.12-.07-.07-.06.35-.03-.07-.05-.18-.06-.29-.05.17-.11.27-.19.55-.06-.1-.02-.46.02-.66-.21.21-.08-.34-.33-.13v.03c-.05-.14-.27.5-.38.39.31-.41.17-.3.23-.61-.13-.45-.75-.13-.8-.62.07-.08.17-.16.23-.13-.11-.29-.34-.35-.51-.53l.05-.04c-.04-.57-.63-.41-1.02-.57.07-.03.19-.17.26-.21-.08-.22-.29-.48-.69-.21.13-.54-.22.02-.15-.56.04-.08.08-.05.11-.05-.01-.23-.13-.26-.21-.4-.47.03-.95.49-1.13.08.43-.55.3.02.65-.4-.14.04-.28.11-.26-.09.22-.17.12-.12.32-.29.05-.19-.72.34-.68.29-.09.1-.11.17-.04.21-.34.27-.32-.22-.58-.21.04.05.11.28-.16.48-.11-.28-.59.18-.91.28.02-.39.5-.34.78-.74.08-.16.26-.52.45-.6-.1-.22-.48,0-.69-.03l.09-.1c-.24-.12-.84.16-.84-.2v.2c-.09.04-.17-.08-.41.09.15-.17.15-.44.32-.54-.56.49-.75-.04-1.29.41.06-.19.29-.38.42-.49.09.15.04.3.29.13-.11-.08-.07-.29.05-.41-.4.26-.77.19-1.11.5.07-.24.07-.4.34-.67-.48-.09-.58,1.04-.95.73.06-.42.48-.25.33-.54h.08c.45-.9-.56.43-.73.25.31-.43.37-.18.48-.59-.26-.04-.84.5-.9.23l.17-.15c-.14-.06-.29-.32-.43-.38.06-.09.07-.06.11-.06-.08-.33-.26.14-.19-.28l-.21.16c-.03.21-.03.55.27.4-.3.15-.26.66-.6.96l.14-.12c-.22.83.08,1.21.25,1.72.57-.23.24.48.72.39.43-.45.12-.06.41.01-.16-.03-.31.35-.3.48.14-.09.23-.1.31-.1-.09.2-.15.8.21.55,0,.26-.16.13-.27.21-.15.29.26-.11.17.09,0,0-.04.05-.08.06.21.14.22.36.37.58.4-.46.34-.02.57-.11-.15.13-.03.27-.05.4l.4-.26c.35-.21-.02.33.24.28l.04-.11c.22-.06.25.44.14.78,1.68-.16,1.01,1.7,2.19,2.25.18-.09.15-.28.37-.45.14.03.15.07.25.13.02-.19-.09-.02.03-.15l-.25.02s.05-.04.09-.12c-.08,0-.21.05-.25-.02.19-.05.5-.38.5-.15-.05.04-.08.04-.13.05.07.11.22-.06.21.1.03.15.09.03-.02.19l.12.41c.48-.3.32.23.34.31-.29.29-.26-.05-.58.2l-.09.31.21-.24.09.18-.05.04c.1-.08.19-.17.16-.05-.02.04-.06.12-.09.12l.21-.05c-.27.21.03.15-.23.43.11.22.25.17.53.28.24.08.42.17.55.62.01-.23.46-.41.57-.22.04.16.03.26-.09.35l.29-.02c.03.8.43.64.76,1.17l-.06.17c.2-.09.39-.15.59.1l-.1.36c.25.51.31-.67.57-.18.03-.45-.12-.81-.09-1.24,0,.49.29.79.24.41.25.02.17.15.19.28l.15-.16c.17.16.06.67-.02.88.18-.36.36.15.58.4l-.07.16.24.27.03-.02c.12-.57.3-.82.53-.85l-.04.78c.2.15.04-.3.06-.45.17-.55.29-.19.49-.01.12-.52.35-.49.6-.52.24-.02.5-.1.5-.66ZM26.62,6.36l-.07-.03c-.02-.1-.06-.18.07.03Zm-1.2,1.18c-.01-.28.12-.08.23,0-.23.06-.19.25-.42.28.09.04.19.12.26.17-.06.04-.19.02-.39-.12-.31-.38.59-.21.32-.32Zm.67-4.41l.07.09h0s-.06-.09-.06-.09Zm-.33,1.03c-.09-.06-.15-.08-.2-.08.11.07.2.13.2.08Zm-1.75,1.12c-.18-.1-.2.02-.22.11.04-.01.13-.02.22-.11Zm-8.03,9.63c-.02-.1-.1-.31-.28-.33.1.15-.19.03-.02.23-.01,0-.02,0-.02,0,.16.06.3.11.32.11Zm-2.62,5.53c-.14-.14-.28-.31-.41-.39h.02c-.06-.03-.11-.06-.14-.1-.06.01-.13.02-.11.08.48.43.49.58.63.41Z"/><path class="cls-1" d="m12.65,17.21s-.02.03-.02.05c0-.01.02-.03.02-.05Z"/><path class="cls-1" d="m12.74,20.02s.11.03.21.02c-.07-.04-.14-.06-.21-.02Z"/><path class="cls-1" d="m29.86,2.1v.09s.23.04.23.04c-.04-.29-.24-.48-.45-.73.11.33-.07.31-.15.54l.37.06Z"/><path class="cls-1" d="m28.17.77c-.08-.04-.27-.15-.31-.14l.13.15h.18Z"/><path class="cls-1" d="m25.95,1.9l.25-.03c-.09-.16-.46-.19-.25.03Z"/><path class="cls-1" d="m29.06,3.5l-.1-.21c-.19-.05-.25.06-.08.23-.02-.17.12.06.18-.01Z"/><path class="cls-1" d="m25.59,2.25c.26.3-.25.03,0,.3-.05-.11.29-.04,0-.3Z"/><path class="cls-1" d="m28.46,4.55c.31.19.13-.09.28-.12-.06.07-.45-.08-.28.12Z"/><path class="cls-1" d="m25.78,3.72c-.2-.19-.14-.23-.03-.26.05.08.13.18.14.23-.07-.25-.03-.23-.05-.4-.22-.04-.43.01-.68-.23.14.23.36.57.62.65Z"/><path class="cls-1" d="m28.31,4.8c.15,0,.38.12.44.02-.16-.11-.4-.26-.45-.13l-.21-.25c-.26-.06.36.24.23.36Z"/><path class="cls-1" d="m24.86,3.63l.15.05c-.11-.27.11-.32-.15-.65-.09.14-.09.41,0,.59Z"/><path class="cls-1" d="m27.54,4.77l.33.31c.14-.06-.12-.09-.17-.2.07.01.14,0,.1-.08-.05.16-.28-.23-.26-.03Z"/><path class="cls-1" d="m27.63,5.43l.03.26.46.22c0-.27-.21-.19-.49-.48Z"/><path class="cls-1" d="m27.26,5.4l-.08-.04.33.63c-.11-.3-.07-.28-.25-.59Z"/><path class="cls-1" d="m22.97,5.88c.13.15.41.19.2.1-.1-.13-.42-.14-.2-.1Z"/><path class="cls-1" d="m26.11,7.77c-.16-.04-.11.33-.08.49.01-.16.29-.34.08-.49Z"/><path class="cls-1" d="m26.04,8.33s0-.04-.01-.07c0,.02,0,.04.01.07Z"/><path class="cls-1" d="m23.85,12.39s0,.03.02.06c0-.02-.01-.04-.02-.06Z"/><path class="cls-1" d="m23.83,12.23c.1-.01.1-.2-.04-.35,0,.15-.02.27.05.51.02-.05.17,0-.02-.16Z"/><path class="cls-1" d="m23.08,12.95c-.06-.12.04-.14-.12-.24-.08-.03,0,.19.12.24Z"/><path class="cls-1" d="m14.26,14.53c-.14,0-.12.1.11.27.07-.09-.1-.15-.11-.27Z"/><polygon class="cls-1" points="14.34 14.93 14.22 14.85 14.02 14.76 14.34 14.93"/><path class="cls-1" d="m13.58,15.18s-.06-.08-.07-.11c0,.05.01.11.07.11Z"/><path class="cls-1" d="m13.51,15.05s0,.02,0,.03v-.03Z"/><path class="cls-1" d="m13.61,15.07l-.11-.1s0,.05.01.08c0-.02.03-.02.1.02Z"/><path class="cls-1" d="m13.4,15.31l.41.18c-.07-.24-.27-.03-.53-.43l.12.25Z"/><path class="cls-1" d="m13.2,15.73c-.19,0,.21.58-.22.3-.03.44.69.49.57.92.45-.12-.61-.79-.18-.86-.35-.08-.12-.25-.17-.37Z"/><path class="cls-1" d="m13.88,16.24c-.18-.18-.3-.08-.2.07.05-.02.37.16.2-.07Z"/><polygon class="cls-1" points="12.92 16.4 12.7 16.36 12.8 16.48 12.92 16.4"/><path class="cls-1" d="m12.57,16.64l-.15-.27c.06.1-.06.21.15.27Z"/><path class="cls-1" d="m11.92,16.84c-.14,0,.32.52.34.27l-.05.02c-.07-.08-.33-.15-.29-.29Z"/><path class="cls-1" d="m11.87,18.53c.06-.04.04-.16-.07-.24l-.02.23h.09Z"/><path class="cls-1" d="m13.14,19.6c.35.22.09-.15.27-.16-.15.05-.18,0-.27.16Z"/><path class="cls-1" d="m11.28,18.31c-.1-.15.04-.14.09-.15-.19-.14-.23,0-.09.15Z"/><path class="cls-1" d="m11.19,18.63c-.17-.06-.17-.16-.28-.2-.05,0-.11,0-.14,0-.02-.01-.03-.01-.02,0,0,.01.05.06.12.15.13.12.48.44.62.61-.02-.09-.18-.25-.25-.38-.06-.14-.06-.21.2-.05l-.43-.6c-.2.05.3.43.19.49Z"/><path class="cls-1" d="m12.51,19.21l-.26-.07c.19.14.17.23.19.32.42.32.05-.18.07-.25Z"/><polygon class="cls-1" points="11.12 19.2 11.13 19.38 11.16 19.38 11.12 19.2"/><path class="cls-1" d="m11,19.08l-.08-.14c.04.1.07.2.11.31l-.03-.17Z"/><polygon class="cls-1" points="10.87 18.96 10.88 18.98 10.84 18.83 10.87 18.96"/><path class="cls-1" d="m10.75,18.94l.09.23c-.01-.07.11.16-.02-.15.03.12,0,.11-.08-.08Z"/><path class="cls-1" d="m10.73,26.59c.06-.14.01-.35-.03-.55l-.09.42s.09,0,.11.13Z"/><path class="cls-1" d="m10.32,25.46c-.08.12-.17.23-.27.34.29.33.34-.07.58.04-.1-.26-.25.02-.38-.24l.06-.14Z"/><path class="cls-1" d="m6.34,21.75c.19-.2.13-.2.35-.26-.25.02-.33-.13-.51-.22-.08.16-.4.29-.29.29l.28.02-.15.12c-.01.27.28-.17.32.05Z"/><path class="cls-1" d="m1.09,13.62c.1-.09.16-.2.21-.31-.2.03-.17.31-.21.31Z"/></g></svg>